# Made in Blockbench 5.1.6
mtllib chef_pig_boss_f2.mtl

o cube
v 0.4375 0.375 -0.0625
v 0.4375 0.375 -0.0625
v 0.4375 0.25951505843608913 -0.11033542904563622
v 0.4375 0.25951505843608913 -0.11033542904563622
v 0.3125 0.375 -0.0625
v 0.3125 0.375 -0.0625
v 0.3125 0.25951505843608913 -0.11033542904563622
v 0.3125 0.25951505843608913 -0.11033542904563622
v 1.0625 0.5625 1.0624999999999998
v 1.0625 0.5625 -0.062499999999999986
v 1.0625 1.1102230246251565e-16 1.0624999999999998
v 1.0625 5.551115123125783e-17 -0.06249999999999997
v -0.0625 0.5625 1.0624999999999998
v -0.0625 0.5625 -0.062499999999999986
v -0.0625 1.1102230246251565e-16 1.0624999999999998
v -0.0625 5.551115123125783e-17 -0.06249999999999997
v 1.25 1.625 1.25
v 1.25 1.625 -0.25
v 1.25 0.5624999999999998 1.25
v 1.25 0.5625 -0.24999999999999994
v -0.25 1.625 1.25
v -0.25 1.625 -0.25
v -0.25 0.5624999999999998 1.25
v -0.25 0.5625 -0.24999999999999994
v 1.375 1.75 0.5624999999999999
v 1.375 1.75 0.4999999999999999
v 1.375 1.5625 0.5625
v 1.375 1.5625 0.5
v 1.1875 1.75 0.5624999999999999
v 1.1875 1.75 0.4999999999999999
v 1.1875 1.5625 0.5625
v 1.1875 1.5625 0.5
v 1.125 1.8124999999999998 0.5625
v 1.125 1.8125 0.5
v 1.125 1.625 0.5625
v 1.125 1.625 0.5
v 0.9375 1.8124999999999998 0.5625
v 0.9375 1.8125 0.5
v 0.9375 1.625 0.5625
v 0.9375 1.625 0.5
v 1.0625 0.9375 -0.031249999999999972
v 1.0625 0.9375 -0.28125
v 1.0625 0.6874999999999999 -0.031249999999999944
v 1.0625 0.6875 -0.2812499999999999
v 0.8125 0.9375 -0.031249999999999972
v 0.8125 0.9375 -0.28125
v 0.8125 0.6874999999999999 -0.031249999999999944
v 0.8125 0.6875 -0.2812499999999999
v 0.125 1.1875 -0.06249999999999989
v 0.125 1.1875 -0.3124999999999999
v 0.125 1.1249999999999998 -0.0625
v 0.125 1.125 -0.31249999999999994
v -0.125 1.1875 -0.06249999999999989
v -0.125 1.1875 -0.3124999999999999
v -0.125 1.1249999999999998 -0.0625
v -0.125 1.125 -0.31249999999999994
v 0.1875 1.1249999999999998 -0.0625
v 0.1875 1.125 -0.31249999999999994
v 0.1875 1.0625 -0.06249999999999997
v 0.1875 1.0625 -0.3125
v -0.125 1.1249999999999998 -0.0625
v -0.125 1.125 -0.31249999999999994
v -0.125 1.0625 -0.06249999999999997
v -0.125 1.0625 -0.3125
v 0.25 1.0625 -0.06249999999999997
v 0.25 1.0625 -0.3125
v 0.25 1 -0.06249999999999997
v 0.25 1 -0.31249999999999994
v -0.125 1.0625 -0.06249999999999997
v -0.125 1.0625 -0.3125
v -0.125 1 -0.06249999999999997
v -0.125 1 -0.31249999999999994
v 0.1875 0.9375 -0.031249999999999972
v 0.1875 0.9375 -0.28125
v 0.1875 0.6874999999999999 -0.031249999999999944
v 0.1875 0.6875 -0.2812499999999999
v -0.0625 0.9375 -0.031249999999999972
v -0.0625 0.9375 -0.28125
v -0.0625 0.6874999999999999 -0.031249999999999944
v -0.0625 0.6875 -0.2812499999999999
v 1.125 1.1249999999999998 -0.0625
v 1.125 1.125 -0.31249999999999994
v 1.125 1.0625 -0.06249999999999997
v 1.125 1.0625 -0.3125
v 0.8125 1.1249999999999998 -0.0625
v 0.8125 1.125 -0.31249999999999994
v 0.8125 1.0625 -0.06249999999999997
v 0.8125 1.0625 -0.3125
v 1.125 1.1875 -0.06249999999999989
v 1.125 1.1875 -0.3124999999999999
v 1.125 1.1249999999999998 -0.0625
v 1.125 1.125 -0.31249999999999994
v 0.875 1.1875 -0.06249999999999989
v 0.875 1.1875 -0.3124999999999999
v 0.875 1.1249999999999998 -0.0625
v 0.875 1.125 -0.31249999999999994
v 1.125 1.0625 -0.06249999999999997
v 1.125 1.0625 -0.3125
v 1.125 1 -0.06249999999999997
v 1.125 1 -0.31249999999999994
v 0.75 1.0625 -0.06249999999999997
v 0.75 1.0625 -0.3125
v 0.75 1 -0.06249999999999997
v 0.75 1 -0.31249999999999994
v 0.75 0.875 -0.0625
v 0.75 0.8749999999999999 -0.375
v 0.75 0.4375 -0.062499999999999986
v 0.75 0.4375 -0.375
v 0.25 0.875 -0.0625
v 0.25 0.8749999999999999 -0.375
v 0.25 0.4375 -0.062499999999999986
v 0.25 0.4375 -0.375
v 1.375 1 -0.31249999999999994
v 1.375 1 -0.31249999999999994
v 1.375 0.3125 -0.3124999999999999
v 1.375 0.3125 -0.3124999999999999
v -0.375 1 -0.31249999999999994
v -0.375 1 -0.31249999999999994
v -0.375 0.3125 -0.3124999999999999
v -0.375 0.3125 -0.3124999999999999
v 0.5 0.625 1.6875
v 0.5 0.625 1.0625
v 0.5 1.6653345369377348e-16 1.6874999999999998
v 0.5 1.1102230246251565e-16 1.0624999999999998
v 0.5 0.625 1.6875
v 0.5 0.625 1.0625
v 0.5 1.6653345369377348e-16 1.6874999999999998
v 0.5 1.1102230246251565e-16 1.0624999999999998
vt 0.171875 0.2421875
vt 0.171875 0.2421875
vt 0.171875 0.2265625
vt 0.171875 0.2265625
vt 0.15625 0.2421875
vt 0.15625 0.2421875
vt 0.15625 0.2265625
vt 0.15625 0.2265625
vt 0.171875 0.25
vt 0.15625 0.25
vt 0.171875 0.25
vt 0.15625 0.25
vt 0.171875 0.234375
vt 0.15625 0.234375
vt 0.171875 0.234375
vt 0.15625 0.234375
vt 0.171875 0.2265625
vt 0.171875 0.2421875
vt 0.15625 0.2421875
vt 0.15625 0.2265625
vt 0.171875 0.2265625
vt 0.171875 0.2421875
vt 0.15625 0.2421875
vt 0.15625 0.2265625
vt 0.6328125 0.453125
vt 0.6328125 0.5234375
vt 0.4921875 0.5234375
vt 0.4921875 0.453125
vt 0.6796875 0.6015625
vt 0.6796875 0.671875
vt 0.5390625 0.671875
vt 0.5390625 0.6015625
vt 0.390625 0.671875
vt 0.390625 0.53125
vt 0.53125 0.53125
vt 0.53125 0.671875
vt 0.1953125 0.4375
vt 0.1953125 0.578125
vt 0.3359375 0.578125
vt 0.3359375 0.4375
vt 0.140625 0.3984375
vt 0.140625 0.46875
vt 0 0.46875
vt 0 0.3984375
vt 0.484375 0.453125
vt 0.484375 0.5234375
vt 0.34375 0.5234375
vt 0.34375 0.453125
vt 0.3828125 0.7265625
vt 0.3828125 0.859375
vt 0.1953125 0.859375
vt 0.1953125 0.7265625
vt 0.1875 0.4765625
vt 0.1875 0.609375
vt 0 0.609375
vt 0 0.4765625
vt 0 1
vt 0 0.8125
vt 0.1875 0.8125
vt 0.1875 1
vt 0 0.6171875
vt 0 0.8046875
vt 0.1875 0.8046875
vt 0.1875 0.6171875
vt 0.3828125 0.5859375
vt 0.3828125 0.71875
vt 0.1953125 0.71875
vt 0.1953125 0.5859375
vt 0.3828125 0.8671875
vt 0.3828125 1
vt 0.1953125 1
vt 0.1953125 0.8671875
vt 0.625 0.6796875
vt 0.625 0.703125
vt 0.6171875 0.703125
vt 0.6171875 0.6796875
vt 0.3984375 0.296875
vt 0.3984375 0.3203125
vt 0.390625 0.3203125
vt 0.390625 0.296875
vt 0.6796875 0.3828125
vt 0.6796875 0.375
vt 0.703125 0.375
vt 0.703125 0.3828125
vt 0.6796875 0.359375
vt 0.6796875 0.3671875
vt 0.703125 0.3671875
vt 0.703125 0.359375
vt 0.3359375 0.40625
vt 0.3359375 0.4296875
vt 0.3125 0.4296875
vt 0.3125 0.40625
vt 0.578125 0.6796875
vt 0.578125 0.703125
vt 0.5546875 0.703125
vt 0.5546875 0.6796875
vt 0.4140625 0.296875
vt 0.4140625 0.3203125
vt 0.40625 0.3203125
vt 0.40625 0.296875
vt 0.6171875 0.296875
vt 0.6171875 0.3203125
vt 0.609375 0.3203125
vt 0.609375 0.296875
vt 0.6796875 0.3515625
vt 0.6796875 0.34375
vt 0.703125 0.34375
vt 0.703125 0.3515625
vt 0.6875 0.671875
vt 0.6875 0.6796875
vt 0.7109375 0.6796875
vt 0.7109375 0.671875
vt 0.3359375 0.375
vt 0.3359375 0.3984375
vt 0.3125 0.3984375
vt 0.3125 0.375
vt 0.609375 0.6796875
vt 0.609375 0.703125
vt 0.5859375 0.703125
vt 0.5859375 0.6796875
vt 0.671875 0.7578125
vt 0.671875 0.7890625
vt 0.640625 0.7890625
vt 0.640625 0.7578125
vt 0.671875 0.6796875
vt 0.671875 0.7109375
vt 0.640625 0.7109375
vt 0.640625 0.6796875
vt 0.34375 0.359375
vt 0.34375 0.328125
vt 0.375 0.328125
vt 0.375 0.359375
vt 0.3828125 0.328125
vt 0.3828125 0.359375
vt 0.4140625 0.359375
vt 0.4140625 0.328125
vt 0.671875 0.71875
vt 0.671875 0.75
vt 0.640625 0.75
vt 0.640625 0.71875
vt 0.3359375 0.3359375
vt 0.3359375 0.3671875
vt 0.3046875 0.3671875
vt 0.3046875 0.3359375
vt 0.7109375 0.421875
vt 0.7109375 0.4296875
vt 0.6796875 0.4296875
vt 0.6796875 0.421875
vt 0.7109375 0.390625
vt 0.7109375 0.3984375
vt 0.6796875 0.3984375
vt 0.6796875 0.390625
vt 0.234375 0.328125
vt 0.234375 0.296875
vt 0.265625 0.296875
vt 0.265625 0.328125
vt 0.2734375 0.296875
vt 0.2734375 0.328125
vt 0.3046875 0.328125
vt 0.3046875 0.296875
vt 0.7109375 0.40625
vt 0.7109375 0.4140625
vt 0.6796875 0.4140625
vt 0.6796875 0.40625
vt 0.6015625 0.3125
vt 0.6015625 0.3203125
vt 0.5703125 0.3203125
vt 0.5703125 0.3125
vt 0.7109375 0.453125
vt 0.7109375 0.4609375
vt 0.6796875 0.4609375
vt 0.6796875 0.453125
vt 0.7109375 0.4375
vt 0.7109375 0.4453125
vt 0.6796875 0.4453125
vt 0.6796875 0.4375
vt 0.6328125 0.40625
vt 0.6328125 0.375
vt 0.671875 0.375
vt 0.671875 0.40625
vt 0.6328125 0.3359375
vt 0.6328125 0.3671875
vt 0.671875 0.3671875
vt 0.671875 0.3359375
vt 0.71875 0.734375
vt 0.71875 0.7421875
vt 0.6796875 0.7421875
vt 0.6796875 0.734375
vt 0.71875 0.75
vt 0.71875 0.7578125
vt 0.6796875 0.7578125
vt 0.6796875 0.75
vt 0.7109375 0.46875
vt 0.7109375 0.4765625
vt 0.6796875 0.4765625
vt 0.6796875 0.46875
vt 0.5625 0.3125
vt 0.5625 0.3203125
vt 0.53125 0.3203125
vt 0.53125 0.3125
vt 0.1953125 0.3671875
vt 0.1953125 0.3359375
vt 0.2421875 0.3359375
vt 0.2421875 0.3671875
vt 0.25 0.3359375
vt 0.25 0.3671875
vt 0.296875 0.3671875
vt 0.296875 0.3359375
vt 0.7265625 0.78125
vt 0.7265625 0.7890625
vt 0.6796875 0.7890625
vt 0.6796875 0.78125
vt 0.6796875 0.3203125
vt 0.6796875 0.328125
vt 0.6328125 0.328125
vt 0.6328125 0.3203125
vt 0.0703125 0.3125
vt 0.0703125 0.34375
vt 0.0390625 0.34375
vt 0.0390625 0.3125
vt 0.1484375 0.296875
vt 0.1484375 0.328125
vt 0.1171875 0.328125
vt 0.1171875 0.296875
vt 0.15625 0.328125
vt 0.15625 0.296875
vt 0.1875 0.296875
vt 0.1875 0.328125
vt 0.1953125 0.296875
vt 0.1953125 0.328125
vt 0.2265625 0.328125
vt 0.2265625 0.296875
vt 0.109375 0.3125
vt 0.109375 0.34375
vt 0.078125 0.34375
vt 0.078125 0.3125
vt 0.03125 0.3125
vt 0.03125 0.34375
vt 0 0.34375
vt 0 0.3125
vt 0.7109375 0.71875
vt 0.7109375 0.7265625
vt 0.6796875 0.7265625
vt 0.6796875 0.71875
vt 0.7109375 0.703125
vt 0.7109375 0.7109375
vt 0.6796875 0.7109375
vt 0.6796875 0.703125
vt 0.34375 0.578125
vt 0.34375 0.546875
vt 0.3828125 0.546875
vt 0.3828125 0.578125
vt 0.1484375 0.4375
vt 0.1484375 0.46875
vt 0.1875 0.46875
vt 0.1875 0.4375
vt 0.71875 0.765625
vt 0.71875 0.7734375
vt 0.6796875 0.7734375
vt 0.6796875 0.765625
vt 0.3828125 0.53125
vt 0.3828125 0.5390625
vt 0.34375 0.5390625
vt 0.34375 0.53125
vt 0.7109375 0.515625
vt 0.7109375 0.5234375
vt 0.6796875 0.5234375
vt 0.6796875 0.515625
vt 0.7109375 0.484375
vt 0.7109375 0.4921875
vt 0.6796875 0.4921875
vt 0.6796875 0.484375
vt 0.640625 0.5234375
vt 0.640625 0.4921875
vt 0.671875 0.4921875
vt 0.671875 0.5234375
vt 0.640625 0.453125
vt 0.640625 0.484375
vt 0.671875 0.484375
vt 0.671875 0.453125
vt 0.7109375 0.5
vt 0.7109375 0.5078125
vt 0.6796875 0.5078125
vt 0.6796875 0.5
vt 0.3828125 0.3125
vt 0.3828125 0.3203125
vt 0.3515625 0.3203125
vt 0.3515625 0.3125
vt 0.7109375 0.6875
vt 0.7109375 0.6953125
vt 0.6796875 0.6953125
vt 0.6796875 0.6875
vt 0.34375 0.3125
vt 0.34375 0.3203125
vt 0.3125 0.3203125
vt 0.3125 0.3125
vt 0.625 0.4453125
vt 0.625 0.4140625
vt 0.671875 0.4140625
vt 0.671875 0.4453125
vt 0.140625 0.3359375
vt 0.140625 0.3671875
vt 0.1875 0.3671875
vt 0.1875 0.3359375
vt 0.5234375 0.3203125
vt 0.5234375 0.328125
vt 0.4765625 0.328125
vt 0.4765625 0.3203125
vt 0.46875 0.3203125
vt 0.46875 0.328125
vt 0.421875 0.328125
vt 0.421875 0.3203125
vt 0.578125 0.328125
vt 0.578125 0.3828125
vt 0.5390625 0.3828125
vt 0.5390625 0.328125
vt 0.625 0.328125
vt 0.625 0.3828125
vt 0.5859375 0.3828125
vt 0.5859375 0.328125
vt 0 0.390625
vt 0 0.3515625
vt 0.0625 0.3515625
vt 0.0625 0.390625
vt 0.0703125 0.3515625
vt 0.0703125 0.390625
vt 0.1328125 0.390625
vt 0.1328125 0.3515625
vt 0.5625 0.390625
vt 0.5625 0.4453125
vt 0.5 0.4453125
vt 0.5 0.390625
vt 0.4921875 0.390625
vt 0.4921875 0.4453125
vt 0.4296875 0.4453125
vt 0.4296875 0.390625
vt 0.578125 0.203125
vt 0.5390625 0.203125
vt 0.578125 0.1484375
vt 0.5390625 0.1484375
vt 0.625 0.203125
vt 0.5859375 0.203125
vt 0.625 0.1484375
vt 0.5859375 0.1484375
vt 0 0.171875
vt 0.0625 0.171875
vt 0 0.2109375
vt 0.0625 0.2109375
vt 0.0703125 0.2109375
vt 0.1328125 0.2109375
vt 0.0703125 0.171875
vt 0.1328125 0.171875
vt 0.765625 0.203125
vt 0.765625 0.2890625
vt 0.578125 0.2890625
vt 0.578125 0.203125
vt 0.5625 0.2109375
vt 0.5625 0.296875
vt 0.34375 0.296875
vt 0.34375 0.2109375
vt 0.6328125 0.7109375
vt 0.6328125 0.7890625
vt 0.5546875 0.7890625
vt 0.5546875 0.7109375
vt 0.421875 0.3671875
vt 0.421875 0.4453125
vt 0.34375 0.4453125
vt 0.34375 0.3671875
vt 0.4296875 0.234375
vt 0.4296875 0.234375
vt 0.4296875 0.3125
vt 0.4296875 0.3125
vt 0.4375 0.3125
vt 0.4375 0.3125
vt 0.4375 0.234375
vt 0.4375 0.234375
vt 0.421875 0.3125
vt 0.421875 0.3125
vt 0.421875 0.234375
vt 0.421875 0.234375
vt 0.625 0.3203125
vt 0.625 0.3203125
vt 0.625 0.2421875
vt 0.625 0.2421875
vn 0 0 0
vn 0 0 0
vn 0 0 0
vn 0 0 0
vn 0 -0.3826834323650897 0.9238795325112867
vn 0 0.3826834323650897 -0.9238795325112867
vn 1 0 0
vn -1 0 0
vn 0 1 -5.551115123125783e-17
vn 0 -1 5.551115123125783e-17
vn 0 0 1
vn 0 -5.551115123125783e-17 -1
vn 1 0 0
vn -1 0 0
vn 0 1 1.1102230246251565e-16
vn 0 -1 0
vn 0 1.1102230246251568e-16 1
vn 0 -5.551115123125783e-17 -1
vn 1 0 0
vn -1 0 0
vn 0 1 -1.776356839400251e-15
vn 0 -1 1.776356839400251e-15
vn 0 1.6653345369377353e-16 1
vn 0 -1.6653345369377353e-16 -1
vn 1 0 0
vn -1 0 0
vn 0 1 -1.776356839400251e-15
vn 0 -1 1.776356839400251e-15
vn 0 1.6653345369377353e-16 1
vn 0 -1.6653345369377353e-16 -1
vn 1 0 0
vn -1 0 0
vn 0 1 1.6653345369377348e-16
vn 0 -1 -5.551115123125783e-17
vn 0 0 1
vn 0 -1.6653345369377348e-16 -1
vn 1 0 0
vn -1 0 0
vn 0 1 6.106226635438361e-16
vn 0 -1 -4.996003610813204e-16
vn 0 -2.0539125955565396e-15 1
vn 0 1.221245327087672e-15 -1
vn 1 0 0
vn -1 0 0
vn 0 1 5.551115123125783e-16
vn 0 -1 -1.1102230246251568e-16
vn 0 8.881784197001254e-16 1
vn 0 -1.1102230246251565e-16 -1
vn 1 0 0
vn -1 0 0
vn 0 1 5.551115123125783e-17
vn 0 -1 -5.551115123125783e-17
vn 0 1.1102230246251565e-16 1
vn 0 -1.1102230246251565e-16 -1
vn 1 0 0
vn -1 0 0
vn 0 1 1.6653345369377348e-16
vn 0 -1 -5.551115123125783e-17
vn 0 0 1
vn 0 -1.6653345369377348e-16 -1
vn 1 0 0
vn -1 0 0
vn 0 1 5.551115123125783e-16
vn 0 -1 -1.1102230246251568e-16
vn 0 8.881784197001254e-16 1
vn 0 -1.1102230246251565e-16 -1
vn 1 0 0
vn -1 0 0
vn 0 1 6.106226635438361e-16
vn 0 -1 -4.996003610813204e-16
vn 0 -2.0539125955565396e-15 1
vn 0 1.221245327087672e-15 -1
vn 1 0 0
vn -1 0 0
vn 0 1 5.551115123125783e-17
vn 0 -1 -5.551115123125783e-17
vn 0 1.1102230246251565e-16 1
vn 0 -1.1102230246251565e-16 -1
vn 1 0 0
vn -1 0 0
vn 0 1 -2.2204460492503136e-16
vn 0 -1 5.551115123125783e-17
vn 0 0 1
vn 0 0 -1
vn 0 0 0
vn 0 0 0
vn 0 0 0
vn 0 0 0
vn 0 5.551115123125783e-17 1
vn 0 -5.551115123125783e-17 -1
vn 1 0 0
vn -1 0 0
vn 0 0 0
vn 0 0 0
vn 0 0 0
vn 0 0 0
usemtl m_4679034e-2ad7-6bcf-4e6e-29526602c434
f 2/1/1 1/2/1 4/3/1 3/4/1
f 5/5/2 6/6/2 7/7/2 8/8/2
f 2/9/3 6/10/3 1/11/3 5/12/3
f 3/13/4 7/14/4 4/15/4 8/16/4
f 3/17/5 1/18/5 5/19/5 7/20/5
f 8/21/6 6/22/6 2/23/6 4/24/6
f 12/25/7 10/26/7 9/27/7 11/28/7
f 15/29/8 13/30/8 14/31/8 16/32/8
f 9/33/9 10/34/9 14/35/9 13/36/9
f 12/37/10 11/38/10 15/39/10 16/40/10
f 11/41/11 9/42/11 13/43/11 15/44/11
f 16/45/12 14/46/12 10/47/12 12/48/12
f 20/49/13 18/50/13 17/51/13 19/52/13
f 23/53/14 21/54/14 22/55/14 24/56/14
f 17/57/15 18/58/15 22/59/15 21/60/15
f 20/61/16 19/62/16 23/63/16 24/64/16
f 19/65/17 17/66/17 21/67/17 23/68/17
f 24/69/18 22/70/18 18/71/18 20/72/18
f 28/73/19 26/74/19 25/75/19 27/76/19
f 31/77/20 29/78/20 30/79/20 32/80/20
f 25/81/21 26/82/21 30/83/21 29/84/21
f 28/85/22 27/86/22 31/87/22 32/88/22
f 27/89/23 25/90/23 29/91/23 31/92/23
f 32/93/24 30/94/24 26/95/24 28/96/24
f 36/97/25 34/98/25 33/99/25 35/100/25
f 39/101/26 37/102/26 38/103/26 40/104/26
f 33/105/27 34/106/27 38/107/27 37/108/27
f 36/109/28 35/110/28 39/111/28 40/112/28
f 35/113/29 33/114/29 37/115/29 39/116/29
f 40/117/30 38/118/30 34/119/30 36/120/30
f 44/121/31 42/122/31 41/123/31 43/124/31
f 47/125/32 45/126/32 46/127/32 48/128/32
f 41/129/33 42/130/33 46/131/33 45/132/33
f 44/133/34 43/134/34 47/135/34 48/136/34
f 43/137/35 41/138/35 45/139/35 47/140/35
f 48/141/36 46/142/36 42/143/36 44/144/36
f 52/145/37 50/146/37 49/147/37 51/148/37
f 55/149/38 53/150/38 54/151/38 56/152/38
f 49/153/39 50/154/39 54/155/39 53/156/39
f 52/157/40 51/158/40 55/159/40 56/160/40
f 51/161/41 49/162/41 53/163/41 55/164/41
f 56/165/42 54/166/42 50/167/42 52/168/42
f 60/169/43 58/170/43 57/171/43 59/172/43
f 63/173/44 61/174/44 62/175/44 64/176/44
f 57/177/45 58/178/45 62/179/45 61/180/45
f 60/181/46 59/182/46 63/183/46 64/184/46
f 59/185/47 57/186/47 61/187/47 63/188/47
f 64/189/48 62/190/48 58/191/48 60/192/48
f 68/193/49 66/194/49 65/195/49 67/196/49
f 71/197/50 69/198/50 70/199/50 72/200/50
f 65/201/51 66/202/51 70/203/51 69/204/51
f 68/205/52 67/206/52 71/207/52 72/208/52
f 67/209/53 65/210/53 69/211/53 71/212/53
f 72/213/54 70/214/54 66/215/54 68/216/54
f 76/217/55 74/218/55 73/219/55 75/220/55
f 79/221/56 77/222/56 78/223/56 80/224/56
f 73/225/57 74/226/57 78/227/57 77/228/57
f 76/229/58 75/230/58 79/231/58 80/232/58
f 75/233/59 73/234/59 77/235/59 79/236/59
f 80/237/60 78/238/60 74/239/60 76/240/60
f 84/241/61 82/242/61 81/243/61 83/244/61
f 87/245/62 85/246/62 86/247/62 88/248/62
f 81/249/63 82/250/63 86/251/63 85/252/63
f 84/253/64 83/254/64 87/255/64 88/256/64
f 83/257/65 81/258/65 85/259/65 87/260/65
f 88/261/66 86/262/66 82/263/66 84/264/66
f 92/265/67 90/266/67 89/267/67 91/268/67
f 95/269/68 93/270/68 94/271/68 96/272/68
f 89/273/69 90/274/69 94/275/69 93/276/69
f 92/277/70 91/278/70 95/279/70 96/280/70
f 91/281/71 89/282/71 93/283/71 95/284/71
f 96/285/72 94/286/72 90/287/72 92/288/72
f 100/289/73 98/290/73 97/291/73 99/292/73
f 103/293/74 101/294/74 102/295/74 104/296/74
f 97/297/75 98/298/75 102/299/75 101/300/75
f 100/301/76 99/302/76 103/303/76 104/304/76
f 99/305/77 97/306/77 101/307/77 103/308/77
f 104/309/78 102/310/78 98/311/78 100/312/78
f 108/313/79 106/314/79 105/315/79 107/316/79
f 111/317/80 109/318/80 110/319/80 112/320/80
f 105/321/81 106/322/81 110/323/81 109/324/81
f 108/325/82 107/326/82 111/327/82 112/328/82
f 107/329/83 105/330/83 109/331/83 111/332/83
f 112/333/84 110/334/84 106/335/84 108/336/84
f 114/337/85 113/338/85 116/339/85 115/340/85
f 117/341/86 118/342/86 119/343/86 120/344/86
f 114/345/87 118/346/87 113/347/87 117/348/87
f 115/349/88 119/350/88 116/351/88 120/352/88
f 115/353/89 113/354/89 117/355/89 119/356/89
f 120/357/90 118/358/90 114/359/90 116/360/90
f 124/361/91 122/362/91 121/363/91 123/364/91
f 127/365/92 125/366/92 126/367/92 128/368/92
f 122/369/93 126/370/93 121/371/93 125/372/93
f 123/373/94 127/374/94 124/375/94 128/376/94
f 121/377/95 125/378/95 123/379/95 127/380/95
f 126/381/96 122/382/96 128/383/96 124/384/96