# Made in Blockbench 5.1.6
mtllib king_pig_boss_f2.mtl

o mesh
v 1 0.5625 1.125
v 1 0.5625 -0.125
v 1 -0.0625 1.125
v 1 -0.0625 -0.125
v -1 0.5625 1.125
v -1 0.5625 -0.125
v -1 -0.0625 1.125
v -1 -0.0625 -0.125
vt 0.640625 0.7578125
vt 0.484375 0.7578125
vt 0.484375 0.6796875
vt 0.640625 0.6796875
vt 0 0.84375
vt 0.25 0.84375
vt 0.25 1
vt 0 1
vt 0.25 0.6796875
vt 0.25 0.8359375
vt 0 0.8359375
vt 0 0.6796875
vt 0.5078125 0.765625
vt 0.5078125 0.84375
vt 0.2578125 0.84375
vt 0.2578125 0.765625
vt 0.6484375 0.640625
vt 0.3984375 0.640625
vt 0.3984375 0.5625
vt 0.6484375 0.5625
vt 0.65625 0.921875
vt 0.65625 1
vt 0.5 1
vt 0.5 0.921875
vn 1 0 0
vn 0 1 0
vn 0 -1 0
vn 0 0 1
vn 0 0 -1
vn -1 0 0
usemtl m_c149c2fb-8730-a3f3-2a0b-289e41265496
f 2/1/1 1/2/1 3/3/1 4/4/1
f 5/5/2 1/6/2 2/7/2 6/8/2
f 4/9/3 3/10/3 7/11/3 8/12/3
f 3/13/4 1/14/4 5/15/4 7/16/4
f 6/17/5 2/18/5 4/19/5 8/20/5
f 7/21/6 5/22/6 6/23/6 8/24/6
o mesh
v 0.518465625 1.4375 1.0625
v 0.518465625 1.4375 -0.125
v 0.9375 0.5625 1.0625
v 0.9375 0.5625 -0.125
v -0.518465625 1.4375 1.0625
v -0.518465625 1.4375 -0.125
v -0.9375 0.5625 1.0625
v -0.9375 0.5625 -0.125
vt 0.1484375 0.5546875
vt 0 0.5546875
vt 0 0.4296875
vt 0.1484375 0.4296875
vt 0.2421875 0.640625
vt 0.2421875 0.5078125
vt 0.390625 0.5078125
vt 0.390625 0.640625
vt 0.4921875 0.8515625
vt 0.4921875 1
vt 0.2578125 1
vt 0.2578125 0.8515625
vt 0.484375 0.6484375
vt 0.4319953125 0.7578125
vt 0.30237890625 0.7578125
vt 0.25 0.6484375
vt 0.1819953125 0.671875
vt 0.05237890625 0.671875
vt 0 0.5625
vt 0.234375 0.5625
vt 0.546875 0.4296875
vt 0.546875 0.5546875
vt 0.3984375 0.5546875
vt 0.3984375 0.4296875
vn 0.9019109870676403 0.4319219505960248 0
vn 0 1 0
vn 0 -1 0
vn 0 0 1
vn 0 0 -1
vn -0.9019109870676403 0.4319219505960248 0
usemtl m_c149c2fb-8730-a3f3-2a0b-289e41265496
f 10/25/7 9/26/7 11/27/7 12/28/7
f 13/29/8 9/30/8 10/31/8 14/32/8
f 12/33/9 11/34/9 15/35/9 16/36/9
f 11/37/10 9/38/10 13/39/10 15/40/10
f 14/41/11 10/42/11 12/43/11 16/44/11
f 15/45/12 13/46/12 14/47/12 16/48/12
o cube
v 0.625 1.6875 0.5
v 0.625 1.6875 0.4375
v 0.625 1.4375 0.5
v 0.625 1.4375 0.4375
v 0.375 1.6875 0.4375
v 0.375 1.6875 0.5
v 0.375 1.4375 0.4375
v 0.375 1.4375 0.5
vt 0.6484375 0.3515625
vt 0.6796875 0.3515625
vt 0.6796875 0.3203125
vt 0.6484375 0.3203125
vt 0.078125 0.3203125
vt 0.0859375 0.3203125
vt 0.0859375 0.2890625
vt 0.078125 0.2890625
vt 0.65625 0.65625
vt 0.6875 0.65625
vt 0.6875 0.625
vt 0.65625 0.625
vt 0.375 0.3203125
vt 0.3828125 0.3203125
vt 0.3828125 0.2890625
vt 0.375 0.2890625
vt 0.703125 0.3046875
vt 0.671875 0.3046875
vt 0.671875 0.3125
vt 0.703125 0.3125
vt 0.03125 0.3046875
vt 0 0.3046875
vt 0 0.296875
vt 0.03125 0.296875
vn 0 0 -1
vn 1 0 0
vn 0 0 1
vn -1 0 0
vn 0 1 0
vn 0 -1 0
usemtl m_c149c2fb-8730-a3f3-2a0b-289e41265496
f 20/52/13 23/51/13 21/50/13 18/49/13
f 19/56/14 20/55/14 18/54/14 17/53/14
f 24/60/15 19/59/15 17/58/15 22/57/15
f 23/64/16 24/63/16 22/62/16 21/61/16
f 22/68/17 17/67/17 18/66/17 21/65/17
f 23/72/18 20/71/18 19/70/18 24/69/18
o cube
v 0.3125 0.875 -0.125
v 0.3125 0.875 -0.375
v 0.3125 0.375 -0.125
v 0.3125 0.375 -0.375
v -0.3125 0.875 -0.375
v -0.3125 0.875 -0.125
v -0.3125 0.375 -0.375
v -0.3125 0.375 -0.125
vt 0.5 0.9140625
vt 0.578125 0.9140625
vt 0.578125 0.8515625
vt 0.5 0.8515625
vt 0.5625 0.421875
vt 0.59375 0.421875
vt 0.59375 0.359375
vt 0.5625 0.359375
vt 0.515625 0.84375
vt 0.59375 0.84375
vt 0.59375 0.78125
vt 0.515625 0.78125
vt 0.5859375 0.9140625
vt 0.6171875 0.9140625
vt 0.6171875 0.8515625
vt 0.5859375 0.8515625
vt 0.6328125 0.5234375
vt 0.5546875 0.5234375
vt 0.5546875 0.5546875
vt 0.6328125 0.5546875
vt 0.6328125 0.515625
vt 0.5546875 0.515625
vt 0.5546875 0.484375
vt 0.6328125 0.484375
vn 0 0 -1
vn 1 0 0
vn 0 0 1
vn -1 0 0
vn 0 1 0
vn 0 -1 0
usemtl m_c149c2fb-8730-a3f3-2a0b-289e41265496
f 28/76/19 31/75/19 29/74/19 26/73/19
f 27/80/20 28/79/20 26/78/20 25/77/20
f 32/84/21 27/83/21 25/82/21 30/81/21
f 31/88/22 32/87/22 30/86/22 29/85/22
f 30/92/23 25/91/23 26/90/23 29/89/23
f 31/96/24 28/95/24 27/94/24 32/93/24
o cube
v 0.75 0.8125 0.15625
v 0.75 0.8125 -0.15625
v 0.75 0.5 0.15625
v 0.75 0.5 -0.15625
v 0.4375 0.8125 -0.15625
v 0.4375 0.8125 0.15625
v 0.4375 0.5 -0.15625
v 0.4375 0.5 0.15625
vt 0.6015625 0.84375
vt 0.640625 0.84375
vt 0.640625 0.8046875
vt 0.6015625 0.8046875
vt 0.6015625 0.421875
vt 0.640625 0.421875
vt 0.640625 0.3828125
vt 0.6015625 0.3828125
vt 0.609375 0.4765625
vt 0.6484375 0.4765625
vt 0.6484375 0.4375
vt 0.609375 0.4375
vt 0.625 0.9140625
vt 0.6640625 0.9140625
vt 0.6640625 0.875
vt 0.625 0.875
vt 0.1953125 0.3359375
vt 0.15625 0.3359375
vt 0.15625 0.375
vt 0.1953125 0.375
vt 0.2421875 0.375
vt 0.203125 0.375
vt 0.203125 0.3359375
vt 0.2421875 0.3359375
vn 0 0 -1
vn 1 0 0
vn 0 0 1
vn -1 0 0
vn 0 1 0
vn 0 -1 0
usemtl m_c149c2fb-8730-a3f3-2a0b-289e41265496
f 36/100/25 39/99/25 37/98/25 34/97/25
f 35/104/26 36/103/26 34/102/26 33/101/26
f 40/108/27 35/107/27 33/106/27 38/105/27
f 39/112/28 40/111/28 38/110/28 37/109/28
f 38/116/29 33/115/29 34/114/29 37/113/29
f 39/120/30 36/119/30 35/118/30 40/117/30
o cube
v 0 0.625 1.75
v 0 0.625 1.125
v 0 0 1.75
v 0 0 1.125
v 0 0.625 1.125
v 0 0.625 1.75
v 0 0 1.125
v 0 0 1.75
vt 0.53125 0.3671875
vt 0.53125 0.3671875
vt 0.53125 0.2890625
vt 0.53125 0.2890625
vt 0.15625 0.5546875
vt 0.234375 0.5546875
vt 0.234375 0.4765625
vt 0.15625 0.4765625
vt 0.4765625 0.28125
vt 0.4765625 0.28125
vt 0.4765625 0.203125
vt 0.4765625 0.203125
vt 0.2421875 0.5
vt 0.3203125 0.5
vt 0.3203125 0.421875
vt 0.2421875 0.421875
vt 0.53125 0.203125
vt 0.53125 0.203125
vt 0.53125 0.28125
vt 0.53125 0.28125
vt 0.6484375 0.28125
vt 0.6484375 0.28125
vt 0.6484375 0.203125
vt 0.6484375 0.203125
vn 0 0 -1
vn 1 0 0
vn 0 0 1
vn -1 0 0
vn 0 1 0
vn 0 -1 0
usemtl none
f 44/124/31 47/123/31 45/122/31 42/121/31
f 43/128/32 44/127/32 42/126/32 41/125/32
f 48/132/33 43/131/33 41/130/33 46/129/33
f 47/136/34 48/135/34 46/134/34 45/133/34
f 46/140/35 41/139/35 42/138/35 45/137/35
f 47/144/36 44/143/36 43/142/36 48/141/36
o cube
v 0.25 1.6875 0.5
v 0.25 1.6875 0.4375
v 0.25 1.4375 0.5
v 0.25 1.4375 0.4375
v 0 1.6875 0.4375
v 0 1.6875 0.5
v 0 1.4375 0.4375
v 0 1.4375 0.5
vt 0.65625 0.6171875
vt 0.6875 0.6171875
vt 0.6875 0.5859375
vt 0.65625 0.5859375
vt 0.3046875 0.3125
vt 0.3125 0.3125
vt 0.3125 0.28125
vt 0.3046875 0.28125
vt 0.65625 0.4921875
vt 0.6875 0.4921875
vt 0.6875 0.4609375
vt 0.65625 0.4609375
vt 0.0390625 0.3046875
vt 0.046875 0.3046875
vt 0.046875 0.2734375
vt 0.0390625 0.2734375
vt 0.3515625 0.296875
vt 0.3203125 0.296875
vt 0.3203125 0.3046875
vt 0.3515625 0.3046875
vt 0.7265625 0.65625
vt 0.6953125 0.65625
vt 0.6953125 0.6484375
vt 0.7265625 0.6484375
vn 0 0 -1
vn 1 0 0
vn 0 0 1
vn -1 0 0
vn 0 1 0
vn 0 -1 0
usemtl m_c149c2fb-8730-a3f3-2a0b-289e41265496
f 52/148/37 55/147/37 53/146/37 50/145/37
f 51/152/38 52/151/38 50/150/38 49/149/38
f 56/156/39 51/155/39 49/154/39 54/153/39
f 55/160/40 56/159/40 54/158/40 53/157/40
f 54/164/41 49/163/41 50/162/41 53/161/41
f 55/168/42 52/167/42 51/166/42 56/165/42
o cube
v -0.4375 0.8125 0.15625
v -0.4375 0.8125 -0.15625
v -0.4375 0.5 0.15625
v -0.4375 0.5 -0.15625
v -0.75 0.8125 -0.15625
v -0.75 0.8125 0.15625
v -0.75 0.5 -0.15625
v -0.75 0.5 0.15625
vt 0.25 0.375
vt 0.2890625 0.375
vt 0.2890625 0.3359375
vt 0.25 0.3359375
vt 0.296875 0.375
vt 0.3359375 0.375
vt 0.3359375 0.3359375
vt 0.296875 0.3359375
vt 0.6015625 0.375
vt 0.640625 0.375
vt 0.640625 0.3359375
vt 0.6015625 0.3359375
vt 0 0.3671875
vt 0.0390625 0.3671875
vt 0.0390625 0.328125
vt 0 0.328125
vt 0.0859375 0.328125
vt 0.046875 0.328125
vt 0.046875 0.3671875
vt 0.0859375 0.3671875
vt 0.3828125 0.3671875
vt 0.34375 0.3671875
vt 0.34375 0.328125
vt 0.3828125 0.328125
vn 0 0 -1
vn 1 0 0
vn 0 0 1
vn -1 0 0
vn 0 1 0
vn 0 -1 0
usemtl m_c149c2fb-8730-a3f3-2a0b-289e41265496
f 60/172/43 63/171/43 61/170/43 58/169/43
f 59/176/44 60/175/44 58/174/44 57/173/44
f 64/180/45 59/179/45 57/178/45 62/177/45
f 63/184/46 64/183/46 62/182/46 61/181/46
f 62/188/47 57/187/47 58/186/47 61/185/47
f 63/192/48 60/191/48 59/190/48 64/189/48
o cube
v 0.125 0.25 -0.125
v 0.125 0.25 -0.1875
v 0.125 0.1875 -0.125
v 0.125 0.1875 -0.1875
v -0.125 0.25 -0.1875
v -0.125 0.25 -0.125
v -0.125 0.1875 -0.1875
v -0.125 0.1875 -0.125
vt 0.6953125 0.640625
vt 0.7265625 0.640625
vt 0.7265625 0.6328125
vt 0.6953125 0.6328125
vt 0.625 0.2890625
vt 0.6328125 0.2890625
vt 0.6328125 0.28125
vt 0.625 0.28125
vt 0.6953125 0.625
vt 0.7265625 0.625
vt 0.7265625 0.6171875
vt 0.6953125 0.6171875
vt 0.7109375 0.375
vt 0.71875 0.375
vt 0.71875 0.3671875
vt 0.7109375 0.3671875
vt 0.7265625 0.6015625
vt 0.6953125 0.6015625
vt 0.6953125 0.609375
vt 0.7265625 0.609375
vt 0.7265625 0.59375
vt 0.6953125 0.59375
vt 0.6953125 0.5859375
vt 0.7265625 0.5859375
vn 0 0 -1
vn 1 0 0
vn 0 0 1
vn -1 0 0
vn 0 1 0
vn 0 -1 0
usemtl m_c149c2fb-8730-a3f3-2a0b-289e41265496
f 68/196/49 71/195/49 69/194/49 66/193/49
f 67/200/50 68/199/50 66/198/50 65/197/50
f 72/204/51 67/203/51 65/202/51 70/201/51
f 71/208/52 72/207/52 70/206/52 69/205/52
f 70/212/53 65/211/53 66/210/53 69/209/53
f 71/216/54 68/215/54 67/214/54 72/213/54
o cube
v 0 0.625 1.75
v 0 0.625 1.125
v 0 0 1.75
v 0 0 1.125
v 0 0.625 1.75
v 0 0.625 1.125
v 0 0 1.75
v 0 0 1.125
vt 0.921875 0.921875
vt 0.921875 1
vt 0.84375 1
vt 0.84375 0.921875
vt 1 0.921875
vt 1 1
vt 0.921875 1
vt 0.921875 0.921875
vt 0.53125 0.203125
vt 0.53125 0.203125
vt 0.53125 0.28125
vt 0.53125 0.28125
vt 0.6484375 0.28125
vt 0.6484375 0.28125
vt 0.6484375 0.203125
vt 0.6484375 0.203125
vt 0.4765625 0.28125
vt 0.4765625 0.28125
vt 0.4765625 0.203125
vt 0.4765625 0.203125
vt 0.53125 0.3671875
vt 0.53125 0.3671875
vt 0.53125 0.2890625
vt 0.53125 0.2890625
vn 1 0 0
vn -1 0 0
vn 0 0 0
vn 0 0 0
vn 0 0 0
vn 0 0 0
usemtl m_c149c2fb-8730-a3f3-2a0b-289e41265496
f 76/217/55 74/218/55 73/219/55 75/220/55
f 79/221/56 77/222/56 78/223/56 80/224/56
f 74/225/57 78/226/57 73/227/57 77/228/57
f 75/229/58 79/230/58 76/231/58 80/232/58
f 73/233/59 77/234/59 75/235/59 79/236/59
f 78/237/60 74/238/60 80/239/60 76/240/60
o mesh
v -0.125 2.6875 0.625
v -0.125 2.6875 0.25
v -0.1875 1.8125 0.5625
v -0.1875 1.8125 0.3125
v -0.5 2.6875 0.625
v -0.5 2.6875 0.25
v -0.4375 1.8125 0.5625
v -0.4375 1.8125 0.3125
vt 0.36329109375 0.49343742187499995
vt 0.31641609375 0.49343742187499995
vt 0.32422859375 0.38378429687500004
vt 0.35547859375 0.38378429687500004
vt 0.19141609375 0.439253046875
vt 0.19922859375 0.5489069531249999
vt 0.15235359375 0.5489069531249999
vt 0.16016609375 0.439253046875
vt 0.3671875 0.375
vt 0.4140625 0.375
vt 0.4140625 0.421875
vt 0.3671875 0.421875
vt 0.6796875 0.359375
vt 0.6796875 0.390625
vt 0.6484375 0.390625
vt 0.6484375 0.359375
vt 0.24610359375 0.384565546875
vt 0.25391609375 0.49421945312500004
vt 0.20704109375 0.49421945312500004
vt 0.21485359375 0.384565546875
vt 0.30860359375 0.49421945312500004
vt 0.26172859375 0.49421945312500004
vt 0.26954109375 0.384565546875
vt 0.30079109375 0.384565546875
vn 0.997458699830735 -0.07124704998790965 0
vn -0.997458699830735 -0.07124704998790965 0
vn 0 1 0
vn 0 -1 0
vn 0 -0.07124704998790965 0.997458699830735
vn 0 -0.07124704998790965 -0.997458699830735
usemtl m_c149c2fb-8730-a3f3-2a0b-289e41265496
f 82/241/61 81/242/61 83/243/61 84/244/61
f 87/245/62 85/246/62 86/247/62 88/248/62
f 85/249/63 81/250/63 82/251/63 86/252/63
f 84/253/64 83/254/64 87/255/64 88/256/64
f 83/257/65 81/258/65 85/259/65 87/260/65
f 86/261/66 82/262/66 84/263/66 88/264/66
o mesh
v -0.5 2.9375 0.37499999999999994
v -0.5625 2.9375 0.37499999999999994
v -0.395833125 1.8125 0.395833125
v -0.479166875 1.8125 0.39583312499999995
v -0.5 2.9375 0.49999999999999994
v -0.5625 2.9375 0.49999999999999994
v -0.395833125 1.8125 0.479166875
v -0.479166875 1.8125 0.479166875
vt 0.637391640625 0.65884359375
vt 0.636671484375 0.6666228125
vt 0.495420859375 0.6666228125
vt 0.49638109375 0.65625
vt 0.1015625 0.21875
vt 0.1015625 0.360000703125
vt 0.09634359375 0.360720859375
vt 0.09375 0.21971031249999995
vt 0.6953125 0.4609375
vt 0.7109375 0.4609375
vt 0.7109375 0.46875
vt 0.6953125 0.46875
vt 0.4765625 0.7109375
vt 0.4765625 0.71875
vt 0.46875 0.71875
vt 0.46875 0.7109375
vt 0.14583359375 0.28125
vt 0.1484375 0.421875
vt 0.1328125 0.421875
vt 0.13541640625 0.28125
vt 0.125 0.421875
vt 0.109375 0.421875
vt 0.11197890625 0.28125
vt 0.12239609375 0.28125
vn 2.220065419839448e-16 -0.018515158916053865 -0.9998285797527062
vn -2.220065419839448e-16 -0.01851515891605386 0.9998285797527062
vn 0 1 0
vn 0 -1 0
vn 0.9957406571273267 0.09219839338968898 2.2109884081962832e-16
vn -0.9972677680619823 -0.07387150184389349 -2.214379275637906e-16
usemtl m_c149c2fb-8730-a3f3-2a0b-289e41265496
f 90/265/67 89/266/67 91/267/67 92/268/67
f 95/269/68 93/270/68 94/271/68 96/272/68
f 93/273/69 89/274/69 90/275/69 94/276/69
f 92/277/70 91/278/70 95/279/70 96/280/70
f 91/281/71 89/282/71 93/283/71 95/284/71
f 94/285/72 90/286/72 92/287/72 96/288/72
o mesh
v -0.125 2.9375 0.49999999999999994
v -0.0625 2.9375 0.49999999999999994
v -0.229166875 1.8125 0.479166875
v -0.145833125 1.8125 0.479166875
v -0.125 2.9375 0.37499999999999994
v -0.0625 2.9375 0.37499999999999994
v -0.22916687500000002 1.8125 0.395833125
v -0.145833125 1.8125 0.39583312499999995
vt 0.746766640625 0.78384359375
vt 0.746046484375 0.7916228125
vt 0.604795859375 0.7916228125
vt 0.60575609375 0.78125
vt 0.3984375 0.21875
vt 0.3984375 0.360000703125
vt 0.39321859375 0.360720859375
vt 0.390625 0.21971031249999995
vt 0 0.28125
vt 0.015625 0.28125
vt 0.015625 0.2890625
vt 0 0.2890625
vt 0.6484375 0.484375
vt 0.6484375 0.4921875
vt 0.640625 0.4921875
vt 0.640625 0.484375
vt 0.45833359375 0.28125
vt 0.4609375 0.421875
vt 0.4453125 0.421875
vt 0.44791640625 0.28125
vt 0.4375 0.421875
vt 0.421875 0.421875
vt 0.42447890625 0.28125
vt 0.43489609375 0.28125
vn 2.220065419839448e-16 -0.018515158916053865 0.9998285797527062
vn -2.220065419839448e-16 -0.01851515891605386 -0.9998285797527062
vn 0 1 0
vn 0 -1 0
vn -0.9957406571273267 0.09219839338968898 2.2109884081962832e-16
vn 0.9972677680619823 -0.07387150184389349 -2.214379275637906e-16
usemtl m_c149c2fb-8730-a3f3-2a0b-289e41265496
f 98/289/73 97/290/73 99/291/73 100/292/73
f 103/293/74 101/294/74 102/295/74 104/296/74
f 101/297/75 97/298/75 98/299/75 102/300/75
f 100/301/76 99/302/76 103/303/76 104/304/76
f 99/305/77 97/306/77 101/307/77 103/308/77
f 102/309/78 98/310/78 100/311/78 104/312/78
o mesh
v -0.375 2.9375 0.625
v -0.375 2.9375 0.6875
v -0.354166875 1.8125 0.520833125
v -0.354166875 1.8125 0.604166875
v -0.24999999999999997 2.9375 0.625
v -0.24999999999999997 2.9375 0.6875
v -0.270833125 1.8125 0.520833125
v -0.270833125 1.8125 0.604166875
vt 0.770204140625 0.85415609375
vt 0.769483984375 0.8619353125
vt 0.628233359375 0.8619353125
vt 0.62919359375 0.8515625
vt 0.4140625 0.21875
vt 0.4140625 0.360000703125
vt 0.40884359375 0.360720859375
vt 0.40625 0.21971031249999995
vt 0.203125 0.28125
vt 0.21875 0.28125
vt 0.21875 0.2890625
vt 0.203125 0.2890625
vt 0.640625 0.3203125
vt 0.640625 0.328125
vt 0.6328125 0.328125
vt 0.6328125 0.3203125
vt 0.50520859375 0.28125
vt 0.5078125 0.421875
vt 0.4921875 0.421875
vt 0.49479140625 0.28125
vt 0.484375 0.421875
vt 0.46875 0.421875
vt 0.47135390625 0.28125
vt 0.48177109375 0.28125
vn -0.9998285797527062 -0.018515158916053865 1.224436869890196e-16
vn 0.9998285797527062 -0.01851515891605386 -1.224436869890196e-16
vn 0 1 0
vn 0 -1 0
vn -1.2194306085318628e-16 0.09219839338968898 -0.9957406571273267
vn 1.2213007800499316e-16 -0.07387150184389349 0.9972677680619823
usemtl m_c149c2fb-8730-a3f3-2a0b-289e41265496
f 106/313/79 105/314/79 107/315/79 108/316/79
f 111/317/80 109/318/80 110/319/80 112/320/80
f 109/321/81 105/322/81 106/323/81 110/324/81
f 108/325/82 107/326/82 111/327/82 112/328/82
f 107/329/83 105/330/83 109/331/83 111/332/83
f 110/333/84 106/334/84 108/335/84 112/336/84
o mesh
v -0.25 2.9375 0.25
v -0.25 2.9375 0.1875
v -0.270833125 1.8125 0.354166875
v -0.270833125 1.8125 0.270833125
v -0.375 2.9375 0.25
v -0.375 2.9375 0.1875
v -0.354166875 1.8125 0.354166875
v -0.354166875 1.8125 0.270833125
vt 0.785829140625 0.54165609375
vt 0.785108984375 0.5494353125
vt 0.643858359375 0.5494353125
vt 0.64481859375 0.5390625
vt 0.5703125 0.203125
vt 0.5703125 0.344375703125
vt 0.56509359375 0.345095859375
vt 0.5625 0.20408531249999995
vt 0.2265625 0.28125
vt 0.2421875 0.28125
vt 0.2421875 0.2890625
vt 0.2265625 0.2890625
vt 0.03125 0.28125
vt 0.03125 0.2890625
vt 0.0234375 0.2890625
vt 0.0234375 0.28125
vt 0.55208359375 0.28125
vt 0.5546875 0.421875
vt 0.5390625 0.421875
vt 0.54166640625 0.28125
vt 0.53125 0.421875
vt 0.515625 0.421875
vt 0.51822890625 0.28125
vt 0.52864609375 0.28125
vn 0.9998285797527062 -0.018515158916053865 0
vn -0.9998285797527062 -0.01851515891605386 0
vn 0 1 0
vn 0 -1 0
vn 0 0.09219839338968898 0.9957406571273267
vn 0 -0.07387150184389349 -0.9972677680619823
usemtl m_c149c2fb-8730-a3f3-2a0b-289e41265496
f 114/337/85 113/338/85 115/339/85 116/340/85
f 119/341/86 117/342/86 118/343/86 120/344/86
f 117/345/87 113/346/87 114/347/87 118/348/87
f 116/349/88 115/350/88 119/351/88 120/352/88
f 115/353/89 113/354/89 117/355/89 119/356/89
f 118/357/90 114/358/90 116/359/90 120/360/90
o cube
v -0.140625 1.8125 0.609375
v -0.140625 1.8125 0.265625
v -0.140625 1.75 0.609375
v -0.140625 1.75 0.265625
v -0.484375 1.8125 0.265625
v -0.484375 1.8125 0.609375
v -0.484375 1.75 0.265625
v -0.484375 1.75 0.609375
vt 0.6640625 1
vt 0.7109375 1
vt 0.7109375 0.9921875
vt 0.6640625 0.9921875
vt 0.6640625 0.984375
vt 0.7109375 0.984375
vt 0.7109375 0.9765625
vt 0.6640625 0.9765625
vt 0.6640625 0.96875
vt 0.7109375 0.96875
vt 0.7109375 0.9609375
vt 0.6640625 0.9609375
vt 0.6640625 0.953125
vt 0.7109375 0.953125
vt 0.7109375 0.9453125
vt 0.6640625 0.9453125
vt 0.046875 0.375
vt 0 0.375
vt 0 0.421875
vt 0.046875 0.421875
vt 0.1015625 0.421875
vt 0.0546875 0.421875
vt 0.0546875 0.375
vt 0.1015625 0.375
vn 0 0 -1
vn 1 0 0
vn 0 0 1
vn -1 0 0
vn 0 1 0
vn 0 -1 0
usemtl m_c149c2fb-8730-a3f3-2a0b-289e41265496
f 124/364/91 127/363/91 125/362/91 122/361/91
f 123/368/92 124/367/92 122/366/92 121/365/92
f 128/372/93 123/371/93 121/370/93 126/369/93
f 127/376/94 128/375/94 126/374/94 125/373/94
f 126/380/95 121/379/95 122/378/95 125/377/95
f 127/384/96 124/383/96 123/382/96 128/381/96
o cube
v 0 3.0625 0.5
v 0 3.0625 0.375
v 0 2.9375 0.5
v 0 2.9375 0.375
v -0.125 3.0625 0.375
v -0.125 3.0625 0.5
v -0.125 2.9375 0.375
v -0.125 2.9375 0.5
vt 0.2109375 0.53125
vt 0.2265625 0.53125
vt 0.2265625 0.515625
vt 0.2109375 0.515625
vt 0.375 0.5
vt 0.390625 0.5
vt 0.390625 0.484375
vt 0.375 0.484375
vt 0.375 0.4765625
vt 0.390625 0.4765625
vt 0.390625 0.4609375
vt 0.375 0.4609375
vt 0.375 0.453125
vt 0.390625 0.453125
vt 0.390625 0.4375
vt 0.375 0.4375
vt 0.59375 0.3359375
vt 0.578125 0.3359375
vt 0.578125 0.3515625
vt 0.59375 0.3515625
vt 0.0703125 0.3203125
vt 0.0546875 0.3203125
vt 0.0546875 0.3046875
vt 0.0703125 0.3046875
vn 0 0 -1
vn 1 0 0
vn 0 0 1
vn -1 0 0
vn 0 1 0
vn 0 -1 0
usemtl m_c149c2fb-8730-a3f3-2a0b-289e41265496
f 132/388/97 135/387/97 133/386/97 130/385/97
f 131/392/98 132/391/98 130/390/98 129/389/98
f 136/396/99 131/395/99 129/394/99 134/393/99
f 135/400/100 136/399/100 134/398/100 133/397/100
f 134/404/101 129/403/101 130/402/101 133/401/101
f 135/408/102 132/407/102 131/406/102 136/405/102
o cube
v -0.25 3.0625 0.75
v -0.25 3.0625 0.625
v -0.25 2.9375 0.75
v -0.25 2.9375 0.625
v -0.375 3.0625 0.625
v -0.375 3.0625 0.75
v -0.375 2.9375 0.625
v -0.375 2.9375 0.75
vt 0.2109375 0.3125
vt 0.2265625 0.3125
vt 0.2265625 0.296875
vt 0.2109375 0.296875
vt 0.6875 0.7734375
vt 0.703125 0.7734375
vt 0.703125 0.7578125
vt 0.6875 0.7578125
vt 0.234375 0.3125
vt 0.25 0.3125
vt 0.25 0.296875
vt 0.234375 0.296875
vt 0.6875 0.75
vt 0.703125 0.75
vt 0.703125 0.734375
vt 0.6875 0.734375
vt 0.2734375 0.296875
vt 0.2578125 0.296875
vt 0.2578125 0.3125
vt 0.2734375 0.3125
vt 0.703125 0.7265625
vt 0.6875 0.7265625
vt 0.6875 0.7109375
vt 0.703125 0.7109375
vn 0 0 -1
vn 1 0 0
vn 0 0 1
vn -1 0 0
vn 0 1 0
vn 0 -1 0
usemtl m_c149c2fb-8730-a3f3-2a0b-289e41265496
f 140/412/103 143/411/103 141/410/103 138/409/103
f 139/416/104 140/415/104 138/414/104 137/413/104
f 144/420/105 139/419/105 137/418/105 142/417/105
f 143/424/106 144/423/106 142/422/106 141/421/106
f 142/428/107 137/427/107 138/426/107 141/425/107
f 143/432/108 140/431/108 139/430/108 144/429/108
o cube
v -0.5 3.0625 0.5
v -0.5 3.0625 0.375
v -0.5 2.9375 0.5
v -0.5 2.9375 0.375
v -0.625 3.0625 0.375
v -0.625 3.0625 0.5
v -0.625 2.9375 0.375
v -0.625 2.9375 0.5
vt 0.28125 0.3125
vt 0.296875 0.3125
vt 0.296875 0.296875
vt 0.28125 0.296875
vt 0.6875 0.703125
vt 0.703125 0.703125
vt 0.703125 0.6875
vt 0.6875 0.6875
vt 0.6875 0.6796875
vt 0.703125 0.6796875
vt 0.703125 0.6640625
vt 0.6875 0.6640625
vt 0.6875 0.4375
vt 0.703125 0.4375
vt 0.703125 0.421875
vt 0.6875 0.421875
vt 0.59375 0.296875
vt 0.578125 0.296875
vt 0.578125 0.3125
vt 0.59375 0.3125
vt 0.703125 0.4140625
vt 0.6875 0.4140625
vt 0.6875 0.3984375
vt 0.703125 0.3984375
vn 0 0 -1
vn 1 0 0
vn 0 0 1
vn -1 0 0
vn 0 1 0
vn 0 -1 0
usemtl m_c149c2fb-8730-a3f3-2a0b-289e41265496
f 148/436/109 151/435/109 149/434/109 146/433/109
f 147/440/110 148/439/110 146/438/110 145/437/110
f 152/444/111 147/443/111 145/442/111 150/441/111
f 151/448/112 152/447/112 150/446/112 149/445/112
f 150/452/113 145/451/113 146/450/113 149/449/113
f 151/456/114 148/455/114 147/454/114 152/453/114
o cube
v -0.25 3.0625 0.25
v -0.25 3.0625 0.125
v -0.25 2.9375 0.25
v -0.25 2.9375 0.125
v -0.375 3.0625 0.125
v -0.375 3.0625 0.25
v -0.375 2.9375 0.125
v -0.375 2.9375 0.25
vt 0.6015625 0.3125
vt 0.6171875 0.3125
vt 0.6171875 0.296875
vt 0.6015625 0.296875
vt 0.6875 0.390625
vt 0.703125 0.390625
vt 0.703125 0.375
vt 0.6875 0.375
vt 0.625 0.3125
vt 0.640625 0.3125
vt 0.640625 0.296875
vt 0.625 0.296875
vt 0.6875 0.3671875
vt 0.703125 0.3671875
vt 0.703125 0.3515625
vt 0.6875 0.3515625
vt 0.6640625 0.296875
vt 0.6484375 0.296875
vt 0.6484375 0.3125
vt 0.6640625 0.3125
vt 0.703125 0.34375
vt 0.6875 0.34375
vt 0.6875 0.328125
vt 0.703125 0.328125
vn 0 0 -1
vn 1 0 0
vn 0 0 1
vn -1 0 0
vn 0 1 0
vn 0 -1 0
usemtl m_c149c2fb-8730-a3f3-2a0b-289e41265496
f 156/460/115 159/459/115 157/458/115 154/457/115
f 155/464/116 156/463/116 154/462/116 153/461/116
f 160/468/117 155/467/117 153/466/117 158/465/117
f 159/472/118 160/471/118 158/470/118 157/469/118
f 158/476/119 153/475/119 154/474/119 157/473/119
f 159/480/120 156/479/120 155/478/120 160/477/120
o cube
v -0.1875 1.75 0.5625
v -0.1875 1.75 0.3125
v -0.1875 1.5 0.5625
v -0.1875 1.5 0.3125
v -0.4375 1.75 0.3125
v -0.4375 1.75 0.5625
v -0.4375 1.5 0.3125
v -0.4375 1.5 0.5625
vt 0.640625 0.53125
vt 0.671875 0.53125
vt 0.671875 0.5
vt 0.640625 0.5
vt 0.6484375 0.84375
vt 0.6796875 0.84375
vt 0.6796875 0.8125
vt 0.6484375 0.8125
vt 0.6484375 0.7734375
vt 0.6796875 0.7734375
vt 0.6796875 0.7421875
vt 0.6484375 0.7421875
vt 0.6484375 0.734375
vt 0.6796875 0.734375
vt 0.6796875 0.703125
vt 0.6484375 0.703125
vt 0.6796875 0.6640625
vt 0.6484375 0.6640625
vt 0.6484375 0.6953125
vt 0.6796875 0.6953125
vt 0.6796875 0.4296875
vt 0.6484375 0.4296875
vt 0.6484375 0.3984375
vt 0.6796875 0.3984375
vn 0 0 -1
vn 1 0 0
vn 0 0 1
vn -1 0 0
vn 0 1 0
vn 0 -1 0
usemtl m_c149c2fb-8730-a3f3-2a0b-289e41265496
f 164/484/121 167/483/121 165/482/121 162/481/121
f 163/488/122 164/487/122 162/486/122 161/485/122
f 168/492/123 163/491/123 161/490/123 166/489/123
f 167/496/124 168/495/124 166/494/124 165/493/124
f 166/500/125 161/499/125 162/498/125 165/497/125
f 167/504/126 164/503/126 163/502/126 168/501/126
o cube
v -0.140625 1.5 0.609375
v -0.140625 1.5 0.265625
v -0.140625 1.4375 0.609375
v -0.140625 1.4375 0.265625
v -0.484375 1.5 0.265625
v -0.484375 1.5 0.609375
v -0.484375 1.4375 0.265625
v -0.484375 1.4375 0.609375
vt 0.515625 0.7734375
vt 0.5625 0.7734375
vt 0.5625 0.765625
vt 0.515625 0.765625
vt 0.5703125 0.7734375
vt 0.6171875 0.7734375
vt 0.6171875 0.765625
vt 0.5703125 0.765625
vt 0.65625 0.578125
vt 0.703125 0.578125
vt 0.703125 0.5703125
vt 0.65625 0.5703125
vt 0.65625 0.453125
vt 0.703125 0.453125
vt 0.703125 0.4453125
vt 0.65625 0.4453125
vt 0.6015625 0.4296875
vt 0.5546875 0.4296875
vt 0.5546875 0.4765625
vt 0.6015625 0.4765625
vt 0.203125 0.4296875
vt 0.15625 0.4296875
vt 0.15625 0.3828125
vt 0.203125 0.3828125
vn 0 0 -1
vn 1 0 0
vn 0 0 1
vn -1 0 0
vn 0 1 0
vn 0 -1 0
usemtl m_c149c2fb-8730-a3f3-2a0b-289e41265496
f 172/508/127 175/507/127 173/506/127 170/505/127
f 171/512/128 172/511/128 170/510/128 169/509/128
f 176/516/129 171/515/129 169/514/129 174/513/129
f 175/520/130 176/519/130 174/518/130 173/517/130
f 174/524/131 169/523/131 170/522/131 173/521/131
f 175/528/132 172/527/132 171/526/132 176/525/132
o cube
v -0.25 1.6875 0.34375
v -0.25 1.6875 0.28125
v -0.25 1.5625 0.34375
v -0.25 1.5625 0.28125
v -0.375 1.6875 0.28125
v -0.375 1.6875 0.34375
v -0.375 1.5625 0.28125
v -0.375 1.5625 0.34375
vt 0.2578125 0.7578125
vt 0.2734375 0.7578125
vt 0.2734375 0.7421875
vt 0.2578125 0.7421875
vt 0.2578125 0.734375
vt 0.265625 0.734375
vt 0.265625 0.71875
vt 0.2578125 0.71875
vt 0 0.671875
vt 0.015625 0.671875
vt 0.015625 0.65625
vt 0 0.65625
vt 0.0234375 0.671875
vt 0.03125 0.671875
vt 0.03125 0.65625
vt 0.0234375 0.65625
vt 0.4765625 0.7265625
vt 0.4609375 0.7265625
vt 0.4609375 0.734375
vt 0.4765625 0.734375
vt 0.640625 0.7734375
vt 0.625 0.7734375
vt 0.625 0.765625
vt 0.640625 0.765625
vn 0 0 -1
vn 1 0 0
vn 0 0 1
vn -1 0 0
vn 0 1 0
vn 0 -1 0
usemtl m_c149c2fb-8730-a3f3-2a0b-289e41265496
f 180/532/133 183/531/133 181/530/133 178/529/133
f 179/536/134 180/535/134 178/534/134 177/533/134
f 184/540/135 179/539/135 177/538/135 182/537/135
f 183/544/136 184/543/136 182/542/136 181/541/136
f 182/548/137 177/547/137 178/546/137 181/545/137
f 183/552/138 180/551/138 179/550/138 184/549/138
o cube
v -0.25 1.6875 0.59375
v -0.25 1.6875 0.53125
v -0.25 1.5625 0.59375
v -0.25 1.5625 0.53125
v -0.375 1.6875 0.53125
v -0.375 1.6875 0.59375
v -0.375 1.5625 0.53125
v -0.375 1.5625 0.59375
vt 0.203125 0.671875
vt 0.21875 0.671875
vt 0.21875 0.65625
vt 0.203125 0.65625
vt 0 0.625
vt 0.0078125 0.625
vt 0.0078125 0.609375
vt 0 0.609375
vt 0.2265625 0.671875
vt 0.2421875 0.671875
vt 0.2421875 0.65625
vt 0.2265625 0.65625
vt 0.2265625 0.625
vt 0.234375 0.625
vt 0.234375 0.609375
vt 0.2265625 0.609375
vt 0.7109375 0.4921875
vt 0.6953125 0.4921875
vt 0.6953125 0.5
vt 0.7109375 0.5
vt 0.7109375 0.484375
vt 0.6953125 0.484375
vt 0.6953125 0.4765625
vt 0.7109375 0.4765625
vn 0 0 -1
vn 1 0 0
vn 0 0 1
vn -1 0 0
vn 0 1 0
vn 0 -1 0
usemtl m_c149c2fb-8730-a3f3-2a0b-289e41265496
f 188/556/139 191/555/139 189/554/139 186/553/139
f 187/560/140 188/559/140 186/558/140 185/557/140
f 192/564/141 187/563/141 185/562/141 190/561/141
f 191/568/142 192/567/142 190/566/142 189/565/142
f 190/572/143 185/571/143 186/570/143 189/569/143
f 191/576/144 188/575/144 187/574/144 192/573/144
o cube
v -0.15625 1.6875 0.5
v -0.15625 1.6875 0.375
v -0.15625 1.5625 0.5
v -0.15625 1.5625 0.375
v -0.21875 1.6875 0.375
v -0.21875 1.6875 0.5
v -0.21875 1.5625 0.375
v -0.21875 1.5625 0.5
vt 0.359375 0.3046875
vt 0.3671875 0.3046875
vt 0.3671875 0.2890625
vt 0.359375 0.2890625
vt 0 0.6484375
vt 0.015625 0.6484375
vt 0.015625 0.6328125
vt 0 0.6328125
vt 0.0546875 0.296875
vt 0.0625 0.296875
vt 0.0625 0.28125
vt 0.0546875 0.28125
vt 0.21875 0.6484375
vt 0.234375 0.6484375
vt 0.234375 0.6328125
vt 0.21875 0.6328125
vt 0.1640625 0.28125
vt 0.15625 0.28125
vt 0.15625 0.296875
vt 0.1640625 0.296875
vt 0.1796875 0.296875
vt 0.171875 0.296875
vt 0.171875 0.28125
vt 0.1796875 0.28125
vn 0 0 -1
vn 1 0 0
vn 0 0 1
vn -1 0 0
vn 0 1 0
vn 0 -1 0
usemtl m_c149c2fb-8730-a3f3-2a0b-289e41265496
f 196/580/145 199/579/145 197/578/145 194/577/145
f 195/584/146 196/583/146 194/582/146 193/581/146
f 200/588/147 195/587/147 193/586/147 198/585/147
f 199/592/148 200/591/148 198/590/148 197/589/148
f 198/596/149 193/595/149 194/594/149 197/593/149
f 199/600/150 196/599/150 195/598/150 200/597/150
o cube
v -0.40625 1.6875 0.5
v -0.40625 1.6875 0.375
v -0.40625 1.5625 0.5
v -0.40625 1.5625 0.375
v -0.46875 1.6875 0.375
v -0.46875 1.6875 0.5
v -0.46875 1.5625 0.375
v -0.46875 1.5625 0.5
vt 0.1875 0.296875
vt 0.1953125 0.296875
vt 0.1953125 0.28125
vt 0.1875 0.28125
vt 0.2109375 0.5546875
vt 0.2265625 0.5546875
vt 0.2265625 0.5390625
vt 0.2109375 0.5390625
vt 0.671875 0.296875
vt 0.6796875 0.296875
vt 0.6796875 0.28125
vt 0.671875 0.28125
vt 0.453125 0.7578125
vt 0.46875 0.7578125
vt 0.46875 0.7421875
vt 0.453125 0.7421875
vt 0.6953125 0.28125
vt 0.6875 0.28125
vt 0.6875 0.296875
vt 0.6953125 0.296875
vt 0.7109375 0.296875
vt 0.703125 0.296875
vt 0.703125 0.28125
vt 0.7109375 0.28125
vn 0 0 -1
vn 1 0 0
vn 0 0 1
vn -1 0 0
vn 0 1 0
vn 0 -1 0
usemtl m_c149c2fb-8730-a3f3-2a0b-289e41265496
f 204/604/151 207/603/151 205/602/151 202/601/151
f 203/608/152 204/607/152 202/606/152 201/605/152
f 208/612/153 203/611/153 201/610/153 206/609/153
f 207/616/154 208/615/154 206/614/154 205/613/154
f 206/620/155 201/619/155 202/618/155 205/617/155
f 207/624/156 204/623/156 203/622/156 208/621/156
o cube
v -0.375 1.0625 -0.09375
v -0.375 1.0625 -0.15625
v -0.375 1 -0.09375
v -0.375 1 -0.15625
v -0.75 1.0625 -0.15625
v -0.75 1.0625 -0.09375
v -0.75 1 -0.15625
v -0.75 1 -0.09375
vt 0 0.3203125
vt 0.046875 0.3203125
vt 0.046875 0.3125
vt 0 0.3125
vt 0.578125 0.2890625
vt 0.5859375 0.2890625
vt 0.5859375 0.28125
vt 0.578125 0.28125
vt 0.3203125 0.3203125
vt 0.3671875 0.3203125
vt 0.3671875 0.3125
vt 0.3203125 0.3125
vt 0.7109375 0.421875
vt 0.71875 0.421875
vt 0.71875 0.4140625
vt 0.7109375 0.4140625
vt 0.7265625 0.5234375
vt 0.6796875 0.5234375
vt 0.6796875 0.53125
vt 0.7265625 0.53125
vt 0.7265625 0.515625
vt 0.6796875 0.515625
vt 0.6796875 0.5078125
vt 0.7265625 0.5078125
vn 0 0 -1
vn 1 0 0
vn 0 0 1
vn -1 0 0
vn 0 1 0
vn 0 -1 0
usemtl m_c149c2fb-8730-a3f3-2a0b-289e41265496
f 212/628/157 215/627/157 213/626/157 210/625/157
f 211/632/158 212/631/158 210/630/158 209/629/158
f 216/636/159 211/635/159 209/634/159 214/633/159
f 215/640/160 216/639/160 214/638/160 213/637/160
f 214/644/161 209/643/161 210/642/161 213/641/161
f 215/648/162 212/647/162 211/646/162 216/645/162
o cube
v -0.4375 1 -0.09375
v -0.4375 1 -0.15625
v -0.4375 0.9375 -0.09375
v -0.4375 0.9375 -0.15625
v -0.8125 1 -0.15625
v -0.8125 1 -0.09375
v -0.8125 0.9375 -0.15625
v -0.8125 0.9375 -0.09375
vt 0.15625 0.3125
vt 0.203125 0.3125
vt 0.203125 0.3046875
vt 0.15625 0.3046875
vt 0.59375 0.2890625
vt 0.6015625 0.2890625
vt 0.6015625 0.28125
vt 0.59375 0.28125
vt 0.6875 0.84375
vt 0.734375 0.84375
vt 0.734375 0.8359375
vt 0.6875 0.8359375
vt 0.7109375 0.40625
vt 0.71875 0.40625
vt 0.71875 0.3984375
vt 0.7109375 0.3984375
vt 0.734375 0.8203125
vt 0.6875 0.8203125
vt 0.6875 0.828125
vt 0.734375 0.828125
vt 0.734375 0.8125
vt 0.6875 0.8125
vt 0.6875 0.8046875
vt 0.734375 0.8046875
vn 0 0 -1
vn 1 0 0
vn 0 0 1
vn -1 0 0
vn 0 1 0
vn 0 -1 0
usemtl m_c149c2fb-8730-a3f3-2a0b-289e41265496
f 220/652/163 223/651/163 221/650/163 218/649/163
f 219/656/164 220/655/164 218/654/164 217/653/164
f 224/660/165 219/659/165 217/658/165 222/657/165
f 223/664/166 224/663/166 222/662/166 221/661/166
f 222/668/167 217/667/167 218/666/167 221/665/167
f 223/672/168 220/671/168 219/670/168 224/669/168
o cube
v -0.6875 0.9375 -0.09375
v -0.6875 0.9375 -0.15625
v -0.6875 0.875 -0.09375
v -0.6875 0.875 -0.15625
v -0.8125 0.9375 -0.15625
v -0.8125 0.9375 -0.09375
v -0.8125 0.875 -0.15625
v -0.8125 0.875 -0.09375
vt 0.2734375 0.2890625
vt 0.2890625 0.2890625
vt 0.2890625 0.28125
vt 0.2734375 0.28125
vt 0.609375 0.2890625
vt 0.6171875 0.2890625
vt 0.6171875 0.28125
vt 0.609375 0.28125
vt 0.7109375 0.7265625
vt 0.7265625 0.7265625
vt 0.7265625 0.71875
vt 0.7109375 0.71875
vt 0.7109375 0.390625
vt 0.71875 0.390625
vt 0.71875 0.3828125
vt 0.7109375 0.3828125
vt 0.7265625 0.703125
vt 0.7109375 0.703125
vt 0.7109375 0.7109375
vt 0.7265625 0.7109375
vt 0.7265625 0.6953125
vt 0.7109375 0.6953125
vt 0.7109375 0.6875
vt 0.7265625 0.6875
vn 0 0 -1
vn 1 0 0
vn 0 0 1
vn -1 0 0
vn 0 1 0
vn 0 -1 0
usemtl m_c149c2fb-8730-a3f3-2a0b-289e41265496
f 228/676/169 231/675/169 229/674/169 226/673/169
f 227/680/170 228/679/170 226/678/170 225/677/170
f 232/684/171 227/683/171 225/682/171 230/681/171
f 231/688/172 232/687/172 230/686/172 229/685/172
f 230/692/173 225/691/173 226/690/173 229/689/173
f 231/696/174 228/695/174 227/694/174 232/693/174
o cube
v 0.8125 1 -0.09375
v 0.8125 1 -0.15625
v 0.8125 0.9375 -0.09375
v 0.8125 0.9375 -0.15625
v 0.4375 1 -0.15625
v 0.4375 1 -0.09375
v 0.4375 0.9375 -0.15625
v 0.4375 0.9375 -0.09375
vt 0.15625 0.328125
vt 0.203125 0.328125
vt 0.203125 0.3203125
vt 0.15625 0.3203125
vt 0.3359375 0.2890625
vt 0.34375 0.2890625
vt 0.34375 0.28125
vt 0.3359375 0.28125
vt 0.2109375 0.328125
vt 0.2578125 0.328125
vt 0.2578125 0.3203125
vt 0.2109375 0.3203125
vt 0.7109375 0.578125
vt 0.71875 0.578125
vt 0.71875 0.5703125
vt 0.7109375 0.5703125
vt 0.3125 0.3203125
vt 0.265625 0.3203125
vt 0.265625 0.328125
vt 0.3125 0.328125
vt 0.625 0.328125
vt 0.578125 0.328125
vt 0.578125 0.3203125
vt 0.625 0.3203125
vn 0 0 -1
vn 1 0 0
vn 0 0 1
vn -1 0 0
vn 0 1 0
vn 0 -1 0
usemtl m_c149c2fb-8730-a3f3-2a0b-289e41265496
f 236/700/175 239/699/175 237/698/175 234/697/175
f 235/704/176 236/703/176 234/702/176 233/701/176
f 240/708/177 235/707/177 233/706/177 238/705/177
f 239/712/178 240/711/178 238/710/178 237/709/178
f 238/716/179 233/715/179 234/714/179 237/713/179
f 239/720/180 236/719/180 235/718/180 240/717/180
o cube
v 0.75 1.0625 -0.09375
v 0.75 1.0625 -0.15625
v 0.75 1 -0.09375
v 0.75 1 -0.15625
v 0.375 1.0625 -0.15625
v 0.375 1.0625 -0.09375
v 0.375 1 -0.15625
v 0.375 1 -0.09375
vt 0.6640625 0.9375
vt 0.7109375 0.9375
vt 0.7109375 0.9296875
vt 0.6640625 0.9296875
vt 0.3203125 0.2890625
vt 0.328125 0.2890625
vt 0.328125 0.28125
vt 0.3203125 0.28125
vt 0.671875 0.921875
vt 0.71875 0.921875
vt 0.71875 0.9140625
vt 0.671875 0.9140625
vt 0.7109375 0.6796875
vt 0.71875 0.6796875
vt 0.71875 0.671875
vt 0.7109375 0.671875
vt 0.71875 0.8984375
vt 0.671875 0.8984375
vt 0.671875 0.90625
vt 0.71875 0.90625
vt 0.71875 0.890625
vt 0.671875 0.890625
vt 0.671875 0.8828125
vt 0.71875 0.8828125
vn 0 0 -1
vn 1 0 0
vn 0 0 1
vn -1 0 0
vn 0 1 0
vn 0 -1 0
usemtl m_c149c2fb-8730-a3f3-2a0b-289e41265496
f 244/724/181 247/723/181 245/722/181 242/721/181
f 243/728/182 244/727/182 242/726/182 241/725/182
f 248/732/183 243/731/183 241/730/183 246/729/183
f 247/736/184 248/735/184 246/734/184 245/733/184
f 246/740/185 241/739/185 242/738/185 245/737/185
f 247/744/186 244/743/186 243/742/186 248/741/186
o cube
v 0.8125 0.9375 -0.09375
v 0.8125 0.9375 -0.15625
v 0.8125 0.875 -0.09375
v 0.8125 0.875 -0.15625
v 0.6875 0.9375 -0.15625
v 0.6875 0.9375 -0.09375
v 0.6875 0.875 -0.15625
v 0.6875 0.875 -0.09375
vt 0.7109375 0.7734375
vt 0.7265625 0.7734375
vt 0.7265625 0.765625
vt 0.7109375 0.765625
vt 0.7109375 0.453125
vt 0.71875 0.453125
vt 0.71875 0.4453125
vt 0.7109375 0.4453125
vt 0.7109375 0.7578125
vt 0.7265625 0.7578125
vt 0.7265625 0.75
vt 0.7109375 0.75
vt 0.7109375 0.4375
vt 0.71875 0.4375
vt 0.71875 0.4296875
vt 0.7109375 0.4296875
vt 0.265625 0.28125
vt 0.25 0.28125
vt 0.25 0.2890625
vt 0.265625 0.2890625
vt 0.7265625 0.7421875
vt 0.7109375 0.7421875
vt 0.7109375 0.734375
vt 0.7265625 0.734375
vn 0 0 -1
vn 1 0 0
vn 0 0 1
vn -1 0 0
vn 0 1 0
vn 0 -1 0
usemtl m_c149c2fb-8730-a3f3-2a0b-289e41265496
f 252/748/187 255/747/187 253/746/187 250/745/187
f 251/752/188 252/751/188 250/750/188 249/749/188
f 256/756/189 251/755/189 249/754/189 254/753/189
f 255/760/190 256/759/190 254/758/190 253/757/190
f 254/764/191 249/763/191 250/762/191 253/761/191
f 255/768/192 252/767/192 251/766/192 256/765/192