# Made in Blockbench 5.1.6
mtllib king_pig_boss.mtl

o mesh
v 1 0.5625 1.125
v 1 0.5625 -0.125
v 1 -0.0625 1.125
v 1 -0.0625 -0.125
v -1 0.5625 1.125
v -1 0.5625 -0.125
v -1 -0.0625 1.125
v -1 -0.0625 -0.125
vt 0.640625 0.7578125
vt 0.484375 0.7578125
vt 0.484375 0.6796875
vt 0.640625 0.6796875
vt 0 0.84375
vt 0.25 0.84375
vt 0.25 1
vt 0 1
vt 0.25 0.6796875
vt 0.25 0.8359375
vt 0 0.8359375
vt 0 0.6796875
vt 0.5078125 0.765625
vt 0.5078125 0.84375
vt 0.2578125 0.84375
vt 0.2578125 0.765625
vt 0.6484375 0.640625
vt 0.3984375 0.640625
vt 0.3984375 0.5625
vt 0.6484375 0.5625
vt 0.65625 0.921875
vt 0.65625 1
vt 0.5 1
vt 0.5 0.921875
vn 1 0 0
vn 0 1 0
vn 0 -1 0
vn 0 0 1
vn 0 0 -1
vn -1 0 0
usemtl m_715c42bd-7823-aba3-61f8-3d22f9794647
f 2/1/1 1/2/1 3/3/1 4/4/1
f 5/5/2 1/6/2 2/7/2 6/8/2
f 4/9/3 3/10/3 7/11/3 8/12/3
f 3/13/4 1/14/4 5/15/4 7/16/4
f 6/17/5 2/18/5 4/19/5 8/20/5
f 7/21/6 5/22/6 6/23/6 8/24/6
o mesh
v 0.518465625 1.4375 1.0625
v 0.518465625 1.4375 -0.125
v 0.9375 0.5625 1.0625
v 0.9375 0.5625 -0.125
v -0.518465625 1.4375 1.0625
v -0.518465625 1.4375 -0.125
v -0.9375 0.5625 1.0625
v -0.9375 0.5625 -0.125
vt 0.1484375 0.5546875
vt 0 0.5546875
vt 0 0.4296875
vt 0.1484375 0.4296875
vt 0.2421875 0.640625
vt 0.2421875 0.5078125
vt 0.390625 0.5078125
vt 0.390625 0.640625
vt 0.4921875 0.8515625
vt 0.4921875 1
vt 0.2578125 1
vt 0.2578125 0.8515625
vt 0.484375 0.6484375
vt 0.4319953125 0.7578125
vt 0.30237890625 0.7578125
vt 0.25 0.6484375
vt 0.1819953125 0.671875
vt 0.05237890625 0.671875
vt 0 0.5625
vt 0.234375 0.5625
vt 0.546875 0.4296875
vt 0.546875 0.5546875
vt 0.3984375 0.5546875
vt 0.3984375 0.4296875
vn 0.9019109870676403 0.4319219505960248 0
vn 0 1 0
vn 0 -1 0
vn 0 0 1
vn 0 0 -1
vn -0.9019109870676403 0.4319219505960248 0
usemtl m_715c42bd-7823-aba3-61f8-3d22f9794647
f 10/25/7 9/26/7 11/27/7 12/28/7
f 13/29/8 9/30/8 10/31/8 14/32/8
f 12/33/9 11/34/9 15/35/9 16/36/9
f 11/37/10 9/38/10 13/39/10 15/40/10
f 14/41/11 10/42/11 12/43/11 16/44/11
f 15/45/12 13/46/12 14/47/12 16/48/12
o cube
v 0.625 1.6875 0.5
v 0.625 1.6875 0.4375
v 0.625 1.4375 0.5
v 0.625 1.4375 0.4375
v 0.375 1.6875 0.5
v 0.375 1.6875 0.4375
v 0.375 1.4375 0.5
v 0.375 1.4375 0.4375
vt 0.5078125 0.8828125
vt 0.5078125 0.9140625
vt 0.5 0.9140625
vt 0.5 0.8828125
vt 0.390625 0.46875
vt 0.390625 0.5
vt 0.3828125 0.5
vt 0.3828125 0.46875
vt 0.6953125 0.59375
vt 0.6953125 0.5859375
vt 0.7265625 0.5859375
vt 0.7265625 0.59375
vt 0.6953125 0.3984375
vt 0.6953125 0.40625
vt 0.7265625 0.40625
vt 0.7265625 0.3984375
vt 0.6953125 0.9296875
vt 0.6953125 0.9609375
vt 0.6640625 0.9609375
vt 0.6640625 0.9296875
vt 0.6953125 0.96875
vt 0.6953125 1
vt 0.6640625 1
vt 0.6640625 0.96875
vn 1 0 0
vn -1 0 0
vn 0 1 0
vn 0 -1 0
vn 0 0 1
vn 0 0 -1
usemtl m_715c42bd-7823-aba3-61f8-3d22f9794647
f 20/49/13 18/50/13 17/51/13 19/52/13
f 23/53/14 21/54/14 22/55/14 24/56/14
f 17/57/15 18/58/15 22/59/15 21/60/15
f 20/61/16 19/62/16 23/63/16 24/64/16
f 19/65/17 17/66/17 21/67/17 23/68/17
f 24/69/18 22/70/18 18/71/18 20/72/18
o cube
v 0.25 1.6875 0.5
v 0.25 1.6875 0.4375
v 0.25 1.4375 0.5
v 0.25 1.4375 0.4375
v 0 1.6875 0.5
v 0 1.6875 0.4375
v 0 1.4375 0.5
v 0 1.4375 0.4375
vt 0.390625 0.4296875
vt 0.390625 0.4609375
vt 0.3828125 0.4609375
vt 0.3828125 0.4296875
vt 0.3203125 0.3828125
vt 0.3203125 0.4140625
vt 0.3125 0.4140625
vt 0.3125 0.3828125
vt 0.1796875 0.296875
vt 0.1796875 0.2890625
vt 0.2109375 0.2890625
vt 0.2109375 0.296875
vt 0.4453125 0.2890625
vt 0.4453125 0.296875
vt 0.4765625 0.296875
vt 0.4765625 0.2890625
vt 0.703125 0.3125
vt 0.703125 0.34375
vt 0.671875 0.34375
vt 0.671875 0.3125
vt 0.34375 0.296875
vt 0.34375 0.328125
vt 0.3125 0.328125
vt 0.3125 0.296875
vn 1 0 0
vn -1 0 0
vn 0 1 0
vn 0 -1 0
vn 0 0 1
vn 0 0 -1
usemtl m_715c42bd-7823-aba3-61f8-3d22f9794647
f 28/73/19 26/74/19 25/75/19 27/76/19
f 31/77/20 29/78/20 30/79/20 32/80/20
f 25/81/21 26/82/21 30/83/21 29/84/21
f 28/85/22 27/86/22 31/87/22 32/88/22
f 27/89/23 25/90/23 29/91/23 31/92/23
f 32/93/24 30/94/24 26/95/24 28/96/24
o cube
v 0.3125 0.875 -0.125
v 0.3125 0.875 -0.375
v 0.3125 0.375 -0.125
v 0.3125 0.375 -0.375
v -0.3125 0.875 -0.125
v -0.3125 0.875 -0.375
v -0.3125 0.375 -0.125
v -0.3125 0.375 -0.375
vt 0.640625 0.4921875
vt 0.640625 0.5546875
vt 0.609375 0.5546875
vt 0.609375 0.4921875
vt 0.078125 0.3203125
vt 0.078125 0.3828125
vt 0.046875 0.3828125
vt 0.046875 0.3203125
vt 0.5546875 0.4296875
vt 0.5546875 0.3984375
vt 0.6328125 0.3984375
vt 0.6328125 0.4296875
vt 0 0.390625
vt 0 0.421875
vt 0.078125 0.421875
vt 0.078125 0.390625
vt 0.6484375 0.8515625
vt 0.6484375 0.9140625
vt 0.5703125 0.9140625
vt 0.5703125 0.8515625
vt 0.640625 0.7734375
vt 0.640625 0.8359375
vt 0.5625 0.8359375
vt 0.5625 0.7734375
vn 1 0 0
vn -1 0 0
vn 0 1 0
vn 0 -1 0
vn 0 0 1
vn 0 0 -1
usemtl m_715c42bd-7823-aba3-61f8-3d22f9794647
f 36/97/25 34/98/25 33/99/25 35/100/25
f 39/101/26 37/102/26 38/103/26 40/104/26
f 33/105/27 34/106/27 38/107/27 37/108/27
f 36/109/28 35/110/28 39/111/28 40/112/28
f 35/113/29 33/114/29 37/115/29 39/116/29
f 40/117/30 38/118/30 34/119/30 36/120/30
o cube
v 0.125 0.25 -0.125
v 0.125 0.25 -0.1875
v 0.125 0.1875 -0.125
v 0.125 0.1875 -0.1875
v -0.125 0.25 -0.125
v -0.125 0.25 -0.1875
v -0.125 0.1875 -0.125
v -0.125 0.1875 -0.1875
vt 0.46875 0.2734375
vt 0.46875 0.28125
vt 0.4609375 0.28125
vt 0.4609375 0.2734375
vt 0.640625 0.2734375
vt 0.640625 0.28125
vt 0.6328125 0.28125
vt 0.6328125 0.2734375
vt 0.7109375 0.875
vt 0.7109375 0.8671875
vt 0.7421875 0.8671875
vt 0.7421875 0.875
vt 0.7109375 0.8515625
vt 0.7109375 0.859375
vt 0.7421875 0.859375
vt 0.7421875 0.8515625
vt 0.078125 0.28125
vt 0.078125 0.2890625
vt 0.046875 0.2890625
vt 0.046875 0.28125
vt 0.734375 0.296875
vt 0.734375 0.3046875
vt 0.703125 0.3046875
vt 0.703125 0.296875
vn 1 0 0
vn -1 0 0
vn 0 1 0
vn 0 -1 0
vn 0 0 1
vn 0 0 -1
usemtl m_715c42bd-7823-aba3-61f8-3d22f9794647
f 44/121/31 42/122/31 41/123/31 43/124/31
f 47/125/32 45/126/32 46/127/32 48/128/32
f 41/129/33 42/130/33 46/131/33 45/132/33
f 44/133/34 43/134/34 47/135/34 48/136/34
f 43/137/35 41/138/35 45/139/35 47/140/35
f 48/141/36 46/142/36 42/143/36 44/144/36
o cube
v 0.75 0.8125 0.15625
v 0.75 0.8125 -0.15625
v 0.75 0.5 0.15625
v 0.75 0.5 -0.15625
v 0.4375 0.8125 0.15625
v 0.4375 0.8125 -0.15625
v 0.4375 0.5 0.15625
v 0.4375 0.5 -0.15625
vt 0.3515625 0.3359375
vt 0.3515625 0.375
vt 0.3125 0.375
vt 0.3125 0.3359375
vt 0.3984375 0.328125
vt 0.3984375 0.3671875
vt 0.359375 0.3671875
vt 0.359375 0.328125
vt 0.40625 0.3671875
vt 0.40625 0.328125
vt 0.4453125 0.328125
vt 0.4453125 0.3671875
vt 0.453125 0.328125
vt 0.453125 0.3671875
vt 0.4921875 0.3671875
vt 0.4921875 0.328125
vt 0.125 0.328125
vt 0.125 0.3671875
vt 0.0859375 0.3671875
vt 0.0859375 0.328125
vt 0.640625 0.4375
vt 0.640625 0.4765625
vt 0.6015625 0.4765625
vt 0.6015625 0.4375
vn 1 0 0
vn -1 0 0
vn 0 1 0
vn 0 -1 0
vn 0 0 1
vn 0 0 -1
usemtl m_715c42bd-7823-aba3-61f8-3d22f9794647
f 52/145/37 50/146/37 49/147/37 51/148/37
f 55/149/38 53/150/38 54/151/38 56/152/38
f 49/153/39 50/154/39 54/155/39 53/156/39
f 52/157/40 51/158/40 55/159/40 56/160/40
f 51/161/41 49/162/41 53/163/41 55/164/41
f 56/165/42 54/166/42 50/167/42 52/168/42
o cube
v -0.4375 0.8125 0.15625
v -0.4375 0.8125 -0.15625
v -0.4375 0.5 0.15625
v -0.4375 0.5 -0.15625
v -0.75 0.8125 0.15625
v -0.75 0.8125 -0.15625
v -0.75 0.5 0.15625
v -0.75 0.5 -0.15625
vt 0.2421875 0.3203125
vt 0.2421875 0.359375
vt 0.203125 0.359375
vt 0.203125 0.3203125
vt 0.6875 0.7578125
vt 0.6875 0.796875
vt 0.6484375 0.796875
vt 0.6484375 0.7578125
vt 0.6484375 0.75
vt 0.6484375 0.7109375
vt 0.6875 0.7109375
vt 0.6875 0.75
vt 0.6484375 0.6640625
vt 0.6484375 0.703125
vt 0.6875 0.703125
vt 0.6875 0.6640625
vt 0.6875 0.8046875
vt 0.6875 0.84375
vt 0.6484375 0.84375
vt 0.6484375 0.8046875
vt 0.671875 0.3515625
vt 0.671875 0.390625
vt 0.6328125 0.390625
vt 0.6328125 0.3515625
vn 1 0 0
vn -1 0 0
vn 0 1 0
vn 0 -1 0
vn 0 0 1
vn 0 0 -1
usemtl m_715c42bd-7823-aba3-61f8-3d22f9794647
f 60/169/43 58/170/43 57/171/43 59/172/43
f 63/173/44 61/174/44 62/175/44 64/176/44
f 57/177/45 58/178/45 62/179/45 61/180/45
f 60/181/46 59/182/46 63/183/46 64/184/46
f 59/185/47 57/186/47 61/187/47 63/188/47
f 64/189/48 62/190/48 58/191/48 60/192/48
o cube
v 0 0.625 1.75
v 0 0.625 1.125
v 0 0 1.75
v 0 0 1.125
v 0 0.625 1.75
v 0 0.625 1.125
v 0 0 1.75
v 0 0 1.125
vt 0.921875 0.921875
vt 0.921875 1
vt 0.84375 1
vt 0.84375 0.921875
vt 1 0.921875
vt 1 1
vt 0.921875 1
vt 0.921875 0.921875
vt 0.53125 0.203125
vt 0.53125 0.203125
vt 0.53125 0.28125
vt 0.53125 0.28125
vt 0.6484375 0.28125
vt 0.6484375 0.28125
vt 0.6484375 0.203125
vt 0.6484375 0.203125
vt 0.4765625 0.28125
vt 0.4765625 0.28125
vt 0.4765625 0.203125
vt 0.4765625 0.203125
vt 0.53125 0.3671875
vt 0.53125 0.3671875
vt 0.53125 0.2890625
vt 0.53125 0.2890625
vn 1 0 0
vn -1 0 0
vn 0 0 0
vn 0 0 0
vn 0 0 0
vn 0 0 0
usemtl m_715c42bd-7823-aba3-61f8-3d22f9794647
f 68/193/49 66/194/49 65/195/49 67/196/49
f 71/197/50 69/198/50 70/199/50 72/200/50
f 66/201/51 70/202/51 65/203/51 69/204/51
f 67/205/52 71/206/52 68/207/52 72/208/52
f 65/209/53 69/210/53 67/211/53 71/212/53
f 70/213/54 66/214/54 72/215/54 68/216/54
o cube
v -0.1875 1.75 0.5625
v -0.1875 1.75 0.3125
v -0.1875 1.5 0.5625
v -0.1875 1.5 0.3125
v -0.4375 1.75 0.5625
v -0.4375 1.75 0.3125
v -0.4375 1.5 0.5625
v -0.4375 1.5 0.3125
vt 0.6796875 0.4375
vt 0.6796875 0.46875
vt 0.6484375 0.46875
vt 0.6484375 0.4375
vt 0.1875 0.3125
vt 0.1875 0.34375
vt 0.15625 0.34375
vt 0.15625 0.3125
vt 0.65625 0.65625
vt 0.65625 0.625
vt 0.6875 0.625
vt 0.6875 0.65625
vt 0.65625 0.5859375
vt 0.65625 0.6171875
vt 0.6875 0.6171875
vt 0.6875 0.5859375
vt 0.6875 0.8828125
vt 0.6875 0.9140625
vt 0.65625 0.9140625
vt 0.65625 0.8828125
vt 0.6796875 0.4765625
vt 0.6796875 0.5078125
vt 0.6484375 0.5078125
vt 0.6484375 0.4765625
vn 1 0 0
vn -1 0 0
vn 0 1 0
vn 0 -1 0
vn 0 0 1
vn 0 0 -1
usemtl m_715c42bd-7823-aba3-61f8-3d22f9794647
f 76/217/55 74/218/55 73/219/55 75/220/55
f 79/221/56 77/222/56 78/223/56 80/224/56
f 73/225/57 74/226/57 78/227/57 77/228/57
f 76/229/58 75/230/58 79/231/58 80/232/58
f 75/233/59 73/234/59 77/235/59 79/236/59
f 80/237/60 78/238/60 74/239/60 76/240/60
o cube
v -0.25 1.6875 0.34375
v -0.25 1.6875 0.28125
v -0.25 1.5625 0.34375
v -0.25 1.5625 0.28125
v -0.375 1.6875 0.34375
v -0.375 1.6875 0.28125
v -0.375 1.5625 0.34375
v -0.375 1.5625 0.28125
vt 0.265625 0.71875
vt 0.265625 0.734375
vt 0.2578125 0.734375
vt 0.2578125 0.71875
vt 0.03125 0.65625
vt 0.03125 0.671875
vt 0.0234375 0.671875
vt 0.0234375 0.65625
vt 0.4609375 0.734375
vt 0.4609375 0.7265625
vt 0.4765625 0.7265625
vt 0.4765625 0.734375
vt 0.21875 0.2890625
vt 0.21875 0.296875
vt 0.234375 0.296875
vt 0.234375 0.2890625
vt 0.015625 0.65625
vt 0.015625 0.671875
vt 0 0.671875
vt 0 0.65625
vt 0.2734375 0.7421875
vt 0.2734375 0.7578125
vt 0.2578125 0.7578125
vt 0.2578125 0.7421875
vn 1 0 0
vn -1 0 0
vn 0 1 0
vn 0 -1 0
vn 0 0 1
vn 0 0 -1
usemtl m_715c42bd-7823-aba3-61f8-3d22f9794647
f 84/241/61 82/242/61 81/243/61 83/244/61
f 87/245/62 85/246/62 86/247/62 88/248/62
f 81/249/63 82/250/63 86/251/63 85/252/63
f 84/253/64 83/254/64 87/255/64 88/256/64
f 83/257/65 81/258/65 85/259/65 87/260/65
f 88/261/66 86/262/66 82/263/66 84/264/66
o cube
v -0.25 1.6875 0.59375
v -0.25 1.6875 0.53125
v -0.25 1.5625 0.59375
v -0.25 1.5625 0.53125
v -0.375 1.6875 0.59375
v -0.375 1.6875 0.53125
v -0.375 1.5625 0.59375
v -0.375 1.5625 0.53125
vt 0.0078125 0.609375
vt 0.0078125 0.625
vt 0 0.625
vt 0 0.609375
vt 0.234375 0.609375
vt 0.234375 0.625
vt 0.2265625 0.625
vt 0.2265625 0.609375
vt 0.3125 0.2890625
vt 0.3125 0.28125
vt 0.328125 0.28125
vt 0.328125 0.2890625
vt 0.7109375 0.5703125
vt 0.7109375 0.578125
vt 0.7265625 0.578125
vt 0.7265625 0.5703125
vt 0.2421875 0.65625
vt 0.2421875 0.671875
vt 0.2265625 0.671875
vt 0.2265625 0.65625
vt 0.21875 0.65625
vt 0.21875 0.671875
vt 0.203125 0.671875
vt 0.203125 0.65625
vn 1 0 0
vn -1 0 0
vn 0 1 0
vn 0 -1 0
vn 0 0 1
vn 0 0 -1
usemtl m_715c42bd-7823-aba3-61f8-3d22f9794647
f 92/265/67 90/266/67 89/267/67 91/268/67
f 95/269/68 93/270/68 94/271/68 96/272/68
f 89/273/69 90/274/69 94/275/69 93/276/69
f 92/277/70 91/278/70 95/279/70 96/280/70
f 91/281/71 89/282/71 93/283/71 95/284/71
f 96/285/72 94/286/72 90/287/72 92/288/72
o cube
v -0.15625 1.6875 0.5
v -0.15625 1.6875 0.375
v -0.15625 1.5625 0.5
v -0.15625 1.5625 0.375
v -0.21875 1.6875 0.5
v -0.21875 1.6875 0.375
v -0.21875 1.5625 0.5
v -0.21875 1.5625 0.375
vt 0.015625 0.6328125
vt 0.015625 0.6484375
vt 0 0.6484375
vt 0 0.6328125
vt 0.234375 0.6328125
vt 0.234375 0.6484375
vt 0.21875 0.6484375
vt 0.21875 0.6328125
vt 0.484375 0.3203125
vt 0.484375 0.3046875
vt 0.4921875 0.3046875
vt 0.4921875 0.3203125
vt 0.125 0.2890625
vt 0.125 0.3046875
vt 0.1328125 0.3046875
vt 0.1328125 0.2890625
vt 0.546875 0.40625
vt 0.546875 0.421875
vt 0.5390625 0.421875
vt 0.5390625 0.40625
vt 0.5078125 0.859375
vt 0.5078125 0.875
vt 0.5 0.875
vt 0.5 0.859375
vn 1 0 0
vn -1 0 0
vn 0 1 0
vn 0 -1 0
vn 0 0 1
vn 0 0 -1
usemtl m_715c42bd-7823-aba3-61f8-3d22f9794647
f 100/289/73 98/290/73 97/291/73 99/292/73
f 103/293/74 101/294/74 102/295/74 104/296/74
f 97/297/75 98/298/75 102/299/75 101/300/75
f 100/301/76 99/302/76 103/303/76 104/304/76
f 99/305/77 97/306/77 101/307/77 103/308/77
f 104/309/78 102/310/78 98/311/78 100/312/78
o cube
v -0.40625 1.6875 0.5
v -0.40625 1.6875 0.375
v -0.40625 1.5625 0.5
v -0.40625 1.5625 0.375
v -0.46875 1.6875 0.5
v -0.46875 1.6875 0.375
v -0.46875 1.5625 0.5
v -0.46875 1.5625 0.375
vt 0.46875 0.7421875
vt 0.46875 0.7578125
vt 0.453125 0.7578125
vt 0.453125 0.7421875
vt 0.53125 0.7734375
vt 0.53125 0.7890625
vt 0.515625 0.7890625
vt 0.515625 0.7734375
vt 0.3359375 0.2890625
vt 0.3359375 0.2734375
vt 0.34375 0.2734375
vt 0.34375 0.2890625
vt 0.7109375 0.328125
vt 0.7109375 0.34375
vt 0.71875 0.34375
vt 0.71875 0.328125
vt 0.09375 0.2734375
vt 0.09375 0.2890625
vt 0.0859375 0.2890625
vt 0.0859375 0.2734375
vt 0.4921875 0.28125
vt 0.4921875 0.296875
vt 0.484375 0.296875
vt 0.484375 0.28125
vn 1 0 0
vn -1 0 0
vn 0 1 0
vn 0 -1 0
vn 0 0 1
vn 0 0 -1
usemtl m_715c42bd-7823-aba3-61f8-3d22f9794647
f 108/313/79 106/314/79 105/315/79 107/316/79
f 111/317/80 109/318/80 110/319/80 112/320/80
f 105/321/81 106/322/81 110/323/81 109/324/81
f 108/325/82 107/326/82 111/327/82 112/328/82
f 107/329/83 105/330/83 109/331/83 111/332/83
f 112/333/84 110/334/84 106/335/84 108/336/84
o cube
v -0.140625 1.5 0.609375
v -0.140625 1.5 0.265625
v -0.140625 1.4375 0.609375
v -0.140625 1.4375 0.265625
v -0.484375 1.5 0.609375
v -0.484375 1.5 0.265625
v -0.484375 1.4375 0.609375
v -0.484375 1.4375 0.265625
vt 0.703125 0.8671875
vt 0.703125 0.875
vt 0.65625 0.875
vt 0.65625 0.8671875
vt 0.703125 0.5703125
vt 0.703125 0.578125
vt 0.65625 0.578125
vt 0.65625 0.5703125
vt 0.0859375 0.421875
vt 0.0859375 0.375
vt 0.1328125 0.375
vt 0.1328125 0.421875
vt 0.375 0.375
vt 0.375 0.421875
vt 0.421875 0.421875
vt 0.421875 0.375
vt 0.703125 0.8515625
vt 0.703125 0.859375
vt 0.65625 0.859375
vt 0.65625 0.8515625
vt 0.6875 0.3984375
vt 0.6875 0.40625
vt 0.640625 0.40625
vt 0.640625 0.3984375
vn 1 0 0
vn -1 0 0
vn 0 1 0
vn 0 -1 0
vn 0 0 1
vn 0 0 -1
usemtl m_715c42bd-7823-aba3-61f8-3d22f9794647
f 116/337/85 114/338/85 113/339/85 115/340/85
f 119/341/86 117/342/86 118/343/86 120/344/86
f 113/345/87 114/346/87 118/347/87 117/348/87
f 116/349/88 115/350/88 119/351/88 120/352/88
f 115/353/89 113/354/89 117/355/89 119/356/89
f 120/357/90 118/358/90 114/359/90 116/360/90
o cube
v -0.140625 1.8125 0.609375
v -0.140625 1.8125 0.265625
v -0.140625 1.75 0.609375
v -0.140625 1.75 0.265625
v -0.484375 1.8125 0.609375
v -0.484375 1.8125 0.265625
v -0.484375 1.75 0.609375
v -0.484375 1.75 0.265625
vt 0.3984375 0.3125
vt 0.3984375 0.3203125
vt 0.3515625 0.3203125
vt 0.3515625 0.3125
vt 0.7265625 0.3828125
vt 0.7265625 0.390625
vt 0.6796875 0.390625
vt 0.6796875 0.3828125
vt 0.4296875 0.421875
vt 0.4296875 0.375
vt 0.4765625 0.375
vt 0.4765625 0.421875
vt 0.484375 0.375
vt 0.484375 0.421875
vt 0.53125 0.421875
vt 0.53125 0.375
vt 0.453125 0.3125
vt 0.453125 0.3203125
vt 0.40625 0.3203125
vt 0.40625 0.3125
vt 0.1328125 0.3125
vt 0.1328125 0.3203125
vt 0.0859375 0.3203125
vt 0.0859375 0.3125
vn 1 0 0
vn -1 0 0
vn 0 1 0
vn 0 -1 0
vn 0 0 1
vn 0 0 -1
usemtl m_715c42bd-7823-aba3-61f8-3d22f9794647
f 124/361/91 122/362/91 121/363/91 123/364/91
f 127/365/92 125/366/92 126/367/92 128/368/92
f 121/369/93 122/370/93 126/371/93 125/372/93
f 124/373/94 123/374/94 127/375/94 128/376/94
f 123/377/95 121/378/95 125/379/95 127/380/95
f 128/381/96 126/382/96 122/383/96 124/384/96
o cube
v 0 3.0625 0.5
v 0 3.0625 0.375
v 0 2.9375 0.5
v 0 2.9375 0.375
v -0.125 3.0625 0.5
v -0.125 3.0625 0.375
v -0.125 2.9375 0.5
v -0.125 2.9375 0.375
vt 0.5546875 0.7734375
vt 0.5546875 0.7890625
vt 0.5390625 0.7890625
vt 0.5390625 0.7734375
vt 0.4765625 0.3046875
vt 0.4765625 0.3203125
vt 0.4609375 0.3203125
vt 0.4609375 0.3046875
vt 0.1015625 0.3046875
vt 0.1015625 0.2890625
vt 0.1171875 0.2890625
vt 0.1171875 0.3046875
vt 0.15625 0.2890625
vt 0.15625 0.3046875
vt 0.171875 0.3046875
vt 0.171875 0.2890625
vt 0.2265625 0.4296875
vt 0.2265625 0.4453125
vt 0.2109375 0.4453125
vt 0.2109375 0.4296875
vt 0.2265625 0.453125
vt 0.2265625 0.46875
vt 0.2109375 0.46875
vt 0.2109375 0.453125
vn 1 0 0
vn -1 0 0
vn 0 1 0
vn 0 -1 0
vn 0 0 1
vn 0 0 -1
usemtl m_715c42bd-7823-aba3-61f8-3d22f9794647
f 132/385/97 130/386/97 129/387/97 131/388/97
f 135/389/98 133/390/98 134/391/98 136/392/98
f 129/393/99 130/394/99 134/395/99 133/396/99
f 132/397/100 131/398/100 135/399/100 136/400/100
f 131/401/101 129/402/101 133/403/101 135/404/101
f 136/405/102 134/406/102 130/407/102 132/408/102
o cube
v -0.25 3.0625 0.75
v -0.25 3.0625 0.625
v -0.25 2.9375 0.75
v -0.25 2.9375 0.625
v -0.375 3.0625 0.75
v -0.375 3.0625 0.625
v -0.375 2.9375 0.75
v -0.375 2.9375 0.625
vt 0.7109375 0.7421875
vt 0.7109375 0.7578125
vt 0.6953125 0.7578125
vt 0.6953125 0.7421875
vt 0.7109375 0.6953125
vt 0.7109375 0.7109375
vt 0.6953125 0.7109375
vt 0.6953125 0.6953125
vt 0.6953125 0.6875
vt 0.6953125 0.671875
vt 0.7109375 0.671875
vt 0.7109375 0.6875
vt 0.6953125 0.6484375
vt 0.6953125 0.6640625
vt 0.7109375 0.6640625
vt 0.7109375 0.6484375
vt 0.7109375 0.71875
vt 0.7109375 0.734375
vt 0.6953125 0.734375
vt 0.6953125 0.71875
vt 0.7109375 0.765625
vt 0.7109375 0.78125
vt 0.6953125 0.78125
vt 0.6953125 0.765625
vn 1 0 0
vn -1 0 0
vn 0 1 0
vn 0 -1 0
vn 0 0 1
vn 0 0 -1
usemtl m_715c42bd-7823-aba3-61f8-3d22f9794647
f 140/409/103 138/410/103 137/411/103 139/412/103
f 143/413/104 141/414/104 142/415/104 144/416/104
f 137/417/105 138/418/105 142/419/105 141/420/105
f 140/421/106 139/422/106 143/423/106 144/424/106
f 139/425/107 137/426/107 141/427/107 143/428/107
f 144/429/108 142/430/108 138/431/108 140/432/108
o cube
v -0.5 3.0625 0.5
v -0.5 3.0625 0.375
v -0.5 2.9375 0.5
v -0.5 2.9375 0.375
v -0.625 3.0625 0.5
v -0.625 3.0625 0.375
v -0.625 2.9375 0.5
v -0.625 2.9375 0.375
vt 0.7109375 0.625
vt 0.7109375 0.640625
vt 0.6953125 0.640625
vt 0.6953125 0.625
vt 0.7109375 0.6015625
vt 0.7109375 0.6171875
vt 0.6953125 0.6171875
vt 0.6953125 0.6015625
vt 0.3984375 0.3046875
vt 0.3984375 0.2890625
vt 0.4140625 0.2890625
vt 0.4140625 0.3046875
vt 0.421875 0.2890625
vt 0.421875 0.3046875
vt 0.4375 0.3046875
vt 0.4375 0.2890625
vt 0.390625 0.2890625
vt 0.390625 0.3046875
vt 0.375 0.3046875
vt 0.375 0.2890625
vt 0.3671875 0.2890625
vt 0.3671875 0.3046875
vt 0.3515625 0.3046875
vt 0.3515625 0.2890625
vn 1 0 0
vn -1 0 0
vn 0 1 0
vn 0 -1 0
vn 0 0 1
vn 0 0 -1
usemtl m_715c42bd-7823-aba3-61f8-3d22f9794647
f 148/433/109 146/434/109 145/435/109 147/436/109
f 151/437/110 149/438/110 150/439/110 152/440/110
f 145/441/111 146/442/111 150/443/111 149/444/111
f 148/445/112 147/446/112 151/447/112 152/448/112
f 147/449/113 145/450/113 149/451/113 151/452/113
f 152/453/114 150/454/114 146/455/114 148/456/114
o cube
v -0.25 3.0625 0.25
v -0.25 3.0625 0.125
v -0.25 2.9375 0.25
v -0.25 2.9375 0.125
v -0.375 3.0625 0.25
v -0.375 3.0625 0.125
v -0.375 2.9375 0.25
v -0.375 2.9375 0.125
vt 0.671875 0.2890625
vt 0.671875 0.3046875
vt 0.65625 0.3046875
vt 0.65625 0.2890625
vt 0.71875 0.984375
vt 0.71875 1
vt 0.703125 1
vt 0.703125 0.984375
vt 0.703125 0.9765625
vt 0.703125 0.9609375
vt 0.71875 0.9609375
vt 0.71875 0.9765625
vt 0.703125 0.9375
vt 0.703125 0.953125
vt 0.71875 0.953125
vt 0.71875 0.9375
vt 0.6953125 0.2890625
vt 0.6953125 0.3046875
vt 0.6796875 0.3046875
vt 0.6796875 0.2890625
vt 0.6484375 0.2890625
vt 0.6484375 0.3046875
vt 0.6328125 0.3046875
vt 0.6328125 0.2890625
vn 1 0 0
vn -1 0 0
vn 0 1 0
vn 0 -1 0
vn 0 0 1
vn 0 0 -1
usemtl m_715c42bd-7823-aba3-61f8-3d22f9794647
f 156/457/115 154/458/115 153/459/115 155/460/115
f 159/461/116 157/462/116 158/463/116 160/464/116
f 153/465/117 154/466/117 158/467/117 157/468/117
f 156/469/118 155/470/118 159/471/118 160/472/118
f 155/473/119 153/474/119 157/475/119 159/476/119
f 160/477/120 158/478/120 154/479/120 156/480/120
o mesh
v -0.125 2.6875 0.625
v -0.125 2.6875 0.25
v -0.1875 1.8125 0.5625
v -0.1875 1.8125 0.3125
v -0.5 2.6875 0.625
v -0.5 2.6875 0.25
v -0.4375 1.8125 0.5625
v -0.4375 1.8125 0.3125
vt 0.59766609375 0.555937421875
vt 0.550791171875 0.555937421875
vt 0.558603671875 0.44628429687500004
vt 0.589853671875 0.44628429687500004
vt 0.363291171875 0.39159679687500004
vt 0.371103515625 0.501250703125
vt 0.32422859375 0.501250703125
vt 0.33204125 0.39159679687500004
vt 0.2109375 0.3671875
vt 0.2578125 0.3671875
vt 0.2578125 0.4140625
vt 0.2109375 0.4140625
vt 0.6640625 0.3125
vt 0.6640625 0.34375
vt 0.6328125 0.34375
vt 0.6328125 0.3125
vt 0.550791171875 0.805659296875
vt 0.558603515625 0.915313203125
vt 0.51172859375 0.915313203125
vt 0.51954125 0.805659296875
vt 0.199228515625 0.470000703125
vt 0.15235359375 0.470000703125
vt 0.160166171875 0.36034679687500004
vt 0.191416171875 0.36034679687500004
vn 0.997458699830735 -0.07124704998790965 0
vn -0.997458699830735 -0.07124704998790965 0
vn 0 1 0
vn 0 -1 0
vn 0 -0.07124704998790965 0.997458699830735
vn 0 -0.07124704998790965 -0.997458699830735
usemtl m_715c42bd-7823-aba3-61f8-3d22f9794647
f 162/481/121 161/482/121 163/483/121 164/484/121
f 167/485/122 165/486/122 166/487/122 168/488/122
f 165/489/123 161/490/123 162/491/123 166/492/123
f 164/493/124 163/494/124 167/495/124 168/496/124
f 163/497/125 161/498/125 165/499/125 167/500/125
f 166/501/126 162/502/126 164/503/126 168/504/126
o mesh
v -0.5 2.9375 0.37499999999999994
v -0.5625 2.9375 0.37499999999999994
v -0.395833125 1.8125 0.395833125
v -0.479166875 1.8125 0.39583312499999995
v -0.5 2.9375 0.49999999999999994
v -0.5625 2.9375 0.49999999999999994
v -0.395833125 1.8125 0.479166875
v -0.479166875 1.8125 0.479166875
vt 0.637391640625 0.65884359375
vt 0.636671484375 0.6666228125
vt 0.495420859375 0.6666228125
vt 0.49638109375 0.65625
vt 0.1484375 0.2734375
vt 0.1484375 0.414688203125
vt 0.14321859375 0.415408359375
vt 0.140625 0.27439781249999995
vt 0.7109375 0.3125
vt 0.7265625 0.3125
vt 0.7265625 0.3203125
vt 0.7109375 0.3203125
vt 0.4765625 0.7109375
vt 0.4765625 0.71875
vt 0.46875 0.71875
vt 0.46875 0.7109375
vt 0.30208359375 0.2734375
vt 0.3046875 0.4140625
vt 0.2890625 0.4140625
vt 0.29166640625 0.2734375
vt 0.28125 0.4140625
vt 0.265625 0.4140625
vt 0.26822890625 0.2734375
vt 0.27864609375 0.2734375
vn 2.220065419839448e-16 -0.018515158916053865 -0.9998285797527062
vn -2.220065419839448e-16 -0.01851515891605386 0.9998285797527062
vn 0 1 0
vn 0 -1 0
vn 0.9957406571273267 0.09219839338968898 2.2109884081962832e-16
vn -0.9972677680619823 -0.07387150184389349 -2.214379275637906e-16
usemtl m_715c42bd-7823-aba3-61f8-3d22f9794647
f 170/505/127 169/506/127 171/507/127 172/508/127
f 175/509/128 173/510/128 174/511/128 176/512/128
f 173/513/129 169/514/129 170/515/129 174/516/129
f 172/517/130 171/518/130 175/519/130 176/520/130
f 171/521/131 169/522/131 173/523/131 175/524/131
f 174/525/132 170/526/132 172/527/132 176/528/132
o mesh
v -0.125 2.9375 0.49999999999999994
v -0.0625 2.9375 0.49999999999999994
v -0.229166875 1.8125 0.479166875
v -0.145833125 1.8125 0.479166875
v -0.125 2.9375 0.37499999999999994
v -0.0625 2.9375 0.37499999999999994
v -0.22916687500000002 1.8125 0.395833125
v -0.145833125 1.8125 0.39583312499999995
vt 0.785829140625 0.41665609375
vt 0.785108984375 0.4244353125
vt 0.643858359375 0.4244353125
vt 0.64481859375 0.4140625
vt 0.5078125 0.21875
vt 0.5078125 0.360000703125
vt 0.50259359375 0.360720859375
vt 0.5 0.21971031249999995
vt 0.703125 0.28125
vt 0.71875 0.28125
vt 0.71875 0.2890625
vt 0.703125 0.2890625
vt 0.1328125 0.2734375
vt 0.1328125 0.28125
vt 0.125 0.28125
vt 0.125 0.2734375
vt 0.57552109375 0.25
vt 0.578125 0.390625
vt 0.5625 0.390625
vt 0.56510390625 0.25
vt 0.5546875 0.390625
vt 0.5390625 0.390625
vt 0.54166640625 0.25
vt 0.55208359375 0.25
vn 2.220065419839448e-16 -0.018515158916053865 0.9998285797527062
vn -2.220065419839448e-16 -0.01851515891605386 -0.9998285797527062
vn 0 1 0
vn 0 -1 0
vn -0.9957406571273267 0.09219839338968898 2.2109884081962832e-16
vn 0.9972677680619823 -0.07387150184389349 -2.214379275637906e-16
usemtl m_715c42bd-7823-aba3-61f8-3d22f9794647
f 178/529/133 177/530/133 179/531/133 180/532/133
f 183/533/134 181/534/134 182/535/134 184/536/134
f 181/537/135 177/538/135 178/539/135 182/540/135
f 180/541/136 179/542/136 183/543/136 184/544/136
f 179/545/137 177/546/137 181/547/137 183/548/137
f 182/549/138 178/550/138 180/551/138 184/552/138
o mesh
v -0.375 2.9375 0.625
v -0.375 2.9375 0.6875
v -0.354166875 1.8125 0.520833125
v -0.354166875 1.8125 0.604166875
v -0.24999999999999997 2.9375 0.625
v -0.24999999999999997 2.9375 0.6875
v -0.270833125 1.8125 0.520833125
v -0.270833125 1.8125 0.604166875
vt 0.793641640625 0.54165609375
vt 0.792921484375 0.5494353125
vt 0.651670859375 0.5494353125
vt 0.65263109375 0.5390625
vt 0.5234375 0.21875
vt 0.5234375 0.360000703125
vt 0.51821859375 0.360720859375
vt 0.515625 0.21971031249999995
vt 0.1015625 0.2734375
vt 0.1171875 0.2734375
vt 0.1171875 0.28125
vt 0.1015625 0.28125
vt 0.7265625 0.6953125
vt 0.7265625 0.703125
vt 0.71875 0.703125
vt 0.71875 0.6953125
vt 0.62239609375 0.25
vt 0.625 0.390625
vt 0.609375 0.390625
vt 0.61197890625 0.25
vt 0.6015625 0.390625
vt 0.5859375 0.390625
vt 0.58854140625 0.25
vt 0.59895859375 0.25
vn -0.9998285797527062 -0.018515158916053865 1.224436869890196e-16
vn 0.9998285797527062 -0.01851515891605386 -1.224436869890196e-16
vn 0 1 0
vn 0 -1 0
vn -1.2194306085318628e-16 0.09219839338968898 -0.9957406571273267
vn 1.2213007800499316e-16 -0.07387150184389349 0.9972677680619823
usemtl m_715c42bd-7823-aba3-61f8-3d22f9794647
f 186/553/139 185/554/139 187/555/139 188/556/139
f 191/557/140 189/558/140 190/559/140 192/560/140
f 189/561/141 185/562/141 186/563/141 190/564/141
f 188/565/142 187/566/142 191/567/142 192/568/142
f 187/569/143 185/570/143 189/571/143 191/572/143
f 190/573/144 186/574/144 188/575/144 192/576/144
o mesh
v -0.25 2.9375 0.25
v -0.25 2.9375 0.1875
v -0.270833125 1.8125 0.354166875
v -0.270833125 1.8125 0.270833125
v -0.375 2.9375 0.25
v -0.375 2.9375 0.1875
v -0.354166875 1.8125 0.354166875
v -0.354166875 1.8125 0.270833125
vt 0.793641640625 0.51821859375
vt 0.792921484375 0.5259978125
vt 0.651670859375 0.5259978125
vt 0.65263109375 0.515625
vt 0.2578125 0.2109375
vt 0.2578125 0.352188203125
vt 0.25259359375 0.352908359375
vt 0.25 0.21189781249999995
vt 0.15625 0.2734375
vt 0.171875 0.2734375
vt 0.171875 0.28125
vt 0.15625 0.28125
vt 0.7265625 0.6796875
vt 0.7265625 0.6875
vt 0.71875 0.6875
vt 0.71875 0.6796875
vt 0.03645859375 0.2421875
vt 0.0390625 0.3828125
vt 0.0234375 0.3828125
vt 0.02604140625 0.2421875
vt 0.015625 0.3828125
vt 0 0.3828125
vt 0.00260390625 0.2421875
vt 0.01302109375 0.2421875
vn 0.9998285797527062 -0.018515158916053865 0
vn -0.9998285797527062 -0.01851515891605386 0
vn 0 1 0
vn 0 -1 0
vn 0 0.09219839338968898 0.9957406571273267
vn 0 -0.07387150184389349 -0.9972677680619823
usemtl m_715c42bd-7823-aba3-61f8-3d22f9794647
f 194/577/145 193/578/145 195/579/145 196/580/145
f 199/581/146 197/582/146 198/583/146 200/584/146
f 197/585/147 193/586/147 194/587/147 198/588/147
f 196/589/148 195/590/148 199/591/148 200/592/148
f 195/593/149 193/594/149 197/595/149 199/596/149
f 198/597/150 194/598/150 196/599/150 200/600/150
o cube
v -0.375 1.0625 -0.09375
v -0.375 1.0625 -0.15625
v -0.375 1 -0.09375
v -0.375 1 -0.15625
v -0.75 1.0625 -0.09375
v -0.75 1.0625 -0.15625
v -0.75 1 -0.09375
v -0.75 1 -0.15625
vt 0.390625 0.2734375
vt 0.390625 0.28125
vt 0.3828125 0.28125
vt 0.3828125 0.2734375
vt 0.7265625 0.6015625
vt 0.7265625 0.609375
vt 0.71875 0.609375
vt 0.71875 0.6015625
vt 0.6953125 0.90625
vt 0.6953125 0.8984375
vt 0.7421875 0.8984375
vt 0.7421875 0.90625
vt 0.6953125 0.8828125
vt 0.6953125 0.890625
vt 0.7421875 0.890625
vt 0.7421875 0.8828125
vt 0.7421875 0.9140625
vt 0.7421875 0.921875
vt 0.6953125 0.921875
vt 0.6953125 0.9140625
vt 0.09375 0.296875
vt 0.09375 0.3046875
vt 0.046875 0.3046875
vt 0.046875 0.296875
vn 1 0 0
vn -1 0 0
vn 0 1 0
vn 0 -1 0
vn 0 0 1
vn 0 0 -1
usemtl m_715c42bd-7823-aba3-61f8-3d22f9794647
f 204/601/151 202/602/151 201/603/151 203/604/151
f 207/605/152 205/606/152 206/607/152 208/608/152
f 201/609/153 202/610/153 206/611/153 205/612/153
f 204/613/154 203/614/154 207/615/154 208/616/154
f 203/617/155 201/618/155 205/619/155 207/620/155
f 208/621/156 206/622/156 202/623/156 204/624/156
o cube
v -0.4375 1 -0.09375
v -0.4375 1 -0.15625
v -0.4375 0.9375 -0.09375
v -0.4375 0.9375 -0.15625
v -0.8125 1 -0.09375
v -0.8125 1 -0.15625
v -0.8125 0.9375 -0.09375
v -0.8125 0.9375 -0.15625
vt 0.40625 0.2734375
vt 0.40625 0.28125
vt 0.3984375 0.28125
vt 0.3984375 0.2734375
vt 0.421875 0.2734375
vt 0.421875 0.28125
vt 0.4140625 0.28125
vt 0.4140625 0.2734375
vt 0.6953125 0.8125
vt 0.6953125 0.8046875
vt 0.7421875 0.8046875
vt 0.7421875 0.8125
vt 0.6953125 0.7890625
vt 0.6953125 0.796875
vt 0.7421875 0.796875
vt 0.7421875 0.7890625
vt 0.7421875 0.8203125
vt 0.7421875 0.828125
vt 0.6953125 0.828125
vt 0.6953125 0.8203125
vt 0.7421875 0.8359375
vt 0.7421875 0.84375
vt 0.6953125 0.84375
vt 0.6953125 0.8359375
vn 1 0 0
vn -1 0 0
vn 0 1 0
vn 0 -1 0
vn 0 0 1
vn 0 0 -1
usemtl m_715c42bd-7823-aba3-61f8-3d22f9794647
f 212/625/157 210/626/157 209/627/157 211/628/157
f 215/629/158 213/630/158 214/631/158 216/632/158
f 209/633/159 210/634/159 214/635/159 213/636/159
f 212/637/160 211/638/160 215/639/160 216/640/160
f 211/641/161 209/642/161 213/643/161 215/644/161
f 216/645/162 214/646/162 210/647/162 212/648/162
o cube
v -0.6875 0.9375 -0.09375
v -0.6875 0.9375 -0.15625
v -0.6875 0.875 -0.09375
v -0.6875 0.875 -0.15625
v -0.8125 0.9375 -0.09375
v -0.8125 0.9375 -0.15625
v -0.8125 0.875 -0.09375
v -0.8125 0.875 -0.15625
vt 0.4375 0.2734375
vt 0.4375 0.28125
vt 0.4296875 0.28125
vt 0.4296875 0.2734375
vt 0.453125 0.2734375
vt 0.453125 0.28125
vt 0.4453125 0.28125
vt 0.4453125 0.2734375
vt 0.71875 0.734375
vt 0.71875 0.7265625
vt 0.734375 0.7265625
vt 0.734375 0.734375
vt 0.71875 0.7109375
vt 0.71875 0.71875
vt 0.734375 0.71875
vt 0.734375 0.7109375
vt 0.734375 0.7421875
vt 0.734375 0.75
vt 0.71875 0.75
vt 0.71875 0.7421875
vt 0.734375 0.7578125
vt 0.734375 0.765625
vt 0.71875 0.765625
vt 0.71875 0.7578125
vn 1 0 0
vn -1 0 0
vn 0 1 0
vn 0 -1 0
vn 0 0 1
vn 0 0 -1
usemtl m_715c42bd-7823-aba3-61f8-3d22f9794647
f 220/649/163 218/650/163 217/651/163 219/652/163
f 223/653/164 221/654/164 222/655/164 224/656/164
f 217/657/165 218/658/165 222/659/165 221/660/165
f 220/661/166 219/662/166 223/663/166 224/664/166
f 219/665/167 217/666/167 221/667/167 223/668/167
f 224/669/168 222/670/168 218/671/168 220/672/168
o cube
v 0.75 1.0625 -0.09375
v 0.75 1.0625 -0.15625
v 0.75 1 -0.09375
v 0.75 1 -0.15625
v 0.375 1.0625 -0.09375
v 0.375 1.0625 -0.15625
v 0.375 1 -0.09375
v 0.375 1 -0.15625
vt 0.7265625 0.6640625
vt 0.7265625 0.671875
vt 0.71875 0.671875
vt 0.71875 0.6640625
vt 0.7265625 0.6484375
vt 0.7265625 0.65625
vt 0.71875 0.65625
vt 0.71875 0.6484375
vt 0.1953125 0.3125
vt 0.1953125 0.3046875
vt 0.2421875 0.3046875
vt 0.2421875 0.3125
vt 0.6875 0.5
vt 0.6875 0.5078125
vt 0.734375 0.5078125
vt 0.734375 0.5
vt 0.7265625 0.3515625
vt 0.7265625 0.359375
vt 0.6796875 0.359375
vt 0.6796875 0.3515625
vt 0.7265625 0.3671875
vt 0.7265625 0.375
vt 0.6796875 0.375
vt 0.6796875 0.3671875
vn 1 0 0
vn -1 0 0
vn 0 1 0
vn 0 -1 0
vn 0 0 1
vn 0 0 -1
usemtl m_715c42bd-7823-aba3-61f8-3d22f9794647
f 228/673/169 226/674/169 225/675/169 227/676/169
f 231/677/170 229/678/170 230/679/170 232/680/170
f 225/681/171 226/682/171 230/683/171 229/684/171
f 228/685/172 227/686/172 231/687/172 232/688/172
f 227/689/173 225/690/173 229/691/173 231/692/173
f 232/693/174 230/694/174 226/695/174 228/696/174
o cube
v 0.8125 1 -0.09375
v 0.8125 1 -0.15625
v 0.8125 0.9375 -0.09375
v 0.8125 0.9375 -0.15625
v 0.4375 1 -0.09375
v 0.4375 1 -0.15625
v 0.4375 0.9375 -0.09375
v 0.4375 0.9375 -0.15625
vt 0.359375 0.2734375
vt 0.359375 0.28125
vt 0.3515625 0.28125
vt 0.3515625 0.2734375
vt 0.7265625 0.6328125
vt 0.7265625 0.640625
vt 0.71875 0.640625
vt 0.71875 0.6328125
vt 0.6875 0.4609375
vt 0.6875 0.453125
vt 0.734375 0.453125
vt 0.734375 0.4609375
vt 0.6875 0.4375
vt 0.6875 0.4453125
vt 0.734375 0.4453125
vt 0.734375 0.4375
vt 0.734375 0.46875
vt 0.734375 0.4765625
vt 0.6875 0.4765625
vt 0.6875 0.46875
vt 0.734375 0.484375
vt 0.734375 0.4921875
vt 0.6875 0.4921875
vt 0.6875 0.484375
vn 1 0 0
vn -1 0 0
vn 0 1 0
vn 0 -1 0
vn 0 0 1
vn 0 0 -1
usemtl m_715c42bd-7823-aba3-61f8-3d22f9794647
f 236/697/175 234/698/175 233/699/175 235/700/175
f 239/701/176 237/702/176 238/703/176 240/704/176
f 233/705/177 234/706/177 238/707/177 237/708/177
f 236/709/178 235/710/178 239/711/178 240/712/178
f 235/713/179 233/714/179 237/715/179 239/716/179
f 240/717/180 238/718/180 234/719/180 236/720/180
o cube
v 0.8125 0.9375 -0.09375
v 0.8125 0.9375 -0.15625
v 0.8125 0.875 -0.09375
v 0.8125 0.875 -0.15625
v 0.6875 0.9375 -0.09375
v 0.6875 0.9375 -0.15625
v 0.6875 0.875 -0.09375
v 0.6875 0.875 -0.15625
vt 0.375 0.2734375
vt 0.375 0.28125
vt 0.3671875 0.28125
vt 0.3671875 0.2734375
vt 0.7265625 0.6171875
vt 0.7265625 0.625
vt 0.71875 0.625
vt 0.71875 0.6171875
vt 0.71875 0.78125
vt 0.71875 0.7734375
vt 0.734375 0.7734375
vt 0.734375 0.78125
vt 0.2265625 0.2734375
vt 0.2265625 0.28125
vt 0.2421875 0.28125
vt 0.2421875 0.2734375
vt 0.21875 0.2734375
vt 0.21875 0.28125
vt 0.203125 0.28125
vt 0.203125 0.2734375
vt 0.1953125 0.2734375
vt 0.1953125 0.28125
vt 0.1796875 0.28125
vt 0.1796875 0.2734375
vn 1 0 0
vn -1 0 0
vn 0 1 0
vn 0 -1 0
vn 0 0 1
vn 0 0 -1
usemtl m_715c42bd-7823-aba3-61f8-3d22f9794647
f 244/721/181 242/722/181 241/723/181 243/724/181
f 247/725/182 245/726/182 246/727/182 248/728/182
f 241/729/183 242/730/183 246/731/183 245/732/183
f 244/733/184 243/734/184 247/735/184 248/736/184
f 243/737/185 241/738/185 245/739/185 247/740/185
f 248/741/186 246/742/186 242/743/186 244/744/186