# Made in Blockbench 5.1.6
mtllib bomb_bird_orange.mtl

o cube
v 0.8125 0.5 -0.6875
v 0.8125 0.875 -0.6875
v 0.8125 0.875 -0.3125
v 0.8125 0.5 -0.3125
v 0.1875 0.5 -0.3125
v 0.1875 0.875 -0.3125
v 0.1875 0.875 -0.6875
v 0.1875 0.5 -0.6875
v 0.6875 0.25 -0.5
v 0.6875 0.5 -0.5
v 0.6875 0.5 -0.25
v 0.6875 0.25 -0.25
v 0.3125 0.25 -0.25
v 0.3125 0.5 -0.25
v 0.3125 0.5 -0.5
v 0.3125 0.25 -0.5
v 0.4353703641430668 1.2306988096810925 -0.40625
v 0.4677227447808818 1.351439537967226 -0.40625
v 0.4677227447808818 1.351439537967226 -0.34375
v 0.4353703641430668 1.2306988096810925 -0.34375
v -0.22870364143066768 1.4086369031890755 -0.34375
v -0.1963512607928526 1.529377631475209 -0.34375
v -0.1963512607928526 1.529377631475209 -0.40625
v -0.22870364143066768 1.4086369031890755 -0.40625
v 1.2287036414306676 1.4086369031890755 -0.40625
v 1.1963512607928526 1.529377631475209 -0.40625
v 1.1963512607928526 1.529377631475209 -0.34375
v 1.2287036414306676 1.4086369031890755 -0.34375
v 0.5646296358569333 1.2306988096810925 -0.34375
v 0.5322772552191182 1.351439537967226 -0.34375
v 0.5322772552191182 1.351439537967226 -0.40625
v 0.5646296358569333 1.2306988096810925 -0.40625
v 1.34375 0 -0.34375
v 1.34375 1.6875 -0.34375
v 1.34375 1.6875 1.34375
v 1.34375 0 1.34375
v -0.34375 0 1.34375
v -0.34375 1.6875 1.34375
v -0.34375 1.6875 -0.34375
v -0.34375 0 -0.34375
vt 0.609375 0.484375
vt 0.609375 0.53125
vt 0.5625 0.53125
vt 0.5625 0.484375
vt 0.734375 0.484375
vt 0.734375 0.53125
vt 0.6875 0.53125
vt 0.6875 0.484375
vt 0.609375 0.578125
vt 0.609375 0.53125
vt 0.6875 0.53125
vt 0.6875 0.578125
vt 0.6875 0.53125
vt 0.6875 0.578125
vt 0.765625 0.578125
vt 0.765625 0.53125
vt 0.8125 0.484375
vt 0.8125 0.53125
vt 0.734375 0.53125
vt 0.734375 0.484375
vt 0.6875 0.484375
vt 0.6875 0.53125
vt 0.609375 0.53125
vt 0.609375 0.484375
vt 0.59375 0.390625
vt 0.59375 0.421875
vt 0.5625 0.421875
vt 0.5625 0.390625
vt 0.671875 0.390625
vt 0.671875 0.421875
vt 0.640625 0.421875
vt 0.640625 0.390625
vt 0.59375 0.453125
vt 0.59375 0.421875
vt 0.640625 0.421875
vt 0.640625 0.453125
vt 0.640625 0.421875
vt 0.640625 0.453125
vt 0.6875 0.453125
vt 0.6875 0.421875
vt 0.71875 0.390625
vt 0.71875 0.421875
vt 0.671875 0.421875
vt 0.671875 0.390625
vt 0.640625 0.390625
vt 0.640625 0.421875
vt 0.59375 0.421875
vt 0.59375 0.390625
vt 0.5703125 0.359375
vt 0.5703125 0.375
vt 0.5625 0.375
vt 0.5625 0.359375
vt 0.6640625 0.359375
vt 0.6640625 0.375
vt 0.65625 0.375
vt 0.65625 0.359375
vt 0.5703125 0.3828125
vt 0.5703125 0.375
vt 0.65625 0.375
vt 0.65625 0.3828125
vt 0.65625 0.375
vt 0.65625 0.3828125
vt 0.7421875 0.3828125
vt 0.7421875 0.375
vt 0.75 0.359375
vt 0.75 0.375
vt 0.6640625 0.375
vt 0.6640625 0.359375
vt 0.65625 0.359375
vt 0.65625 0.375
vt 0.5703125 0.375
vt 0.5703125 0.359375
vt 0.5703125 0.3359375
vt 0.5703125 0.3515625
vt 0.5625 0.3515625
vt 0.5625 0.3359375
vt 0.6640625 0.3359375
vt 0.6640625 0.3515625
vt 0.65625 0.3515625
vt 0.65625 0.3359375
vt 0.5703125 0.359375
vt 0.5703125 0.3515625
vt 0.65625 0.3515625
vt 0.65625 0.359375
vt 0.65625 0.3515625
vt 0.65625 0.359375
vt 0.7421875 0.359375
vt 0.7421875 0.3515625
vt 0.75 0.3359375
vt 0.75 0.3515625
vt 0.6640625 0.3515625
vt 0.6640625 0.3359375
vt 0.65625 0.3359375
vt 0.65625 0.3515625
vt 0.5703125 0.3515625
vt 0.5703125 0.3359375
vt 0.421875 0.578125
vt 0.421875 0.7890625
vt 0.6328125 0.7890625
vt 0.6328125 0.578125
vt 0 0.578125
vt 0 0.7890625
vt 0.2109375 0.7890625
vt 0.2109375 0.578125
vt 0.421875 1
vt 0.421875 0.7890625
vt 0.2109375 0.7890625
vt 0.2109375 1
vt 0.6328125 0.7890625
vt 0.6328125 1
vt 0.421875 1
vt 0.421875 0.7890625
vt 0.6328125 0.578125
vt 0.6328125 0.7890625
vt 0.84375 0.7890625
vt 0.84375 0.578125
vt 0.2109375 0.578125
vt 0.2109375 0.7890625
vt 0.421875 0.7890625
vt 0.421875 0.578125
vn 1 0 0
vn -1 0 0
vn 0 1 0
vn 0 -1 0
vn 0 0 1
vn 0 0 -1
vn 1 0 0
vn -1 0 0
vn 0 1 0
vn 0 -1 0
vn 0 0 1
vn 0 0 -1
vn 0.9659258262890684 -0.25881904510252046 0
vn -0.9659258262890683 0.2588190451025209 0
vn 0.25881904510252085 0.9659258262890684 0
vn -0.25881904510252085 -0.9659258262890684 0
vn 0 0 1
vn 0 0 -1
vn 0.9659258262890685 0.2588190451025201 0
vn -0.9659258262890683 -0.2588190451025209 0
vn -0.25881904510252085 0.9659258262890684 0
vn 0.2588190451025209 -0.9659258262890684 0
vn 0 0 1
vn 0 0 -1
vn 1 0 0
vn -1 0 0
vn 0 1 0
vn 0 -1 0
vn 0 0 1
vn 0 0 -1
usemtl m_3d686294-d8e3-9c38-6b94-de1ec1a7108b
f 1/1/1 2/2/1 3/3/1 4/4/1
f 5/5/2 6/6/2 7/7/2 8/8/2
f 3/9/3 2/10/3 7/11/3 6/12/3
f 1/13/4 4/14/4 5/15/4 8/16/4
f 4/17/5 3/18/5 6/19/5 5/20/5
f 8/21/6 7/22/6 2/23/6 1/24/6
f 9/25/7 10/26/7 11/27/7 12/28/7
f 13/29/8 14/30/8 15/31/8 16/32/8
f 11/33/9 10/34/9 15/35/9 14/36/9
f 9/37/10 12/38/10 13/39/10 16/40/10
f 12/41/11 11/42/11 14/43/11 13/44/11
f 16/45/12 15/46/12 10/47/12 9/48/12
f 17/49/13 18/50/13 19/51/13 20/52/13
f 21/53/14 22/54/14 23/55/14 24/56/14
f 19/57/15 18/58/15 23/59/15 22/60/15
f 17/61/16 20/62/16 21/63/16 24/64/16
f 20/65/17 19/66/17 22/67/17 21/68/17
f 24/69/18 23/70/18 18/71/18 17/72/18
f 25/73/19 26/74/19 27/75/19 28/76/19
f 29/77/20 30/78/20 31/79/20 32/80/20
f 27/81/21 26/82/21 31/83/21 30/84/21
f 25/85/22 28/86/22 29/87/22 32/88/22
f 28/89/23 27/90/23 30/91/23 29/92/23
f 32/93/24 31/94/24 26/95/24 25/96/24
f 33/97/25 34/98/25 35/99/25 36/100/25
f 37/101/26 38/102/26 39/103/26 40/104/26
f 35/105/27 34/106/27 39/107/27 38/108/27
f 33/109/28 36/110/28 37/111/28 40/112/28
f 36/113/29 35/114/29 38/115/29 37/116/29
f 40/117/30 39/118/30 34/119/30 33/120/30