# Made in Blockbench 5.1.4
mtllib bomb_bird.mtl

o cube
v 0.8125 0.875 -0.3125
v 0.8125 0.875 -0.6875
v 0.8125 0.5 -0.3125
v 0.8125 0.5 -0.6875
v 0.1875 0.875 -0.3125
v 0.1875 0.875 -0.6875
v 0.1875 0.5 -0.3125
v 0.1875 0.5 -0.6875
v 0.6875 0.5 -0.25
v 0.6875 0.5 -0.5
v 0.6875 0.25 -0.25
v 0.6875 0.25 -0.5
v 0.3125 0.5 -0.25
v 0.3125 0.5 -0.5
v 0.3125 0.25 -0.25
v 0.3125 0.25 -0.5
v 0.23076876813282832 2.5 1.0151628438691802
v 0.5177813424066455 2.5 0.3222531944857153
v 0.23076876813282832 1.6875 1.0151628438691802
v 0.5177813424066455 1.6875 0.3222531944857153
v 0.23076876813282832 2.5 1.0151628438691802
v 0.5177813424066455 2.5 0.3222531944857153
v 0.23076876813282832 1.6875 1.0151628438691802
v 0.5177813424066455 1.6875 0.3222531944857153
v 0.4677227447808818 1.351439537967226 -0.34375
v 0.4677227447808818 1.351439537967226 -0.40625
v 0.4353703641430668 1.2306988096810925 -0.34375
v 0.4353703641430668 1.2306988096810925 -0.40625
v -0.1963512607928526 1.529377631475209 -0.34375
v -0.1963512607928526 1.529377631475209 -0.40625
v -0.22870364143066768 1.4086369031890755 -0.34375
v -0.22870364143066768 1.4086369031890755 -0.40625
v 1.1963512607928526 1.529377631475209 -0.34375
v 1.1963512607928526 1.529377631475209 -0.40625
v 1.2287036414306676 1.4086369031890755 -0.34375
v 1.2287036414306676 1.4086369031890755 -0.40625
v 0.5322772552191182 1.351439537967226 -0.34375
v 0.5322772552191182 1.351439537967226 -0.40625
v 0.5646296358569333 1.2306988096810925 -0.34375
v 0.5646296358569333 1.2306988096810925 -0.40625
v 0.2748355191975139 0.8730866035876969 1.6539741515683
v 0.5618480934713312 0.8730866035876969 0.961064502184835
v 0.5188657455023452 0.30664423668979063 1.7550547809327366
v 0.8058783197761625 0.30664423668979063 1.0621451315492716
v 0.2748355191975139 0.8730866035876969 1.6539741515683
v 0.5618480934713312 0.8730866035876969 0.961064502184835
v 0.5188657455023452 0.30664423668979063 1.7550547809327366
v 0.8058783197761625 0.30664423668979063 1.0621451315492716
v 0.7251644808024861 0.8730866035876969 1.6539741515683
v 0.4381519065286688 0.8730866035876969 0.961064502184835
v 0.4811342544976548 0.30664423668979063 1.7550547809327366
v 0.19412168022383752 0.30664423668979063 1.0621451315492716
v 0.7251644808024861 0.8730866035876969 1.6539741515683
v 0.4381519065286688 0.8730866035876969 0.961064502184835
v 0.4811342544976548 0.30664423668979063 1.7550547809327366
v 0.19412168022383752 0.30664423668979063 1.0621451315492716
v 1.34375 1.6875 1.34375
v 1.34375 1.6875 -0.34375
v 1.34375 0 1.34375
v 1.34375 0 -0.34375
v -0.34375 1.6875 1.34375
v -0.34375 1.6875 -0.34375
v -0.34375 0 1.34375
v -0.34375 0 -0.34375
vt 0.609375 0.484375
vt 0.609375 0.53125
vt 0.5625 0.53125
vt 0.5625 0.484375
vt 0.734375 0.484375
vt 0.734375 0.53125
vt 0.6875 0.53125
vt 0.6875 0.484375
vt 0.609375 0.578125
vt 0.609375 0.53125
vt 0.6875 0.53125
vt 0.6875 0.578125
vt 0.6875 0.53125
vt 0.6875 0.578125
vt 0.765625 0.578125
vt 0.765625 0.53125
vt 0.8125 0.484375
vt 0.8125 0.53125
vt 0.734375 0.53125
vt 0.734375 0.484375
vt 0.6875 0.484375
vt 0.6875 0.53125
vt 0.609375 0.53125
vt 0.609375 0.484375
vt 0.59375 0.390625
vt 0.59375 0.421875
vt 0.5625 0.421875
vt 0.5625 0.390625
vt 0.671875 0.390625
vt 0.671875 0.421875
vt 0.640625 0.421875
vt 0.640625 0.390625
vt 0.59375 0.453125
vt 0.59375 0.421875
vt 0.640625 0.421875
vt 0.640625 0.453125
vt 0.640625 0.421875
vt 0.640625 0.453125
vt 0.6875 0.453125
vt 0.6875 0.421875
vt 0.71875 0.390625
vt 0.71875 0.421875
vt 0.671875 0.421875
vt 0.671875 0.390625
vt 0.640625 0.390625
vt 0.640625 0.421875
vt 0.59375 0.421875
vt 0.59375 0.390625
vt 0.09375 0.3828125
vt 0.09375 0.484375
vt 0 0.484375
vt 0 0.3828125
vt 0.1875 0.3828125
vt 0.1875 0.484375
vt 0.09375 0.484375
vt 0.09375 0.3828125
vt 0.09375 0.484375
vt 0.09375 0.484375
vt 0.09375 0.578125
vt 0.09375 0.578125
vt 0.09375 0.578125
vt 0.09375 0.578125
vt 0.09375 0.484375
vt 0.09375 0.484375
vt 0.1875 0.484375
vt 0.1875 0.484375
vt 0.1875 0.3828125
vt 0.1875 0.3828125
vt 0.09375 0.484375
vt 0.09375 0.484375
vt 0.09375 0.3828125
vt 0.09375 0.3828125
vt 0.5703125 0.359375
vt 0.5703125 0.375
vt 0.5625 0.375
vt 0.5625 0.359375
vt 0.6640625 0.359375
vt 0.6640625 0.375
vt 0.65625 0.375
vt 0.65625 0.359375
vt 0.5703125 0.3828125
vt 0.5703125 0.375
vt 0.65625 0.375
vt 0.65625 0.3828125
vt 0.65625 0.375
vt 0.65625 0.3828125
vt 0.7421875 0.3828125
vt 0.7421875 0.375
vt 0.75 0.359375
vt 0.75 0.375
vt 0.6640625 0.375
vt 0.6640625 0.359375
vt 0.65625 0.359375
vt 0.65625 0.375
vt 0.5703125 0.375
vt 0.5703125 0.359375
vt 0.5703125 0.3359375
vt 0.5703125 0.3515625
vt 0.5625 0.3515625
vt 0.5625 0.3359375
vt 0.6640625 0.3359375
vt 0.6640625 0.3515625
vt 0.65625 0.3515625
vt 0.65625 0.3359375
vt 0.5703125 0.359375
vt 0.5703125 0.3515625
vt 0.65625 0.3515625
vt 0.65625 0.359375
vt 0.65625 0.3515625
vt 0.65625 0.359375
vt 0.7421875 0.359375
vt 0.7421875 0.3515625
vt 0.75 0.3359375
vt 0.75 0.3515625
vt 0.6640625 0.3515625
vt 0.6640625 0.3359375
vt 0.65625 0.3359375
vt 0.65625 0.3515625
vt 0.5703125 0.3515625
vt 0.5703125 0.3359375
vt 0.28125 0.40625
vt 0.28125 0.484375
vt 0.1875 0.484375
vt 0.1875 0.40625
vt 0.375 0.40625
vt 0.375 0.484375
vt 0.28125 0.484375
vt 0.28125 0.40625
vt 0.28125 0.484375
vt 0.28125 0.484375
vt 0.28125 0.578125
vt 0.28125 0.578125
vt 0.28125 0.578125
vt 0.28125 0.578125
vt 0.28125 0.484375
vt 0.28125 0.484375
vt 0.375 0.484375
vt 0.375 0.484375
vt 0.375 0.40625
vt 0.375 0.40625
vt 0.28125 0.484375
vt 0.28125 0.484375
vt 0.28125 0.40625
vt 0.28125 0.40625
vt 0.46875 0.40625
vt 0.46875 0.484375
vt 0.375 0.484375
vt 0.375 0.40625
vt 0.5625 0.40625
vt 0.5625 0.484375
vt 0.46875 0.484375
vt 0.46875 0.40625
vt 0.46875 0.484375
vt 0.46875 0.484375
vt 0.46875 0.578125
vt 0.46875 0.578125
vt 0.46875 0.578125
vt 0.46875 0.578125
vt 0.46875 0.484375
vt 0.46875 0.484375
vt 0.5625 0.484375
vt 0.5625 0.484375
vt 0.5625 0.40625
vt 0.5625 0.40625
vt 0.46875 0.484375
vt 0.46875 0.484375
vt 0.46875 0.40625
vt 0.46875 0.40625
vt 0.421875 0.578125
vt 0.421875 0.7890625
vt 0.6328125 0.7890625
vt 0.6328125 0.578125
vt 0 0.578125
vt 0 0.7890625
vt 0.2109375 0.7890625
vt 0.2109375 0.578125
vt 0.421875 1
vt 0.421875 0.7890625
vt 0.2109375 0.7890625
vt 0.2109375 1
vt 0.6328125 0.7890625
vt 0.6328125 1
vt 0.421875 1
vt 0.421875 0.7890625
vt 0.6328125 0.578125
vt 0.6328125 0.7890625
vt 0.84375 0.7890625
vt 0.84375 0.578125
vt 0.2109375 0.578125
vt 0.2109375 0.7890625
vt 0.421875 0.7890625
vt 0.421875 0.578125
vn 1 0 0
vn -1 0 0
vn 0 1 0
vn 0 -1 0
vn 0 0 1
vn 0 0 -1
vn 1 0 0
vn -1 0 0
vn 0 1 0
vn 0 -1 0
vn 0 0 1
vn 0 0 -1
vn 0.9238795325112867 0 0.3826834323650898
vn -0.9238795325112867 0 -0.3826834323650898
vn 0 0 0
vn 0 0 0
vn 0 0 0
vn 0 0 0
vn 0.9659258262890684 -0.25881904510252046 0
vn -0.9659258262890683 0.2588190451025209 0
vn 0.25881904510252085 0.9659258262890684 0
vn -0.25881904510252085 -0.9659258262890684 0
vn 0 0 1
vn 0 0 -1
vn 0.9659258262890685 0.2588190451025201 0
vn -0.9659258262890683 -0.2588190451025209 0
vn -0.25881904510252085 0.9659258262890684 0
vn 0.2588190451025209 -0.9659258262890684 0
vn 0 0 1
vn 0 0 -1
vn 0.837319214598759 0.4226182617406995 0.3468289747223941
vn -0.837319214598759 -0.4226182617406995 -0.3468289747223941
vn 0 0 0
vn 0 0 0
vn 0 0 0
vn 0 0 0
vn 0.837319214598759 -0.4226182617406995 -0.346828974722394
vn -0.837319214598759 0.42261826174069944 0.34682897472239405
vn 0 0 0
vn 0 0 0
vn 0 0 0
vn 0 0 0
vn 1 0 0
vn -1 0 0
vn 0 1 0
vn 0 -1 0
vn 0 0 1
vn 0 0 -1
usemtl m_f3962390-a427-3df7-ec68-cd77b9cec849
f 4/1/1 2/2/1 1/3/1 3/4/1
f 7/5/2 5/6/2 6/7/2 8/8/2
f 1/9/3 2/10/3 6/11/3 5/12/3
f 4/13/4 3/14/4 7/15/4 8/16/4
f 3/17/5 1/18/5 5/19/5 7/20/5
f 8/21/6 6/22/6 2/23/6 4/24/6
f 12/25/7 10/26/7 9/27/7 11/28/7
f 15/29/8 13/30/8 14/31/8 16/32/8
f 9/33/9 10/34/9 14/35/9 13/36/9
f 12/37/10 11/38/10 15/39/10 16/40/10
f 11/41/11 9/42/11 13/43/11 15/44/11
f 16/45/12 14/46/12 10/47/12 12/48/12
f 20/49/13 18/50/13 17/51/13 19/52/13
f 23/53/14 21/54/14 22/55/14 24/56/14
f 18/57/15 22/58/15 17/59/15 21/60/15
f 19/61/16 23/62/16 20/63/16 24/64/16
f 17/65/17 21/66/17 19/67/17 23/68/17
f 22/69/18 18/70/18 24/71/18 20/72/18
f 28/73/19 26/74/19 25/75/19 27/76/19
f 31/77/20 29/78/20 30/79/20 32/80/20
f 25/81/21 26/82/21 30/83/21 29/84/21
f 28/85/22 27/86/22 31/87/22 32/88/22
f 27/89/23 25/90/23 29/91/23 31/92/23
f 32/93/24 30/94/24 26/95/24 28/96/24
f 36/97/25 34/98/25 33/99/25 35/100/25
f 39/101/26 37/102/26 38/103/26 40/104/26
f 33/105/27 34/106/27 38/107/27 37/108/27
f 36/109/28 35/110/28 39/111/28 40/112/28
f 35/113/29 33/114/29 37/115/29 39/116/29
f 40/117/30 38/118/30 34/119/30 36/120/30
f 44/121/31 42/122/31 41/123/31 43/124/31
f 47/125/32 45/126/32 46/127/32 48/128/32
f 42/129/33 46/130/33 41/131/33 45/132/33
f 43/133/34 47/134/34 44/135/34 48/136/34
f 41/137/35 45/138/35 43/139/35 47/140/35
f 46/141/36 42/142/36 48/143/36 44/144/36
f 52/145/37 50/146/37 49/147/37 51/148/37
f 55/149/38 53/150/38 54/151/38 56/152/38
f 50/153/39 54/154/39 49/155/39 53/156/39
f 51/157/40 55/158/40 52/159/40 56/160/40
f 49/161/41 53/162/41 51/163/41 55/164/41
f 54/165/42 50/166/42 56/167/42 52/168/42
f 60/169/43 58/170/43 57/171/43 59/172/43
f 63/173/44 61/174/44 62/175/44 64/176/44
f 57/177/45 58/178/45 62/179/45 61/180/45
f 60/181/46 59/182/46 63/183/46 64/184/46
f 59/185/47 57/186/47 61/187/47 63/188/47
f 64/189/48 62/190/48 58/191/48 60/192/48