# Made in Blockbench 5.1.5
mtllib terence_bird.mtl

o cube
v 1.875 2.75 1.875
v 1.875 2.75 -0.875
v 1.875 0 1.875
v 1.875 0 -0.875
v -0.875 2.75 -0.875
v -0.875 2.75 1.875
v -0.875 0 -0.875
v -0.875 0 1.875
vt 0.171875 0.828125
vt 0.34375 0.828125
vt 0.34375 0.65625
vt 0.171875 0.65625
vt 0 0.828125
vt 0.171875 0.828125
vt 0.171875 0.65625
vt 0 0.65625
vt 0.515625 0.828125
vt 0.6875 0.828125
vt 0.6875 0.65625
vt 0.515625 0.65625
vt 0.34375 0.828125
vt 0.515625 0.828125
vt 0.515625 0.65625
vt 0.34375 0.65625
vt 0.34375 0.828125
vt 0.171875 0.828125
vt 0.171875 1
vt 0.34375 1
vt 0.515625 1
vt 0.34375 1
vt 0.34375 0.828125
vt 0.515625 0.828125
vn 0 0 -1
vn 1 0 0
vn 0 0 1
vn -1 0 0
vn 0 1 0
vn 0 -1 0
usemtl m_47dfbc03-1086-1abf-6363-4361f47d9a5f
f 4/4/1 7/3/1 5/2/1 2/1/1
f 3/8/2 4/7/2 2/6/2 1/5/2
f 8/12/3 3/11/3 1/10/3 6/9/3
f 7/16/4 8/15/4 6/14/4 5/13/4
f 6/20/5 1/19/5 2/18/5 5/17/5
f 7/24/6 4/23/6 3/22/6 8/21/6
o cube
v 0.5326315480550129 1.4978612153434525 -0.8984375
v 0.5326315480550129 1.4978612153434525 -0.9609375
v 0.5 1.25 -0.8984375
v 0.5 1.25 -0.9609375
v -0.21095209797534487 1.5957558595084913 -0.9609375
v -0.21095209797534487 1.5957558595084913 -0.8984375
v -0.24358364603035776 1.3478946441650388 -0.9609375
v -0.24358364603035776 1.3478946441650388 -0.8984375
vt 0.31640625 0.61328125
vt 0.36328125 0.61328125
vt 0.36328125 0.59765625
vt 0.31640625 0.59765625
vt 0.3125 0.61328125
vt 0.31640625 0.61328125
vt 0.31640625 0.59765625
vt 0.3125 0.59765625
vt 0.3671875 0.61328125
vt 0.4140625 0.61328125
vt 0.4140625 0.59765625
vt 0.3671875 0.59765625
vt 0.36328125 0.61328125
vt 0.3671875 0.61328125
vt 0.3671875 0.59765625
vt 0.36328125 0.59765625
vt 0.36328125 0.61328125
vt 0.31640625 0.61328125
vt 0.31640625 0.6171875
vt 0.36328125 0.6171875
vt 0.41015625 0.6171875
vt 0.36328125 0.6171875
vt 0.36328125 0.61328125
vt 0.41015625 0.61328125
vn 0 0 -1
vn 0.9914448613738104 -0.13052619222005157 0
vn 0 0 1
vn -0.9914448613738104 0.13052619222005157 0
vn 0.13052619222005157 0.9914448613738104 0
vn -0.13052619222005157 -0.9914448613738104 0
usemtl m_47dfbc03-1086-1abf-6363-4361f47d9a5f
f 12/28/7 15/27/7 13/26/7 10/25/7
f 11/32/8 12/31/8 10/30/8 9/29/8
f 16/36/9 11/35/9 9/34/9 14/33/9
f 15/40/10 16/39/10 14/38/10 13/37/10
f 14/44/11 9/43/11 10/42/11 13/41/11
f 15/48/12 12/47/12 11/46/12 16/45/12
o cube
v 1.210952097975345 1.5957558595084913 -0.8984375
v 1.210952097975345 1.5957558595084913 -0.9609375
v 1.2435836460303578 1.3478946441650388 -0.8984375
v 1.2435836460303578 1.3478946441650388 -0.9609375
v 0.4673684519449871 1.4978612153434525 -0.9609375
v 0.4673684519449871 1.4978612153434525 -0.8984375
v 0.5 1.25 -0.9609375
v 0.5 1.25 -0.8984375
vt 0.11328125 0.59765625
vt 0.16015625 0.59765625
vt 0.16015625 0.58203125
vt 0.11328125 0.58203125
vt 0.109375 0.59765625
vt 0.11328125 0.59765625
vt 0.11328125 0.58203125
vt 0.109375 0.58203125
vt 0.1640625 0.59765625
vt 0.2109375 0.59765625
vt 0.2109375 0.58203125
vt 0.1640625 0.58203125
vt 0.16015625 0.59765625
vt 0.1640625 0.59765625
vt 0.1640625 0.58203125
vt 0.16015625 0.58203125
vt 0.16015625 0.59765625
vt 0.11328125 0.59765625
vt 0.11328125 0.6015625
vt 0.16015625 0.6015625
vt 0.20703125 0.6015625
vt 0.16015625 0.6015625
vt 0.16015625 0.59765625
vt 0.20703125 0.59765625
vn 0 0 -1
vn 0.9914448613738104 0.13052619222005157 0
vn 0 0 1
vn -0.9914448613738104 -0.13052619222005157 0
vn -0.13052619222005157 0.9914448613738104 0
vn 0.13052619222005157 -0.9914448613738104 0
usemtl m_47dfbc03-1086-1abf-6363-4361f47d9a5f
f 20/52/13 23/51/13 21/50/13 18/49/13
f 19/56/14 20/55/14 18/54/14 17/53/14
f 24/60/15 19/59/15 17/58/15 22/57/15
f 23/64/16 24/63/16 22/62/16 21/61/16
f 22/68/17 17/67/17 18/66/17 21/65/17
f 23/72/18 20/71/18 19/70/18 24/69/18
o cube
v 0.7728187095850265 3.1875 1.014351199054141
v 0.5336415643568454 3.1875 0.43692649123458666
v 0.7728187095850265 2.75 1.014351199054141
v 0.5336415643568454 2.75 0.43692649123458666
v 0.5336415643568454 3.1875 0.43692649123458666
v 0.7728187095850265 3.1875 1.014351199054141
v 0.5336415643568454 2.75 0.43692649123458666
v 0.7728187095850265 2.75 1.014351199054141
vt 0.2734375 0.6171875
vt 0.2734375 0.6171875
vt 0.2734375 0.58984375
vt 0.2734375 0.58984375
vt 0.234375 0.6171875
vt 0.2734375 0.6171875
vt 0.2734375 0.58984375
vt 0.234375 0.58984375
vt 0.3125 0.6171875
vt 0.3125 0.6171875
vt 0.3125 0.58984375
vt 0.3125 0.58984375
vt 0.2734375 0.6171875
vt 0.3125 0.6171875
vt 0.3125 0.58984375
vt 0.2734375 0.58984375
vt 0.2734375 0.6171875
vt 0.2734375 0.6171875
vt 0.2734375 0.65625
vt 0.2734375 0.65625
vt 0.2734375 0.65625
vt 0.2734375 0.65625
vt 0.2734375 0.6171875
vt 0.2734375 0.6171875
vn -0.3826834323650897 0 -0.9238795325112867
vn 0.9238795325112867 0 -0.3826834323650897
vn 0.3826834323650897 0 0.9238795325112867
vn -0.9238795325112867 0 0.3826834323650897
vn 0 1 0
vn 0 -1 0
usemtl m_47dfbc03-1086-1abf-6363-4361f47d9a5f
f 28/76/19 31/75/19 29/74/19 26/73/19
f 27/80/20 28/79/20 26/78/20 25/77/20
f 32/84/21 27/83/21 25/82/21 30/81/21
f 31/88/22 32/87/22 30/86/22 29/85/22
f 30/92/23 25/91/23 26/90/23 29/89/23
f 31/96/24 28/95/24 27/94/24 32/93/24
o cube
v 0.17934544717846457 3.5 0.9004891523052695
v 0.5141934504979181 3.5 0.09209456135789354
v 0.17934544717846457 2.75 0.9004891523052695
v 0.5141934504979181 2.75 0.09209456135789354
v 0.5141934504979181 3.5 0.09209456135789354
v 0.17934544717846457 3.5 0.9004891523052695
v 0.5141934504979181 2.75 0.09209456135789354
v 0.17934544717846457 2.75 0.9004891523052695
vt 0.0546875 0.6015625
vt 0.0546875 0.6015625
vt 0.0546875 0.5546875
vt 0.0546875 0.5546875
vt 0 0.6015625
vt 0.0546875 0.6015625
vt 0.0546875 0.5546875
vt 0 0.5546875
vt 0.109375 0.6015625
vt 0.109375 0.6015625
vt 0.109375 0.5546875
vt 0.109375 0.5546875
vt 0.0546875 0.6015625
vt 0.109375 0.6015625
vt 0.109375 0.5546875
vt 0.0546875 0.5546875
vt 0.0546875 0.6015625
vt 0.0546875 0.6015625
vt 0.0546875 0.65625
vt 0.0546875 0.65625
vt 0.0546875 0.65625
vt 0.0546875 0.65625
vt 0.0546875 0.6015625
vt 0.0546875 0.6015625
vn 0.3826834323650897 0 -0.9238795325112867
vn 0.9238795325112867 0 0.3826834323650897
vn -0.3826834323650897 0 0.9238795325112867
vn -0.9238795325112867 0 -0.3826834323650897
vn 0 1 0
vn 0 -1 0
usemtl m_47dfbc03-1086-1abf-6363-4361f47d9a5f
f 36/100/25 39/99/25 37/98/25 34/97/25
f 35/104/26 36/103/26 34/102/26 33/101/26
f 40/108/27 35/107/27 33/106/27 38/105/27
f 39/112/28 40/111/28 38/110/28 37/109/28
f 38/116/29 33/115/29 34/114/29 37/113/29
f 39/120/30 36/119/30 35/118/30 40/117/30
o cube
v 0.75 0.9375 -0.875
v 0.75 0.9375 -1.375
v 0.75 0.5625 -0.875
v 0.75 0.5625 -1.375
v 0.25 0.9375 -1.375
v 0.25 0.9375 -0.875
v 0.25 0.5625 -1.375
v 0.25 0.5625 -0.875
vt 0.171875 0.625
vt 0.140625 0.625
vt 0.140625 0.6015625
vt 0.171875 0.6015625
vt 0.203125 0.625
vt 0.171875 0.625
vt 0.171875 0.6015625
vt 0.203125 0.6015625
vt 0.234375 0.625
vt 0.203125 0.625
vt 0.203125 0.6015625
vt 0.234375 0.6015625
vt 0.140625 0.625
vt 0.109375 0.625
vt 0.109375 0.6015625
vt 0.140625 0.6015625
vt 0.140625 0.625
vt 0.171875 0.625
vt 0.171875 0.65625
vt 0.140625 0.65625
vt 0.171875 0.65625
vt 0.203125 0.65625
vt 0.203125 0.625
vt 0.171875 0.625
vn 0 0 -1
vn 1 0 0
vn 0 0 1
vn -1 0 0
vn 0 1 0
vn 0 -1 0
usemtl m_47dfbc03-1086-1abf-6363-4361f47d9a5f
f 44/124/31 47/123/31 45/122/31 42/121/31
f 43/128/32 44/127/32 42/126/32 41/125/32
f 48/132/33 43/131/33 41/130/33 46/129/33
f 47/136/34 48/135/34 46/134/34 45/133/34
f 46/140/35 41/139/35 42/138/35 45/137/35
f 47/144/36 44/143/36 43/142/36 48/141/36
o cube
v 0.6875 0.5625 -0.8125
v 0.6875 0.5625 -1.1875
v 0.6875 0.3125 -0.8125
v 0.6875 0.3125 -1.1875
v 0.3125 0.5625 -1.1875
v 0.3125 0.5625 -0.8125
v 0.3125 0.3125 -1.1875
v 0.3125 0.3125 -0.8125
vt 0.359375 0.6328125
vt 0.3359375 0.6328125
vt 0.3359375 0.6171875
vt 0.359375 0.6171875
vt 0.3828125 0.6328125
vt 0.359375 0.6328125
vt 0.359375 0.6171875
vt 0.3828125 0.6171875
vt 0.40625 0.6328125
vt 0.3828125 0.6328125
vt 0.3828125 0.6171875
vt 0.40625 0.6171875
vt 0.3359375 0.6328125
vt 0.3125 0.6328125
vt 0.3125 0.6171875
vt 0.3359375 0.6171875
vt 0.3359375 0.6328125
vt 0.359375 0.6328125
vt 0.359375 0.65625
vt 0.3359375 0.65625
vt 0.359375 0.65625
vt 0.3828125 0.65625
vt 0.3828125 0.6328125
vt 0.359375 0.6328125
vn 0 0 -1
vn 1 0 0
vn 0 0 1
vn -1 0 0
vn 0 1 0
vn 0 -1 0
usemtl m_47dfbc03-1086-1abf-6363-4361f47d9a5f
f 52/148/37 55/147/37 53/146/37 50/145/37
f 51/152/38 52/151/38 50/150/38 49/149/38
f 56/156/39 51/155/39 49/154/39 54/153/39
f 55/160/40 56/159/40 54/158/40 53/157/40
f 54/164/41 49/163/41 50/162/41 53/161/41
f 55/168/42 52/167/42 51/166/42 56/165/42
o cube
v 0.5 1 2.421875
v 0.5 1 1.859375
v 0.5 0.8125 2.421875
v 0.5 0.8125 1.859375
v 0.5 1 1.859375
v 0.5 1 2.421875
v 0.5 0.8125 1.859375
v 0.5 0.8125 2.421875
vt 0.34765625 0.5625
vt 0.34765625 0.5625
vt 0.34765625 0.55078125
vt 0.34765625 0.55078125
vt 0.3125 0.5625
vt 0.34765625 0.5625
vt 0.34765625 0.55078125
vt 0.3125 0.55078125
vt 0.3828125 0.5625
vt 0.3828125 0.5625
vt 0.3828125 0.55078125
vt 0.3828125 0.55078125
vt 0.34765625 0.5625
vt 0.3828125 0.5625
vt 0.3828125 0.55078125
vt 0.34765625 0.55078125
vt 0.34765625 0.5625
vt 0.34765625 0.5625
vt 0.34765625 0.59765625
vt 0.34765625 0.59765625
vt 0.34765625 0.59765625
vt 0.34765625 0.59765625
vt 0.34765625 0.5625
vt 0.34765625 0.5625
vn 0 0 -1
vn 1 0 0
vn 0 0 1
vn -1 0 0
vn 0 1 0
vn 0 -1 0
usemtl m_47dfbc03-1086-1abf-6363-4361f47d9a5f
f 60/172/43 63/171/43 61/170/43 58/169/43
f 59/176/44 60/175/44 58/174/44 57/173/44
f 64/180/45 59/179/45 57/178/45 62/177/45
f 63/184/46 64/183/46 62/182/46 61/181/46
f 62/188/47 57/187/47 58/186/47 61/185/47
f 63/192/48 60/191/48 59/190/48 64/189/48
o cube
v 0.5 1.2994604713856739 2.1821358831513757
v 0.5 0.9780666665424043 1.799113661591887
v 0.5 1.1558271383008654 2.302658559967602
v 0.5 0.8344333334575957 1.919636338408113
v 0.5 0.9780666665424043 1.799113661591887
v 0.5 1.2994604713856739 2.1821358831513757
v 0.5 0.8344333334575957 1.919636338408113
v 0.5 1.1558271383008654 2.302658559967602
vt 0.4140625 0.56640625
vt 0.4140625 0.56640625
vt 0.4140625 0.5546875
vt 0.4140625 0.5546875
vt 0.3828125 0.56640625
vt 0.4140625 0.56640625
vt 0.4140625 0.5546875
vt 0.3828125 0.5546875
vt 0.4453125 0.56640625
vt 0.4453125 0.56640625
vt 0.4453125 0.5546875
vt 0.4453125 0.5546875
vt 0.4140625 0.56640625
vt 0.4453125 0.56640625
vt 0.4453125 0.5546875
vt 0.4140625 0.5546875
vt 0.4140625 0.56640625
vt 0.4140625 0.56640625
vt 0.4140625 0.59765625
vt 0.4140625 0.59765625
vt 0.4140625 0.59765625
vt 0.4140625 0.59765625
vt 0.4140625 0.56640625
vt 0.4140625 0.56640625
vn 0 -0.6427876096865394 -0.7660444431189781
vn 1 0 0
vn 0 0.6427876096865394 0.7660444431189781
vn -1 0 0
vn 0 0.7660444431189781 -0.6427876096865394
vn 0 -0.7660444431189781 0.6427876096865394
usemtl m_47dfbc03-1086-1abf-6363-4361f47d9a5f
f 68/196/49 71/195/49 69/194/49 66/193/49
f 67/200/50 68/199/50 66/198/50 65/197/50
f 72/204/51 67/203/51 65/202/51 70/201/51
f 71/208/52 72/207/52 70/206/52 69/205/52
f 70/212/53 65/211/53 66/210/53 69/209/53
f 71/216/54 68/215/54 67/214/54 72/213/54
o cube
v 0.5 0.6566728616991345 2.302658559967602
v 0.5 0.9780666665424043 1.919636338408113
v 0.5 0.5130395286143261 2.1821358831513757
v 0.5 0.8344333334575957 1.799113661591887
v 0.5 0.9780666665424043 1.919636338408113
v 0.5 0.6566728616991345 2.302658559967602
v 0.5 0.8344333334575957 1.799113661591887
v 0.5 0.5130395286143261 2.1821358831513757
vt 0.2421875 0.55859375
vt 0.2421875 0.55859375
vt 0.2421875 0.546875
vt 0.2421875 0.546875
vt 0.2109375 0.55859375
vt 0.2421875 0.55859375
vt 0.2421875 0.546875
vt 0.2109375 0.546875
vt 0.2734375 0.55859375
vt 0.2734375 0.55859375
vt 0.2734375 0.546875
vt 0.2734375 0.546875
vt 0.2421875 0.55859375
vt 0.2734375 0.55859375
vt 0.2734375 0.546875
vt 0.2421875 0.546875
vt 0.2421875 0.55859375
vt 0.2421875 0.55859375
vt 0.2421875 0.58984375
vt 0.2421875 0.58984375
vt 0.2421875 0.58984375
vt 0.2421875 0.58984375
vt 0.2421875 0.55859375
vt 0.2421875 0.55859375
vn 0 0.6427876096865394 -0.7660444431189781
vn 1 0 0
vn 0 -0.6427876096865394 0.7660444431189781
vn -1 0 0
vn 0 0.7660444431189781 0.6427876096865394
vn 0 -0.7660444431189781 -0.6427876096865394
usemtl m_47dfbc03-1086-1abf-6363-4361f47d9a5f
f 76/220/55 79/219/55 77/218/55 74/217/55
f 75/224/56 76/223/56 74/222/56 73/221/56
f 80/228/57 75/227/57 73/226/57 78/225/57
f 79/232/58 80/231/58 78/230/58 77/229/58
f 78/236/59 73/235/59 74/234/59 77/233/59
f 79/240/60 76/239/60 75/238/60 80/237/60