# Made in Blockbench 5.1.4
mtllib yellow_lemon.mtl

o cube
v 0.578125 0.1875 0.1875
v 0.578125 0.1875 -0.1875
v 0.578125 0.125 0.1875
v 0.578125 0.125 -0.1875
v 0.421875 0.1875 -0.1875
v 0.421875 0.1875 0.1875
v 0.421875 0.125 -0.1875
v 0.421875 0.125 0.1875
vt 0.265625 0.078125
vt 0.3125 0.078125
vt 0.3125 0.0625
vt 0.265625 0.0625
vt 0.8125 0.421875
vt 0.90625 0.421875
vt 0.90625 0.40625
vt 0.8125 0.40625
vt 0.421875 0.0625
vt 0.46875 0.0625
vt 0.46875 0.046875
vt 0.421875 0.046875
vt 0.65625 0.390625
vt 0.75 0.390625
vt 0.75 0.375
vt 0.65625 0.375
vt 0.921875 0.078125
vt 0.875 0.078125
vt 0.875 0.171875
vt 0.921875 0.171875
vt 0.796875 0.640625
vt 0.75 0.640625
vt 0.75 0.546875
vt 0.796875 0.546875
vn 0 0 -1
vn 1 0 0
vn 0 0 1
vn -1 0 0
vn 0 1 0
vn 0 -1 0
usemtl m_4cdc3e70-883e-b761-2a9e-453736135d1e
f 4/4/1 7/3/1 5/2/1 2/1/1
f 3/8/2 4/7/2 2/6/2 1/5/2
f 8/12/3 3/11/3 1/10/3 6/9/3
f 7/16/4 8/15/4 6/14/4 5/13/4
f 6/20/5 1/19/5 2/18/5 5/17/5
f 7/24/6 4/23/6 3/22/6 8/21/6
o cube
v 0.5625 0.125 0.25
v 0.5625 0.125 -0.125
v 0.5625 0.0625 0.25
v 0.5625 0.0625 -0.125
v 0.4375 0.125 -0.125
v 0.4375 0.125 0.25
v 0.4375 0.0625 -0.125
v 0.4375 0.0625 0.25
vt 0.734375 0.25
vt 0.765625 0.25
vt 0.765625 0.234375
vt 0.734375 0.234375
vt 0.765625 0.0625
vt 0.859375 0.0625
vt 0.859375 0.046875
vt 0.765625 0.046875
vt 0.734375 0.328125
vt 0.765625 0.328125
vt 0.765625 0.3125
vt 0.734375 0.3125
vt 0.8125 0.265625
vt 0.90625 0.265625
vt 0.90625 0.25
vt 0.8125 0.25
vt 0.6875 0.203125
vt 0.65625 0.203125
vt 0.65625 0.296875
vt 0.6875 0.296875
vt 0.625 0.171875
vt 0.59375 0.171875
vt 0.59375 0.078125
vt 0.625 0.078125
vn 0 0 -1
vn 1 0 0
vn 0 0 1
vn -1 0 0
vn 0 1 0
vn 0 -1 0
usemtl m_4cdc3e70-883e-b761-2a9e-453736135d1e
f 12/28/7 15/27/7 13/26/7 10/25/7
f 11/32/8 12/31/8 10/30/8 9/29/8
f 16/36/9 11/35/9 9/34/9 14/33/9
f 15/40/10 16/39/10 14/38/10 13/37/10
f 14/44/11 9/43/11 10/42/11 13/41/11
f 15/48/12 12/47/12 11/46/12 16/45/12
o mesh
v 1 0 0.9375
v 1 0 0.0625
v 0.5 0.875 0.9375
v 0.5 0.875 0.0625
v 0 0 0.9375
v 0 0 0.0625
vt 0.25 0.390625
vt 0.25 0.609375
vt 0 0.609375
vt 0 0.390625
vt 0.329145625 0.12858953125000006
vt 0.204145625 0.34733953125000006
vt 0.079145625 0.12858953125000006
vt 0.452583125 0.12520406250000005
vt 0.577583125 0.34395406250000005
vt 0.327583125 0.34395406250000005
vt 0.640625 0.75
vt 0.640625 1
vt 0.421875 1
vt 0.421875 0.75
vt 0.640625 0.734375
vt 0.421875 0.734375
vt 0.421875 0.484375
vt 0.640625 0.484375
vn 0 -1 0
vn 0 0 1
vn 0 0 -1
vn -0.8682431421244592 0.4961389383568338 0
vn 0.8682431421244592 0.4961389383568338 0
usemtl m_4cdc3e70-883e-b761-2a9e-453736135d1e
f 18/49/13 17/50/13 21/51/13 22/52/13
f 17/53/14 19/54/14 21/55/14
f 20/56/15 18/57/15 22/58/15
f 21/59/16 19/60/16 20/61/16 22/62/16
f 20/63/17 19/64/17 17/65/17 18/66/17
o cube
v 0.4614177145228181 0.4358674707819554 0.0625
v 0.4614177145228181 0.4358674707819554 0.03125
v 0.4375 0.378125 0.0625
v 0.4375 0.378125 0.03125
v 0.23044783139499642 0.5315383288732278 0.03125
v 0.23044783139499642 0.5315383288732278 0.0625
v 0.20653011687217832 0.47379585809127245 0.03125
v 0.20653011687217832 0.47379585809127245 0.0625
vt 0.328125 0.90625
vt 0.390625 0.90625
vt 0.390625 0.890625
vt 0.328125 0.890625
vt 0 0.9375
vt 0.015625 0.9375
vt 0.015625 0.921875
vt 0 0.921875
vt 0.328125 0.875
vt 0.390625 0.875
vt 0.390625 0.859375
vt 0.328125 0.859375
vt 0.109375 1
vt 0.125 1
vt 0.125 0.984375
vt 0.109375 0.984375
vt 0.390625 0.828125
vt 0.328125 0.828125
vt 0.328125 0.84375
vt 0.390625 0.84375
vt 0.40625 1
vt 0.34375 1
vt 0.34375 0.984375
vt 0.40625 0.984375
vn 0 0 -1
vn 0.9238795325112867 -0.3826834323650897 0
vn 0 0 1
vn -0.9238795325112867 0.3826834323650897 0
vn 0.3826834323650897 0.9238795325112867 0
vn -0.3826834323650897 -0.9238795325112867 0
usemtl m_4cdc3e70-883e-b761-2a9e-453736135d1e
f 26/70/18 29/69/18 27/68/18 24/67/18
f 25/74/19 26/73/19 24/72/19 23/71/19
f 30/78/20 25/77/20 23/76/20 28/75/20
f 29/82/21 30/81/21 28/80/21 27/79/21
f 28/86/22 23/85/22 24/84/22 27/83/22
f 29/90/23 26/89/23 25/88/23 30/87/23
o cube
v 0.7695521686050035 0.5315383288732278 0.0625
v 0.7695521686050035 0.5315383288732278 0.03125
v 0.7934698831278217 0.47379585809127245 0.0625
v 0.7934698831278217 0.47379585809127245 0.03125
v 0.5385822854771819 0.4358674707819554 0.03125
v 0.5385822854771819 0.4358674707819554 0.0625
v 0.5625 0.378125 0.03125
v 0.5625 0.378125 0.0625
vt 0.125 0.65625
vt 0.1875 0.65625
vt 0.1875 0.640625
vt 0.125 0.640625
vt 0 0.828125
vt 0.015625 0.828125
vt 0.015625 0.8125
vt 0 0.8125
vt 0.265625 0.578125
vt 0.328125 0.578125
vt 0.328125 0.5625
vt 0.265625 0.5625
vt 0.03125 0.8125
vt 0.046875 0.8125
vt 0.046875 0.796875
vt 0.03125 0.796875
vt 0.328125 0.53125
vt 0.265625 0.53125
vt 0.265625 0.546875
vt 0.328125 0.546875
vt 0.40625 0.53125
vt 0.34375 0.53125
vt 0.34375 0.515625
vt 0.40625 0.515625
vn 0 0 -1
vn 0.9238795325112867 0.3826834323650897 0
vn 0 0 1
vn -0.9238795325112867 -0.3826834323650897 0
vn -0.3826834323650897 0.9238795325112867 0
vn 0.3826834323650897 -0.9238795325112867 0
usemtl m_4cdc3e70-883e-b761-2a9e-453736135d1e
f 34/94/24 37/93/24 35/92/24 32/91/24
f 33/98/25 34/97/25 32/96/25 31/95/25
f 38/102/26 33/101/26 31/100/26 36/99/26
f 37/106/27 38/105/27 36/104/27 35/103/27
f 36/110/28 31/109/28 32/108/28 35/107/28
f 37/114/29 34/113/29 33/112/29 38/111/29
o cube
v 0.5 0.25 1.25
v 0.5 0.25 0.9375
v 0.5 0.1875 1.25
v 0.5 0.1875 0.9375
v 0.5 0.25 0.9375
v 0.5 0.25 1.25
v 0.5 0.1875 0.9375
v 0.5 0.1875 1.25
vt 0.03125 0.9375
vt 0.03125 0.9375
vt 0.03125 0.921875
vt 0.03125 0.921875
vt 0.234375 0.96875
vt 0.3125 0.96875
vt 0.3125 0.953125
vt 0.234375 0.953125
vt 0.140625 1
vt 0.140625 1
vt 0.140625 0.984375
vt 0.140625 0.984375
vt 0.234375 0.9375
vt 0.3125 0.9375
vt 0.3125 0.921875
vt 0.234375 0.921875
vt 0.40625 0.828125
vt 0.40625 0.828125
vt 0.40625 0.90625
vt 0.40625 0.90625
vt 0.546875 0.46875
vt 0.546875 0.46875
vt 0.546875 0.390625
vt 0.546875 0.390625
vn 0 0 -1
vn 1 0 0
vn 0 0 1
vn -1 0 0
vn 0 1 0
vn 0 -1 0
usemtl m_4cdc3e70-883e-b761-2a9e-453736135d1e
f 42/118/30 45/117/30 43/116/30 40/115/30
f 41/122/31 42/121/31 40/120/31 39/119/31
f 46/126/32 41/125/32 39/124/32 44/123/32
f 45/130/33 46/129/33 44/128/33 43/127/33
f 44/134/34 39/133/34 40/132/34 43/131/34
f 45/138/35 42/137/35 41/136/35 46/135/35
o cube
v 0.5 0.3125 1.3125
v 0.5 0.3125 1
v 0.5 0.25 1.3125
v 0.5 0.25 1
v 0.5 0.3125 1
v 0.5 0.3125 1.3125
v 0.5 0.25 1
v 0.5 0.25 1.3125
vt 0.109375 0.78125
vt 0.109375 0.78125
vt 0.109375 0.765625
vt 0.109375 0.765625
vt 0.234375 0.90625
vt 0.3125 0.90625
vt 0.3125 0.890625
vt 0.234375 0.890625
vt 0.125 0.765625
vt 0.125 0.765625
vt 0.125 0.75
vt 0.125 0.75
vt 0.234375 0.875
vt 0.3125 0.875
vt 0.3125 0.859375
vt 0.234375 0.859375
vt 0.265625 0.359375
vt 0.265625 0.359375
vt 0.265625 0.4375
vt 0.265625 0.4375
vt 0.28125 0.4375
vt 0.28125 0.4375
vt 0.28125 0.359375
vt 0.28125 0.359375
vn 0 0 -1
vn 1 0 0
vn 0 0 1
vn -1 0 0
vn 0 1 0
vn 0 -1 0
usemtl m_4cdc3e70-883e-b761-2a9e-453736135d1e
f 50/142/36 53/141/36 51/140/36 48/139/36
f 49/146/37 50/145/37 48/144/37 47/143/37
f 54/150/38 49/149/38 47/148/38 52/147/38
f 53/154/39 54/153/39 52/152/39 51/151/39
f 52/158/40 47/157/40 48/156/40 51/155/40
f 53/162/41 50/161/41 49/160/41 54/159/41
o cube
v 0.5 0.5593592167691146 1.158470869120796
v 0.5 0.29419417382415924 0.8933058261758408
v 0.5 0.5151650429449554 1.2026650429449552
v 0.5 0.25 0.9375
v 0.5 0.29419417382415924 0.8933058261758408
v 0.5 0.5593592167691146 1.158470869120796
v 0.5 0.25 0.9375
v 0.5 0.5151650429449554 1.2026650429449552
vt 0.140625 0.765625
vt 0.140625 0.765625
vt 0.140625 0.75
vt 0.140625 0.75
vt 0 1
vt 0.09375 1
vt 0.09375 0.984375
vt 0 0.984375
vt 0.234375 0.78125
vt 0.234375 0.78125
vt 0.234375 0.765625
vt 0.234375 0.765625
vt 0 0.96875
vt 0.09375 0.96875
vt 0.09375 0.953125
vt 0 0.953125
vt 0.296875 0.34375
vt 0.296875 0.34375
vt 0.296875 0.4375
vt 0.296875 0.4375
vt 0.3125 0.4375
vt 0.3125 0.4375
vt 0.3125 0.34375
vt 0.3125 0.34375
vn 0 -0.7071067811865476 -0.7071067811865475
vn 1 0 0
vn 0 0.7071067811865476 0.7071067811865475
vn -1 0 0
vn 0 0.7071067811865475 -0.7071067811865476
vn 0 -0.7071067811865475 0.7071067811865476
usemtl m_4cdc3e70-883e-b761-2a9e-453736135d1e
f 58/166/42 61/165/42 59/164/42 56/163/42
f 57/170/43 58/169/43 56/168/43 55/167/43
f 62/174/44 57/173/44 55/172/44 60/171/44
f 61/178/45 62/177/45 60/176/45 59/175/45
f 60/182/46 55/181/46 56/180/46 59/179/46
f 61/186/47 58/185/47 57/184/47 62/183/47
o cube
v 0.5 0.4709708691207961 1.158470869120796
v 0.5 0.25 0.9375
v 0.5 0.42677669529663687 1.2026650429449552
v 0.5 0.20580582617584078 0.9816941738241592
v 0.5 0.25 0.9375
v 0.5 0.4709708691207961 1.158470869120796
v 0.5 0.20580582617584078 0.9816941738241592
v 0.5 0.42677669529663687 1.2026650429449552
vt 0.25 0.78125
vt 0.25 0.78125
vt 0.25 0.765625
vt 0.25 0.765625
vt 0.234375 0.84375
vt 0.3125 0.84375
vt 0.3125 0.828125
vt 0.234375 0.828125
vt 0.1875 0.734375
vt 0.1875 0.734375
vt 0.1875 0.71875
vt 0.1875 0.71875
vt 0.234375 0.8125
vt 0.3125 0.8125
vt 0.3125 0.796875
vt 0.234375 0.796875
vt 0.390625 0.359375
vt 0.390625 0.359375
vt 0.390625 0.4375
vt 0.390625 0.4375
vt 0.40625 0.4375
vt 0.40625 0.4375
vt 0.40625 0.359375
vt 0.40625 0.359375
vn 0 -0.7071067811865476 -0.7071067811865475
vn 1 0 0
vn 0 0.7071067811865476 0.7071067811865475
vn -1 0 0
vn 0 0.7071067811865475 -0.7071067811865476
vn 0 -0.7071067811865475 0.7071067811865476
usemtl m_4cdc3e70-883e-b761-2a9e-453736135d1e
f 66/190/48 69/189/48 67/188/48 64/187/48
f 65/194/49 66/193/49 64/192/49 63/191/49
f 70/198/50 65/197/50 63/196/50 68/195/50
f 69/202/51 70/201/51 68/200/51 67/199/51
f 68/206/52 63/205/52 64/204/52 67/203/52
f 69/210/53 66/209/53 65/208/53 70/207/53
o cube
v 0.5 0.02902913087920389 1.158470869120796
v 0.5 0.25 0.9375
v 0.5 -0.015165042944955354 1.114276695296637
v 0.5 0.20580582617584078 0.8933058261758408
v 0.5 0.25 0.9375
v 0.5 0.02902913087920389 1.158470869120796
v 0.5 0.20580582617584078 0.8933058261758408
v 0.5 -0.015165042944955354 1.114276695296637
vt 0.265625 0.78125
vt 0.265625 0.78125
vt 0.265625 0.765625
vt 0.265625 0.765625
vt 0 0.75
vt 0.078125 0.75
vt 0.078125 0.734375
vt 0 0.734375
vt 0.28125 0.78125
vt 0.28125 0.78125
vt 0.28125 0.765625
vt 0.28125 0.765625
vt 0.09375 0.734375
vt 0.171875 0.734375
vt 0.171875 0.71875
vt 0.09375 0.71875
vt 0.421875 0.359375
vt 0.421875 0.359375
vt 0.421875 0.4375
vt 0.421875 0.4375
vt 0.4375 0.4375
vt 0.4375 0.4375
vt 0.4375 0.359375
vt 0.4375 0.359375
vn 0 0.7071067811865476 -0.7071067811865475
vn 1 0 0
vn 0 -0.7071067811865476 0.7071067811865475
vn -1 0 0
vn 0 0.7071067811865475 0.7071067811865476
vn 0 -0.7071067811865475 -0.7071067811865476
usemtl m_4cdc3e70-883e-b761-2a9e-453736135d1e
f 74/214/54 77/213/54 75/212/54 72/211/54
f 73/218/55 74/217/55 72/216/55 71/215/55
f 78/222/56 73/221/56 71/220/56 76/219/56
f 77/226/57 78/225/57 76/224/57 75/223/57
f 76/230/58 71/229/58 72/228/58 75/227/58
f 77/234/59 74/233/59 73/232/59 78/231/59
o cube
v 0.5 0.029029130879203863 1.2468592167691146
v 0.5 0.29419417382415924 0.9816941738241592
v 0.5 -0.015165042944955354 1.2026650429449552
v 0.5 0.25 0.9375
v 0.5 0.29419417382415924 0.9816941738241592
v 0.5 0.029029130879203863 1.2468592167691146
v 0.5 0.25 0.9375
v 0.5 -0.015165042944955354 1.2026650429449552
vt 0.125 0.703125
vt 0.125 0.703125
vt 0.125 0.6875
vt 0.125 0.6875
vt 0 0.78125
vt 0.09375 0.78125
vt 0.09375 0.765625
vt 0 0.765625
vt 0.140625 0.703125
vt 0.140625 0.703125
vt 0.140625 0.6875
vt 0.140625 0.6875
vt 0.234375 1
vt 0.328125 1
vt 0.328125 0.984375
vt 0.234375 0.984375
vt 0.453125 0.34375
vt 0.453125 0.34375
vt 0.453125 0.4375
vt 0.453125 0.4375
vt 0.46875 0.4375
vt 0.46875 0.4375
vt 0.46875 0.34375
vt 0.46875 0.34375
vn 0 0.7071067811865476 -0.7071067811865475
vn 1 0 0
vn 0 -0.7071067811865476 0.7071067811865475
vn -1 0 0
vn 0 0.7071067811865475 0.7071067811865476
vn 0 -0.7071067811865475 -0.7071067811865476
usemtl m_4cdc3e70-883e-b761-2a9e-453736135d1e
f 82/238/60 85/237/60 83/236/60 80/235/60
f 81/242/61 82/241/61 80/240/61 79/239/61
f 86/246/62 81/245/62 79/244/62 84/243/62
f 85/250/63 86/249/63 84/248/63 83/247/63
f 84/254/64 79/253/64 80/252/64 83/251/64
f 85/258/65 82/257/65 81/256/65 86/255/65
o cube
v 0.5 1.1637123539097771 0.5570885726140905
v 0.5 1.187630068432595 0.4993461018321351
v 0.5 0.875 0.4375
v 0.5 0.8989177145228181 0.37975752921804456
v 0.5 1.187630068432595 0.4993461018321351
v 0.5 1.1637123539097771 0.5570885726140905
v 0.5 0.8989177145228181 0.37975752921804456
v 0.5 0.875 0.4375
vt 0.484375 0.4375
vt 0.484375 0.4375
vt 0.484375 0.359375
vt 0.484375 0.359375
vt 0 0.71875
vt 0.015625 0.71875
vt 0.015625 0.640625
vt 0 0.640625
vt 0.5 0.4375
vt 0.5 0.4375
vt 0.5 0.359375
vt 0.5 0.359375
vt 0.03125 0.71875
vt 0.046875 0.71875
vt 0.046875 0.640625
vt 0.03125 0.640625
vt 0.15625 0.6875
vt 0.15625 0.6875
vt 0.15625 0.703125
vt 0.15625 0.703125
vt 0.171875 0.703125
vt 0.171875 0.703125
vt 0.171875 0.6875
vt 0.171875 0.6875
vn 0 0.3826834323650897 -0.9238795325112867
vn 1 0 0
vn 0 -0.3826834323650897 0.9238795325112867
vn -1 0 0
vn 0 0.9238795325112867 0.3826834323650897
vn 0 -0.9238795325112867 -0.3826834323650897
usemtl m_4cdc3e70-883e-b761-2a9e-453736135d1e
f 90/262/66 93/261/66 91/260/66 88/259/66
f 89/266/67 90/265/67 88/264/67 87/263/67
f 94/270/68 89/269/68 87/268/68 92/267/68
f 93/274/69 94/273/69 92/272/69 91/271/69
f 92/278/70 87/277/70 88/276/70 91/275/70
f 93/282/71 90/281/71 89/280/71 94/279/71
o cube
v 0.5 1.0820521686050035 0.5909133288732278
v 0.5 1.1059698831278217 0.5331708580912724
v 0.5 0.8510822854771819 0.49524247078195544
v 0.5 0.875 0.4375
v 0.5 1.1059698831278217 0.5331708580912724
v 0.5 1.0820521686050035 0.5909133288732278
v 0.5 0.875 0.4375
v 0.5 0.8510822854771819 0.49524247078195544
vt 0.515625 0.4375
vt 0.515625 0.4375
vt 0.515625 0.375
vt 0.515625 0.375
vt 0.265625 0.515625
vt 0.28125 0.515625
vt 0.28125 0.453125
vt 0.265625 0.453125
vt 0.53125 0.4375
vt 0.53125 0.4375
vt 0.53125 0.375
vt 0.53125 0.375
vt 0.296875 0.515625
vt 0.3125 0.515625
vt 0.3125 0.453125
vt 0.296875 0.453125
vt 0.328125 0.796875
vt 0.328125 0.796875
vt 0.328125 0.8125
vt 0.328125 0.8125
vt 0.203125 0.640625
vt 0.203125 0.640625
vt 0.203125 0.625
vt 0.203125 0.625
vn 0 0.3826834323650897 -0.9238795325112867
vn 1 0 0
vn 0 -0.3826834323650897 0.9238795325112867
vn -1 0 0
vn 0 0.9238795325112867 0.3826834323650897
vn 0 -0.9238795325112867 -0.3826834323650897
usemtl m_4cdc3e70-883e-b761-2a9e-453736135d1e
f 98/286/72 101/285/72 99/284/72 96/283/72
f 97/290/73 98/289/73 96/288/73 95/287/73
f 102/294/74 97/293/74 95/292/74 100/291/74
f 101/298/75 102/297/75 100/296/75 99/295/75
f 100/302/76 95/301/76 96/300/76 99/299/76
f 101/306/77 98/305/77 97/304/77 102/303/77
o cube
v 0.5 1.1637123539097771 0.3179114273859095
v 0.5 1.1397946393869591 0.26016895660395406
v 0.5 0.875 0.4375
v 0.5 0.8510822854771819 0.37975752921804456
v 0.5 1.1397946393869591 0.26016895660395406
v 0.5 1.1637123539097771 0.3179114273859095
v 0.5 0.8510822854771819 0.37975752921804456
v 0.5 0.875 0.4375
vt 0.5625 0.46875
vt 0.5625 0.46875
vt 0.5625 0.390625
vt 0.5625 0.390625
vt 0.0625 0.71875
vt 0.078125 0.71875
vt 0.078125 0.640625
vt 0.0625 0.640625
vt 0.328125 0.421875
vt 0.328125 0.421875
vt 0.328125 0.34375
vt 0.328125 0.34375
vt 0.09375 0.703125
vt 0.109375 0.703125
vt 0.109375 0.625
vt 0.09375 0.625
vt 0.21875 0.625
vt 0.21875 0.625
vt 0.21875 0.640625
vt 0.21875 0.640625
vt 0.265625 0.609375
vt 0.265625 0.609375
vt 0.265625 0.59375
vt 0.265625 0.59375
vn 0 -0.3826834323650897 -0.9238795325112867
vn 1 0 0
vn 0 0.3826834323650897 0.9238795325112867
vn -1 0 0
vn 0 0.9238795325112867 -0.3826834323650897
vn 0 -0.9238795325112867 0.3826834323650897
usemtl m_4cdc3e70-883e-b761-2a9e-453736135d1e
f 106/310/78 109/309/78 107/308/78 104/307/78
f 105/314/79 106/313/79 104/312/79 103/311/79
f 110/318/80 105/317/80 103/316/80 108/315/80
f 109/322/81 110/321/81 108/320/81 107/319/81
f 108/326/82 103/325/82 104/324/82 107/323/82
f 109/330/83 106/329/83 105/328/83 110/327/83
o cube
v 0.5 1.1298875976506397 0.399571612690683
v 0.5 1.1059698831278217 0.3418291419087276
v 0.5 0.8989177145228181 0.49524247078195544
v 0.5 0.875 0.4375
v 0.5 1.1059698831278217 0.3418291419087276
v 0.5 1.1298875976506397 0.399571612690683
v 0.5 0.875 0.4375
v 0.5 0.8989177145228181 0.49524247078195544
vt 0.34375 0.421875
vt 0.34375 0.421875
vt 0.34375 0.359375
vt 0.34375 0.359375
vt 0.328125 0.5
vt 0.34375 0.5
vt 0.34375 0.4375
vt 0.328125 0.4375
vt 0.359375 0.421875
vt 0.359375 0.421875
vt 0.359375 0.359375
vt 0.359375 0.359375
vt 0.359375 0.5
vt 0.375 0.5
vt 0.375 0.4375
vt 0.359375 0.4375
vt 0.34375 0.546875
vt 0.34375 0.546875
vt 0.34375 0.5625
vt 0.34375 0.5625
vt 0.390625 0.5
vt 0.390625 0.5
vt 0.390625 0.484375
vt 0.390625 0.484375
vn 0 -0.3826834323650897 -0.9238795325112867
vn 1 0 0
vn 0 0.3826834323650897 0.9238795325112867
vn -1 0 0
vn 0 0.9238795325112867 -0.3826834323650897
vn 0 -0.9238795325112867 0.3826834323650897
usemtl m_4cdc3e70-883e-b761-2a9e-453736135d1e
f 114/334/84 117/333/84 115/332/84 112/331/84
f 113/338/85 114/337/85 112/336/85 111/335/85
f 118/342/86 113/341/86 111/340/86 116/339/86
f 117/346/87 118/345/87 116/344/87 115/343/87
f 116/350/88 111/349/88 112/348/88 115/347/88
f 117/354/89 114/353/89 113/352/89 118/351/89
o cube
v 0.5 0.9706708580912724 0.6684698831278217
v 0.5 0.875 0.4375
v 0.5 0.912928387309317 0.6923875976506397
v 0.5 0.8172575292180446 0.4614177145228181
v 0.5 0.875 0.4375
v 0.5 0.9706708580912724 0.6684698831278217
v 0.5 0.8172575292180446 0.4614177145228181
v 0.5 0.912928387309317 0.6923875976506397
vt 0.40625 0.5
vt 0.40625 0.5
vt 0.40625 0.484375
vt 0.40625 0.484375
vt 0.390625 0.46875
vt 0.453125 0.46875
vt 0.453125 0.453125
vt 0.390625 0.453125
vt 0.375 0.421875
vt 0.375 0.421875
vt 0.375 0.40625
vt 0.375 0.40625
vt 0.46875 0.46875
vt 0.53125 0.46875
vt 0.53125 0.453125
vt 0.46875 0.453125
vt 0.578125 0.40625
vt 0.578125 0.40625
vt 0.578125 0.46875
vt 0.578125 0.46875
vt 0.59375 0.46875
vt 0.59375 0.46875
vt 0.59375 0.40625
vt 0.59375 0.40625
vn 0 -0.3826834323650897 -0.9238795325112867
vn 1 0 0
vn 0 0.3826834323650897 0.9238795325112867
vn -1 0 0
vn 0 0.9238795325112867 -0.3826834323650897
vn 0 -0.9238795325112867 0.3826834323650897
usemtl m_4cdc3e70-883e-b761-2a9e-453736135d1e
f 122/358/90 125/357/90 123/356/90 120/355/90
f 121/362/91 122/361/91 120/360/91 119/359/91
f 126/366/92 121/365/92 119/364/92 124/363/92
f 125/370/93 126/369/93 124/368/93 123/367/93
f 124/374/94 119/373/94 120/372/94 123/371/94
f 125/378/95 122/377/95 121/376/95 126/375/95
o cube
v 0.5 1.052331043396046 0.702294639386959
v 0.5 0.9327424707819554 0.4135822854771819
v 0.5 0.9945885726140905 0.7262123539097771
v 0.5 0.875 0.4375
v 0.5 0.9327424707819554 0.4135822854771819
v 0.5 1.052331043396046 0.702294639386959
v 0.5 0.875 0.4375
v 0.5 0.9945885726140905 0.7262123539097771
vt 0.375 0.390625
vt 0.375 0.390625
vt 0.375 0.375
vt 0.375 0.375
vt 0.328125 0.96875
vt 0.40625 0.96875
vt 0.40625 0.953125
vt 0.328125 0.953125
vt 0.609375 0.46875
vt 0.609375 0.46875
vt 0.609375 0.453125
vt 0.609375 0.453125
vt 0.328125 0.9375
vt 0.40625 0.9375
vt 0.40625 0.921875
vt 0.328125 0.921875
vt 0.609375 0.359375
vt 0.609375 0.359375
vt 0.609375 0.4375
vt 0.609375 0.4375
vt 0.578125 0.390625
vt 0.578125 0.390625
vt 0.578125 0.3125
vt 0.578125 0.3125
vn 0 -0.3826834323650897 -0.9238795325112867
vn 1 0 0
vn 0 0.3826834323650897 0.9238795325112867
vn -1 0 0
vn 0 0.9238795325112867 -0.3826834323650897
vn 0 -0.9238795325112867 0.3826834323650897
usemtl m_4cdc3e70-883e-b761-2a9e-453736135d1e
f 130/382/96 133/381/96 131/380/96 128/379/96
f 129/386/97 130/385/97 128/384/97 127/383/97
f 134/390/98 129/389/98 127/388/98 132/387/98
f 133/394/99 134/393/99 132/392/99 131/391/99
f 132/398/100 127/397/100 128/396/100 131/395/100
f 133/402/101 130/401/101 129/400/101 134/399/101